<svg xmlns="http://www.w3.org/2000/svg">
<defs>
<font id="UTMSilkScript" horiz-adv-x="851" >
  <font-face 
    font-family="UTM Silk Script"
    font-weight="400"
    font-stretch="normal"
    units-per-em="2048"
    panose-1="2 4 6 3 5 5 6 2 2 4"
    ascent="1638"
    descent="-410"
    x-height="850"
    cap-height="1683"
    bbox="-204 -565 4942 2410"
    underline-thickness="109"
    underline-position="-143"
    unicode-range="U+0020-U+2026"
  />
<missing-glyph horiz-adv-x="5040" 
d="M3351 2045h10q37 -10 37 -52q0 -12 -32 -57h-28q0 24 28 54l2 10q-5 13 -10 15h-9q-8 0 -10 -19h-30q6 49 42 49zM2019 2016l29 -31q0 -16 -40 -30h-19l-59 12l-11 -12l-28 25q11 29 43 29h11l42 -11h2q10 0 30 18zM468 1980h142v-60h-94v-75h89v-59h-89v-129l-5 -5h-49
v323zM1155 1980h43l6 -5v-78h30v-52h-30v-188l-6 -5h-49v193h-25v52h25v78zM1621 1980h42l4 -5v-94h3q23 24 54 24h2q58 0 83 -71l2 -39v-143h-52v115q0 80 -42 80h-7q-43 0 -43 -86v-109h-51v323zM2200 1980h49l5 -5v-222q10 -51 45 -51q44 7 44 59v214l5 5h49v-216
q0 -85 -66 -112q-15 -8 -35 -8q-47 0 -82 55q-14 24 -14 57v224zM2435 1980h159v-60h-56v-268h-53v268h-55v55zM2621 1980h71q7 -4 83 -251h2l80 251h73v-328h-54v242h-2l-74 -242h-44q-4 0 -58 182l-19 60h-3v-242h-55v328zM3760 1980h52v-328h-45l-5 5v11l3 2l-3 14
q-29 -40 -78 -40q-67 0 -100 91l-5 39v3q0 94 92 125l23 3q35 0 63 -32h3v107zM2057 1928h36l4 -6v-49h-45v-221h-48v23q-23 -31 -59 -31q-89 14 -89 97v156h51v-104q0 -79 26 -86l18 -5h6q26 0 39 36l3 26v133h53v25zM3476 1928v-55h-31v-221h-47v25h-2q-15 -33 -57 -33
q-68 0 -86 78l-3 29v146h52v-120q0 -50 19 -68l21 -7h9q42 0 42 69v126h27q4 0 4 28l3 3h49zM758 1905q68 0 103 -77q9 -18 12 -54q0 -88 -90 -127l-32 -3q-63 0 -101 73q-12 22 -12 52v10q0 94 101 126h19zM1011 1905h3q74 0 83 -101v-152h-51v119q0 76 -42 76h-5
q-44 0 -44 -76v-119h-52v245h46v-21q30 29 62 29zM1466 1905h7q72 0 105 -89h-60q-16 31 -42 31h-17q-53 -14 -53 -61l-3 -15q12 -69 61 -69h9q22 0 47 27h40l2 3h3l2 -3l2 3l3 -3l2 3l2 -7q-33 -81 -110 -81q-76 0 -110 94l-4 36v3q0 85 77 120q15 8 37 8zM3141 1905h2

<glyph glyph-name=".notdef" horiz-adv-x="5040" 
d="M3351 2045h10q37 -10 37 -52q0 -12 -32 -57h-28q0 24 28 54l2 10q-5 13 -10 15h-9q-8 0 -10 -19h-30q6 49 42 49zM2019 2016l29 -31q0 -16 -40 -30h-19l-59 12l-11 -12l-28 25q11 29 43 29h11l42 -11h2q10 0 30 18zM468 1980h142v-60h-94v-75h89v-59h-89v-129l-5 -5h-49
v323zM1155 1980h43l6 -5v-78h30v-52h-30v-188l-6 -5h-49v193h-25v52h25v78zM1621 1980h42l4 -5v-94h3q23 24 54 24h2q58 0 83 -71l2 -39v-143h-52v115q0 80 -42 80h-7q-43 0 -43 -86v-109h-51v323zM2200 1980h49l5 -5v-222q10 -51 45 -51q44 7 44 59v214l5 5h49v-216
q0 -85 -66 -112q-15 -8 -35 -8q-47 0 -82 55q-14 24 -14 57v224zM2435 1980h159v-60h-56v-268h-53v268h-55v55zM2621 1980h71q7 -4 83 -251h2l80 251h73v-328h-54v242h-2l-74 -242h-44q-4 0 -58 182l-19 60h-3v-242h-55v328zM3760 1980h52v-328h-45l-5 5v11l3 2l-3 14
q-29 -40 -78 -40q-67 0 -100 91l-5 39v3q0 94 92 125l23 3q35 0 63 -32h3v107zM2057 1928h36l4 -6v-49h-45v-221h-48v23q-23 -31 -59 -31q-89 14 -89 97v156h51v-104q0 -79 26 -86l18 -5h6q26 0 39 36l3 26v133h53v25zM3476 1928v-55h-31v-221h-47v25h-2q-15 -33 -57 -33
q-68 0 -86 78l-3 29v146h52v-120q0 -50 19 -68l21 -7h9q42 0 42 69v126h27q4 0 4 28l3 3h49zM758 1905q68 0 103 -77q9 -18 12 -54q0 -88 -90 -127l-32 -3q-63 0 -101 73q-12 22 -12 52v10q0 94 101 126h19zM1011 1905h3q74 0 83 -101v-152h-51v119q0 76 -42 76h-5
q-44 0 -44 -76v-119h-52v245h46v-21q30 29 62 29zM1466 1905h7q72 0 105 -89h-60q-16 31 -42 31h-17q-53 -14 -53 -61l-3 -15q12 -69 61 -69h9q22 0 47 27h40l2 3h3l2 -3l2 3l3 -3l2 3l2 -7q-33 -81 -110 -81q-76 0 -110 94l-4 36v3q0 85 77 120q15 8 37 8zM3141 1905h2
q49 0 70 -60v-14h-52q0 16 -16 16h-4q-14 0 -19 -13v-13q0 -9 68 -35q30 -19 30 -59q0 -58 -61 -80l-23 -3q-76 12 -76 83h54q0 -20 27 -25h4q19 0 24 23q0 22 -68 44q-34 27 -34 59q0 66 74 77zM4203 1905q55 0 77 -63q7 -18 7 -65v-125h-52v112q0 83 -40 83h-11
q-33 0 -40 -54v-141h-52v5h-2l2 2v238h47v-21q25 29 64 29zM4432 1905h5q40 0 69 -40v18l-3 3l3 11h47v-208q0 -97 -85 -132l-33 -4h-7q-70 0 -104 80h59q24 -22 45 -23h13q22 0 43 22q15 13 22 52h-3q-32 -40 -73 -40q-57 0 -96 70q-10 18 -14 63q0 88 87 125zM3851 1897
h53v-136q6 -59 40 -59h7q46 0 46 93v102h51v-245h-47l-3 10h3l-3 3v5l3 2v3h-4q0 -23 -57 -31h-3q-59 0 -84 75l-2 85v93zM690 1771q10 -69 63 -69h7q59 14 59 65v15q-13 65 -59 65h-5q-58 0 -65 -76zM3630 1774q13 -72 61 -72h5q58 0 66 75q0 49 -51 70h-22q-37 0 -56 -57z
M4374 1774q8 -72 65 -72h5q59 12 59 72q0 61 -59 73h-14q-56 -16 -56 -62v-11zM3928 1620h52v-57h-52v57zM1054 1402q43 -11 43 -49v-4q0 -17 -32 -60h-28q0 25 31 57v7q0 12 -7 15h-12q-10 -4 -10 -19h-28v6q0 32 33 44zM3349 1339q92 0 138 -99h-60q-37 42 -80 42
q-55 0 -87 -68q-10 -22 -10 -47q0 -78 81 -110l18 -1q36 0 75 39h61q-44 -97 -138 -97q-93 0 -141 112q-10 31 -10 62q0 97 90 152q29 15 63 15zM3664 1339q57 0 103 -47q46 -51 46 -115v-20q0 -89 -91 -146q-33 -13 -63 -13q-89 0 -138 101q-13 33 -13 60v18q0 98 98 151
q29 11 58 11zM2261 1337h2l47 -11h3q11 0 26 11l18 -36q-18 -19 -35 -19h-3l-54 10l-20 -7l-20 36q18 16 36 16zM716 1334h19q118 0 129 -26q25 -26 25 -62q-10 -57 -30 -57v-6q47 -23 47 -66v-18q0 -63 -69 -88l-54 -5h-67v328zM2550 1334h53v-217q6 -61 45 -61q29 0 44 39
l3 30v203l4 6h45l5 -6v-171q0 -118 -40 -133q-24 -26 -64 -26q-55 0 -91 76l-4 54v206zM2805 1334h59q4 0 122 -237h4v237h50l4 -6v-322h-58q-29 48 -125 238h-3v-238h-53v328zM3101 1334h54v-328h-54v328zM3859 1334h8q155 0 174 -40q23 -11 47 -75l4 -36v-11l3 -2
q0 -94 -82 -149q-35 -15 -99 -15h-55v328zM4141 1334h153v-60h-103v-75h101v-57h-101v-74l4 -5h99v-57h-157v322zM3563 1175v-10q0 -76 79 -108l19 -1q68 0 96 86l3 20v15q0 61 -60 94q-12 8 -39 11q-66 0 -96 -83zM770 1274v-67h9q54 0 54 28l3 14q-11 25 -29 25h-37z
M3912 1274v-206l2 -3v-2q104 0 122 76l2 15v29q0 34 -32 68q-25 23 -78 23h-16zM1041 1259h5q38 0 71 -40v32h49v-245h-49v32q-36 -40 -80 -40q-75 0 -101 97l-5 36q0 89 85 125zM1314 1259h3q74 0 83 -102v-151h-51v128q0 67 -42 67h-10q-34 0 -39 -62v-133h-52v245h47v-21
q28 29 61 29zM1543 1259h5q45 0 71 -40v32h47v-219q0 -95 -104 -126h-16q-74 0 -108 82h59q26 -25 44 -25h14q52 0 64 77q-33 -42 -76 -42q-60 0 -101 81l-7 44v16q0 79 85 117zM1912 1259h2q43 0 61 -37h2q32 37 69 37h4q57 0 79 -55q8 -25 8 -45v-153h-52v138q0 44 -23 55
l-12 2h-15q-32 0 -36 -65v-130h-52v136q0 59 -43 59h-8q-32 0 -36 -57v-138h-54v245h50v-21h2q6 24 54 29zM2282 1259q47 0 75 -42v34h47v-245h-47v32q-36 -40 -78 -40q-74 0 -102 92l-6 41q0 90 85 125zM985 1117q0 -48 61 -61h4q45 0 62 46l3 15v22q-12 62 -57 62h-14
q-41 0 -59 -57v-27zM1487 1128q0 -48 43 -68l18 -4h5q47 0 63 57v23q-11 65 -58 65h-12q-50 0 -59 -73zM2225 1131v-14q15 -61 57 -61h14q58 12 58 64v11q0 45 -37 65l-18 5h-10q-64 -8 -64 -70zM770 1150v-82q0 -5 7 -5q77 0 77 45q0 34 -47 42h-37zM2966 753l24 -28
l-51 -55q-18 12 -27 26zM1524 727l85 -54q0 -15 -21 -42l-87 54q18 41 23 42zM2850 693h38l55 -60h-54l-21 26l-23 -26h-54q54 60 59 60zM3422 693h40l56 -60h-54l-24 26h-1q0 -5 -19 -26h-54zM622 685h52q8 -4 47 -137l34 -110q9 8 34 100l48 147h54v-2l-112 -326h-44z
M1159 685h51v-54h-51v54zM1354 685h46l6 -5v-323h-52v328zM2317 685h45l4 -5v-78h31v-52h-31v-193h-53v193h-26v52h26v78zM2425 685h52v-98h2q23 23 54 23h3q57 0 81 -71l3 -38v-144h-52v115q0 81 -39 81h-10q-42 0 -42 -87v-109h-52v328zM2664 685h52v-54h-52v54zM3028 685
h44l6 -5v-78h29v-52h-29v-193h-54v193h-27v52h27v78zM3234 685h52v-328h-52v328zM3957 685h52v-328h-52v328zM4316 685h51v-54h-51v54zM1555 610h5q83 0 110 -102l3 -23v-11q0 -83 -85 -120l-35 -5q-76 0 -111 97l-4 32q0 97 93 130zM1811 610h4q53 0 78 -60q7 -25 7 -81
v-112h-54v146q-7 50 -37 50h-10q-38 0 -42 -57v-139h-54v245h49v-21q26 29 59 29zM2046 610h4q45 0 63 -39h3v31h49v-206q0 -102 -89 -135l-28 -3h-5q-73 0 -106 81h52l37 -20l15 -3h14q50 0 61 72q-33 -39 -73 -39q-62 0 -98 76q-11 23 -12 60q0 85 86 123zM2866 610h2
q82 0 111 -104l2 -25l-2 -27h-172q15 -45 45 -45l14 -3q29 0 49 22h57v-3q-35 -76 -108 -76q-77 0 -111 97l-1 28v8q0 49 32 89q34 39 82 39zM3429 610h5q41 0 70 -39h2v31h47v-245h-47v31h-2q-35 -39 -77 -39q-71 0 -101 89l-5 36v14q0 86 84 120zM3711 610h7
q88 0 107 -128l-2 -1v-15q0 -65 -66 -106q-21 -11 -46 -11q-34 0 -64 32v-99l-5 -5h-49v325h49v-28q31 36 69 36zM4151 610q44 0 75 -39v31h49v-245h-49v31q-35 -39 -77 -39q-92 0 -108 132q0 84 73 121q15 8 37 8zM922 602h50v-136q3 -60 42 -60h5q44 0 44 87v109h52v-245
h-47v24h-5q0 -23 -56 -32h-3q-55 0 -82 68q-4 35 -4 99v81zM1159 602h51v-245h-51v245zM2664 602h52v-245h-52v245zM4316 602h51v-245h-51v245zM1492 488v-16q13 -66 59 -66h4q59 0 66 76q-13 71 -59 71h-11q-59 -16 -59 -65zM1987 472q15 -66 59 -66h11q48 0 59 75v1
q-13 71 -59 71h-14q-39 0 -56 -57v-24zM2805 506h122v2q-16 45 -59 45h-7q-35 0 -56 -47zM3373 474q13 -68 61 -68h5q52 0 65 63v12q-10 72 -57 72h-16q-56 -14 -56 -63zM3642 478q12 -72 61 -72h3q50 0 65 60v22q0 43 -49 65h-22q-47 0 -58 -72v-3zM4095 472q10 -66 66 -66
q43 0 61 48l2 15v16q0 54 -52 68h-18q-42 0 -59 -60v-21zM3416 321h51v-52h-51v52zM4137 321h51v-52h-51v52zM2733 133h4q35 0 43 -50v-2q0 -16 -24 -41l-10 -17h-28q0 25 28 56l3 2v2q-3 19 -9 19h-10q-8 0 -9 -19h-30q6 50 42 50zM1546 116l52 -60l-26 -19l-52 52zM352 79
h4q75 -48 85 -60l-20 -37q-88 49 -88 58zM3490 79l86 -58l-18 -39q-10 0 -91 55q15 36 23 42zM4578 76l19 -42l-91 -52l-20 39l92 58v-3zM1204 53h51v-19l5 -5h14v-36h-14l-5 -5v-279h-46v31q-34 -40 -81 -40q-72 0 -102 105l-3 26q0 102 101 131h14q33 0 66 -33v59l-6 5
h-43v36h49v24zM1480 45h40l56 -61h-53l-23 27l-23 -27h-53zM2641 45h33q12 0 63 -61h-54l-23 27q-19 -21 -19 -27h-58v4zM49 37h160v-60h-56v-268h-50l-4 5v245l2 3v2l-2 2l2 3l-2 2l2 3l-2 3h-54v54zM699 37h47v-73l2 -2l-2 -3v-3l2 -2l-2 -3v-3l2 -2v-2l-2 -3l2 -3h3
q17 24 51 24h3q53 0 77 -58q7 -17 7 -42v-153h-52v127q0 68 -40 68h-8q-43 0 -43 -86v-109h-52v322zM1297 37h47l5 -6v-49h-52v55zM1987 37h52v-198l70 115h62l-78 -118l90 -125v-2h-70q-10 22 -74 115v-115h-52v328zM2271 37v-99q24 24 53 24q57 0 80 -56q10 -19 10 -77
v-120h-54v133q0 62 -41 62h-11q-31 0 -37 -55v-140h-53v314l-1 3v3l1 2l-1 3l1 3h53zM2458 37h51v-55h-51v55zM3148 37h51v-108q27 33 68 33h3q75 0 105 -94l5 -37q0 -75 -64 -120q-30 -11 -49 -11q-41 0 -72 40v-31h-47v328zM4275 37h52v-99h2q23 24 54 24h3q60 0 82 -74
l2 -41v-138h-52v111q0 82 -32 82l-10 2h-12q-37 0 -37 -80v-115h-52v328zM329 -38h3v-58h-5q-42 0 -42 -57v-138h-53v245h47v-21q18 29 50 29zM564 -38q71 0 86 -87v-166h-51v136q-6 59 -41 59h-6q-45 0 -45 -84v-111h-52v245h50v-21q25 29 59 29zM1504 -38q72 0 105 -94
l5 -39q-2 -24 -7 -24h-169q17 -47 62 -47q24 0 48 21h57q-33 -79 -108 -79q-82 0 -113 105v37q0 81 89 117zM2657 -38h5q77 0 107 -97l3 -26v-21l-3 -13h-170q18 -47 53 -47h12q21 0 42 21h59q-34 -79 -105 -79q-84 0 -115 102l-2 29q0 93 91 128zM2915 -38h4q54 0 78 -60
q7 -25 7 -82v-111h-54v138q0 48 -35 57h-11q-38 0 -43 -57v-138h-54v245h50v-21q25 29 58 29zM3508 -38h6q40 0 70 -40h2v32h47v-245h-47v31h-2q-34 -40 -78 -40q-71 0 -101 90l-4 37v12q0 82 77 117q11 6 30 6zM3781 -38h4q62 0 82 -78l3 -84v-91h-54v138q0 48 -38 57h-9
q-38 0 -42 -52v-143h-54v245h49v-21q26 29 59 29zM4133 -38h1q74 0 104 -93l4 -40q0 -88 -84 -126l-25 -3q-41 0 -68 34v-106h-52v326h47v-29q30 37 73 37zM4714 -38h5q34 0 63 -37q27 37 69 37h6q56 0 79 -66l6 -51v-136h-52v122q0 73 -39 73h-7q-35 0 -41 -50v-140l-5 -5
h-48v140q0 42 -31 55h-17q-40 0 -40 -77v-118h-51v245h47v-21q22 29 56 29zM359 -46h49l5 -6v-234l-5 -5h-49v245zM1297 -46h52v-245h-52v245zM1649 -46h52v-136q4 -60 43 -60h4q44 0 44 81v115h52v-245h-47v24h-5q-12 -33 -59 -33q-52 0 -79 63q-5 12 -5 34v157zM2458 -46
h51v-245h-51v245zM4515 -46h51v-245h-51v245zM1077 -169q0 -53 51 -73h12q54 0 66 66v10q0 53 -54 70h-17q-38 0 -58 -57v-16zM1438 -143h122q-18 47 -53 47h-7q-43 0 -62 -44v-3zM2599 -143h122q-21 47 -54 47h-7q-46 0 -61 -47zM3196 -158v-11q10 -73 61 -73h5q64 8 64 71
v5q0 45 -38 65l-18 5h-14q-60 -14 -60 -62zM3452 -173q14 -69 62 -69h11q41 0 59 60v13q-8 73 -56 73h-17q-47 0 -59 -73v-4zM4062 -158v-22q0 -47 59 -62h9q50 0 61 76q-13 70 -58 70h-15q-56 -17 -56 -62z" />
    <glyph glyph-name=".null" horiz-adv-x="0" 
 />
    <glyph glyph-name="nonmarkingreturn" horiz-adv-x="571" 
 />
    <glyph glyph-name="space" unicode=" " horiz-adv-x="409" 
 />
    <glyph glyph-name="exclam" unicode="!" horiz-adv-x="403" 
d="M461 1223q-2 -25 -5 -46.5t-14 -50.5l-227 -716q-23 -70 -30 -94.5t-17 -24.5q-21 0 -21 35q0 12 2 30.5t9 53.5l125 749q12 76 43.5 116t66.5 40q37 0 52.5 -25.5t15.5 -66.5zM211 80q0 -35 -24.5 -58.5t-59.5 -23.5t-58.5 23.5t-23.5 58.5t23.5 60.5t58.5 25.5
t59.5 -25.5t24.5 -60.5z" />
    <glyph glyph-name="quotedbl" unicode="&#x22;" horiz-adv-x="409" 
d="M206 754l52.5 193t40 128t35.5 71.5t40 22.5q18 0 30.5 -11t12.5 -38q0 -14 -18.5 -56t-47 -97.5t-62.5 -113.5t-67 -103zM411 754l52.5 193t39.5 128t35.5 71.5t40.5 22.5q18 0 30.5 -11t12.5 -38q0 -14 -18.5 -56t-47 -97.5t-62.5 -113.5t-67 -103z" />
    <glyph glyph-name="numbersign" unicode="#" horiz-adv-x="2426" 
d="M822 1677q-41 0 -101.5 -16t-127.5 -51q51 -58 87 -127.5t59.5 -138t33.5 -131t10 -107.5q0 -78 -22.5 -160t-66.5 -148.5t-110.5 -109.5t-154.5 -43q-55 0 -107.5 22.5t-93.5 70.5t-65.5 122t-24.5 176q0 33 6 70q-129 10 -198.5 93t-69.5 237q0 80 34 140t88 102
t122.5 63.5t138.5 21.5q94 0 168 -32.5t131 -85.5q66 34 135.5 55.5t140.5 21.5q95 0 184 -26.5t159.5 -78.5t117.5 -129t58 -177q94 184 188 257.5t201 73.5q45 0 75.5 -19t51 -50t30 -68t9.5 -73q0 -84 -38 -216.5t-95.5 -287l-124 -318.5l-124 -311t-95 -266t-37.5 -183
q0 -47 22.5 -74.5t73.5 -27.5q65 0 113.5 46t82 102.5t54 102.5t30.5 46q13 0 15 -5t2 -17q0 -21 -22.5 -73t-62.5 -107.5t-94.5 -97.5t-117.5 -42q-78 0 -121 52t-43 124q0 39 21.5 117t56.5 179l79 220l91 243l91 246t79 228.5t56.5 191.5t21.5 134q0 20 -5.5 43.5
t-17.5 43t-30.5 32t-43.5 12.5q-43 0 -90 -18.5t-94 -61.5t-95 -111.5t-93 -167.5q-9 -127 -56 -271t-123.5 -287.5t-180 -275.5t-225.5 -233.5t-258 -162t-280 -60.5q-69 0 -119.5 37t-50.5 115q0 32 14.5 61t37 49.5t50 31.5t52.5 11q33 0 55.5 -20.5t22.5 -67.5
t-23.5 -92t-60.5 -68q4 -10 16 -14t17 -4q161 0 292 81t233.5 208t175.5 283.5t120 308t69.5 280.5t22.5 203q0 88 -26.5 153.5t-71.5 110.5t-105.5 67.5t-128.5 22.5zM732 1128q0 117 -44 244t-130 219q-57 -32 -114.5 -76.5t-105.5 -100.5t-85 -124.5t-55 -148.5
q32 2 66 12t62.5 21.5l49 20.5t30.5 9q11 0 17 -1t6 -11q0 -14 -24.5 -29.5t-60.5 -28t-78 -21.5t-77 -9q-6 -47 -6 -94q0 -58 16.5 -116t49.5 -104.5t82 -76t116 -29.5q80 0 134.5 46t88 113.5t48 145.5t14.5 139zM-73 1415q0 -33 11.5 -78t37 -86t68.5 -72.5t108 -37.5
q17 63 51.5 130.5t82 132t108 121t129.5 99.5q-53 45 -119.5 71.5t-144.5 26.5q-70 0 -130 -20.5t-105.5 -59t-71 -96t-25.5 -131.5zM1869 668q0 37 12 99t37.5 135t63.5 147.5t90.5 135t119 99.5t148.5 39q65 0 115.5 -29.5t58.5 -113.5h-12q-17 61 -55 87.5t-81 26.5
q-47 0 -94 -44t-90 -113.5t-79 -152.5t-62.5 -162t-42 -142.5t-15.5 -91.5q0 -19 4.5 -39.5t15.5 -36.5t30.5 -27.5t52.5 -11.5q69 0 126.5 49t97.5 113.5t61.5 128t21.5 90.5q-20 37 -32.5 73t-12.5 83q0 30 12.5 56t29.5 46.5t38.5 31.5t40.5 11q18 0 30.5 -14.5
t12.5 -44.5q0 -17 -12.5 -70t-36 -126t-59.5 -152.5t-85 -147.5t-110.5 -112t-134.5 -44q-46 0 -82.5 17.5t-64.5 48.5t-43 72t-15 86zM2182 262q0 -20 -12.5 -35.5t-44.5 -15.5h-314q-49 0 -49 31q0 18 13.5 32.5t44.5 14.5h313q49 0 49 -27z" />
    <glyph glyph-name="dollar" unicode="$" horiz-adv-x="1007" 
d="M731 1352q18 0 18 -25q0 -6 -2 -14t-4 -17l-23 -96q60 -6 118.5 -24.5t103.5 -49t72.5 -74.5t27.5 -100q0 -28 -11.5 -58t-31.5 -54.5t-50 -41t-65 -16.5q-39 0 -62.5 17.5t-23.5 56.5t19.5 65.5t48.5 43t62.5 24.5t64.5 10q0 37 -29 66t-72 48.5t-92 31.5t-88 16
l-121 -520q66 -6 129.5 -17.5t112.5 -37t80 -70.5t31 -121q0 -100 -44 -186t-116 -148.5t-163 -97.5t-185 -35h-10l-21 -94q-10 -45 -29 -47q-8 0 -15 6t-7 14v14t4 23l20 88q-59 7 -116.5 25t-102.5 49t-71.5 75t-26.5 99q0 29 11.5 58.5t31.5 54t50 41t65 16.5
q39 0 62.5 -17.5t23.5 -56.5q0 -38 -19.5 -65t-48.5 -43t-62.5 -24.5t-64.5 -10.5q0 -37 28.5 -65.5t70.5 -48t90.5 -32t87.5 -16.5l114 492q-63 6 -124.5 19.5t-109.5 43t-78 79.5t-30 132q0 101 44 187t116 148.5t163 97t185 34.5h8l25 105q4 16 10 29.5t21 13.5zM262 827
q0 -53 23.5 -86.5t62.5 -53t90 -28t106 -14.5l121 520q-72 0 -143.5 -22.5t-129 -65.5t-94 -105.5t-36.5 -144.5zM841 305q0 47 -24.5 75t-64.5 43t-93 22.5t-111 13.5l-112 -492q69 0 142 22.5t131.5 65.5t95 105.5t36.5 144.5z" />
    <glyph glyph-name="percent" unicode="%" horiz-adv-x="1513" 
d="M1511 590q0 -82 -25.5 -187.5t-73 -198.5t-114 -156.5t-148.5 -63.5q-57 0 -103 21.5t-79 58t-50.5 86t-17.5 104.5q0 111 27 214t80 183t132 128t183 48q37 0 72 -18t60.5 -50t41 -75t15.5 -94zM1472 594q0 35 -12.5 69.5t-33 63.5t-48 46.5t-58.5 17.5q-57 0 -101 -36
t-77 -92.5t-56.5 -126t-37.5 -137t-21.5 -125t-7.5 -90.5q0 -166 140 -166q45 0 84.5 35t74.5 89.5t63.5 121t48 130t31 117.5t11.5 83zM722 936q0 -82 -25.5 -187.5t-72.5 -198.5t-113.5 -156.5t-148.5 -63.5q-57 0 -103.5 21.5t-79 58t-50 86t-17.5 104.5
q0 111 26.5 214.5t80 183t132 128t183.5 48.5q37 0 71.5 -18.5t60.5 -50.5t41 -75t15 -94zM683 940q0 35 -12 69.5t-32.5 63.5t-48 46.5t-58.5 17.5q-58 0 -102 -36t-76.5 -92.5t-56 -126t-38 -137t-21.5 -125t-7 -90.5q0 -165 139 -165q45 0 85 34.5t75 89t63.5 121t48 130
t30.5 117.5t11 83zM1183 1190q0 -8 -5 -18.5t-11 -20.5l-690 -1194q-11 -18 -18 -27.5t-17 -9.5q-11 0 -16 8.5t-5 18.5q0 4 15 33l692 1196q10 16 18 24t23 8q14 0 14 -18z" />
    <glyph glyph-name="ampersand" unicode="&#x26;" horiz-adv-x="1404" 
d="M1032 1341q0 -90 -30 -166.5t-79 -143t-113.5 -125t-136.5 -111.5l46.5 -40.5t48.5 -37.5q90 74 195.5 122t189.5 48q86 0 143 -44t57 -136q0 -78 -37.5 -158t-103.5 -156q70 -71 114 -161.5t44 -206.5q0 -70 -21.5 -135.5t-61.5 -115.5t-96.5 -81t-125.5 -31
q-45 0 -87 11.5t-75 36t-52.5 62.5t-19.5 91q0 76 27.5 102.5t68.5 26.5q37 0 58.5 -18.5t21.5 -53.5q0 -41 -22.5 -59.5t-53.5 -18.5q-38 0 -75 27q0 -53 18.5 -86t46 -53.5t60 -27.5t59.5 -7q66 0 110 33.5t69.5 84t35.5 109t10 109.5q0 92 -29.5 166.5t-76.5 136.5
q-72 -74 -162 -136.5t-187.5 -109.5t-194.5 -73.5t-185 -26.5q-60 0 -118 15t-105.5 47t-76 82t-28.5 118q0 96 39 183t103.5 167t146.5 151.5t166 137.5q-23 41 -35 87t-12 99q0 72 30.5 146.5t82.5 135t120 98.5t143 38q72 0 109 -43t37 -109zM589 426q0 66 41 135.5
t107 128.5l-47.5 41.5l-44.5 42.5l-180.5 -127.5t-162 -127t-116.5 -134.5t-45 -152q0 -59 26.5 -99t69.5 -64.5t96.5 -35.5t104.5 -11q86 0 180 26.5t186.5 72.5t178.5 108.5t155 131.5q-39 46 -86 85.5l-96 77.5l-100.5 75l-98.5 74q-59 -56 -97 -119t-38 -129
q0 -61 39 -103t107 -42q47 0 89 15t73.5 34.5t52 35t26.5 15.5q11 0 11 -16q0 -15 -13 -21q-59 -35 -117.5 -61.5t-130.5 -26.5q-71 0 -120.5 46t-49.5 124zM542 1067q0 -86 41 -158l155 120t133 113.5t93 109t35 106.5q0 47 -31.5 75.5t-81.5 28.5q-71 0 -134.5 -36.5
t-109.5 -94t-73 -127t-27 -137.5zM1169 858q-41 0 -88 -11t-97.5 -31.5t-99.5 -50.5t-94 -65l203.5 -133.5t193.5 -150.5q62 71 98 146t36 145q0 71 -43 111t-109 40z" />
    <glyph glyph-name="quotesingle" unicode="'" horiz-adv-x="307" 
d="M206 754l52.5 193t40 128t35.5 71.5t40 22.5q18 0 30.5 -11t12.5 -38q0 -14 -18.5 -56t-47 -97.5t-62.5 -113.5t-67 -103z" />
    <glyph glyph-name="parenleft" unicode="(" horiz-adv-x="532" 
d="M336 -113l-15 -8l-8 6q-47 107 -72.5 238t-25.5 278q0 246 106.5 489t317.5 517h8l14 -6l-2 -6q-186 -322 -275 -622t-89 -568q0 -187 41 -309v-9z" />
    <glyph glyph-name="parenright" unicode=")" horiz-adv-x="532" 
d="M320 1401l14 6l8 -4q47 -109 72.5 -240t25.5 -278q0 -244 -106.5 -487.5t-316.5 -516.5l-9 -2l-14 8l2 9q186 321 275.5 619t89.5 566q0 191 -43 312z" />
    <glyph glyph-name="asterisk" unicode="*" horiz-adv-x="2234" 
d="M1976 819q43 -108 66.5 -234t25.5 -274q43 4 85 9.5l78 10.5t61.5 8t35.5 3q23 0 23 -10q0 -17 -52 -25q-55 -12 -113.5 -21.5t-119.5 -13.5q-2 -51 -11.5 -120.5t-33 -133t-63.5 -107.5t-103 -44q-74 0 -122 32.5t-76.5 84t-40 114t-11.5 123.5v28t2 30q-244 18 -442 71
q-170 -160 -356.5 -261t-391.5 -101q-78 0 -143.5 26.5t-112.5 73.5t-72.5 111.5t-25.5 140.5q0 92 39 160.5t106 130.5q11 10 19 16t20 6q4 0 11.5 -4t7.5 -8q0 -12 -26.5 -32.5t-58.5 -57.5t-58.5 -94.5t-26.5 -139.5q0 -55 23.5 -108t63.5 -95t92 -68t110 -26
q204 0 386.5 95.5t348.5 246.5q-172 50 -297 119.5t-205 149.5t-119 166t-39 170q0 120 47.5 213.5t129 156t189 95t228.5 32.5q88 0 181.5 -18.5t184.5 -56t177 -95t160 -133.5l147.5 220.5t131 181t112.5 123t92 45.5q18 0 32.5 -20.5t14.5 -68.5q0 -83 -27.5 -180.5
t-71.5 -203t-99.5 -217zM630 948q0 -76 27 -152.5t88 -149.5t162.5 -135t253.5 -110q164 160 304 348.5t263 370.5q-141 142 -316 209.5t-341 67.5q-84 0 -163 -30t-140.5 -87t-99.5 -141t-38 -191zM1206 389q168 -47 407 -70q13 72 37.5 148t60 152.5t77.5 154.5l87 154
q-53 88 -116 159q-117 -174 -255 -358t-298 -340zM1787 1128q31 -34 59.5 -74t53.5 -83l128.5 203.5t114.5 186.5t81.5 158.5t31.5 122.5q0 17 -4 32.5t-28 15.5q-31 0 -73 -44t-97.5 -121t-122 -178.5zM1914 266h-92t-88 4q-16 -53 -24.5 -104t-8.5 -98q0 -66 33 -113
t105 -47q55 0 93 38t61.5 93t33.5 117.5t10 113.5q-30 -4 -61 -4h-62zM1961 305h35.5t38.5 2q-2 135 -23.5 250t-60.5 215l-115.5 -236.5t-89.5 -224.5q101 -6 215 -6z" />
    <glyph glyph-name="plus" unicode="+" horiz-adv-x="634" 
d="M622 350q0 -20 -12.5 -35.5t-45.5 -15.5h-202l-37 -207q-4 -29 -12.5 -37t-22.5 -8q-16 4 -29.5 14.5t-13.5 34.5q0 10 2 17l33 186h-195q-49 0 -49 31q0 18 13.5 32.5t43.5 14.5h201l37 207q6 41 33 41q43 0 43 -64l-33 -184h197q49 0 49 -27z" />
    <glyph glyph-name="comma" unicode="," horiz-adv-x="258" 
d="M-65 -217l75.5 186.5t53.5 121.5t40 65.5t40 19.5q55 0 55 -55q0 -27 -25.5 -71t-63.5 -93t-81 -97l-78 -85z" />
    <glyph glyph-name="hyphen" unicode="-" horiz-adv-x="471" 
d="M458 350q0 -20 -12.5 -35.5t-45.5 -15.5h-313q-49 0 -49 31q0 18 13.5 32.5t43.5 14.5h314q49 0 49 -27z" />
    <glyph glyph-name="hyphen" unicode="&#x2010;" horiz-adv-x="471" 
d="M458 350q0 -20 -12.5 -35.5t-45.5 -15.5h-313q-49 0 -49 31q0 18 13.5 32.5t43.5 14.5h314q49 0 49 -27z" />
    <glyph glyph-name="period" unicode="." horiz-adv-x="264" 
d="M211 80q0 -35 -24.5 -58.5t-59.5 -23.5t-58.5 23.5t-23.5 58.5t23.5 60.5t58.5 25.5t59.5 -25.5t24.5 -60.5z" />
    <glyph glyph-name="slash" unicode="/" horiz-adv-x="919" 
d="M1127 1858q0 -9 -5 -19t-11 -20l-1086 -1866q-10 -19 -17 -28t-18 -9q-10 0 -15 8t-5 19q0 4 14 32l1088 1868q10 17 18 25t23 8q14 0 14 -18z" />
    <glyph glyph-name="zero" unicode="0" horiz-adv-x="874" 
d="M92 354q0 76 19.5 165t57.5 178t92 173t121.5 147.5t147.5 102.5t172 39q15 0 31 -1t30.5 -5t25 -11t10.5 -18q0 -6 -13 -6q-12 0 -26.5 6t-63.5 6q-69 0 -130.5 -48t-115 -125.5t-95.5 -175t-71.5 -195t-45 -184.5t-15.5 -144q0 -35 3 -79t15.5 -82t39 -64.5t73.5 -26.5
q92 0 166 61.5t130 154.5t96 207t64.5 217.5t36 184t11.5 109.5q0 43 -30.5 80t-90.5 37q-27 0 -38 -5t-21 -5q-11 0 -11 10q0 16 24 23t40 7q90 0 144.5 -68.5t54.5 -207.5q0 -86 -18.5 -181t-53.5 -187.5t-84 -176.5t-113.5 -148.5t-141.5 -102.5t-165 -38q-80 0 -130 37
t-79.5 93.5t-41 122t-11.5 124.5z" />
    <glyph glyph-name="one" unicode="1" horiz-adv-x="616" 
d="M43 6q0 10 17.5 15.5t40 6.5t43 1t28.5 2l43 112.5l58.5 158.5l65.5 184.5l66.5 189.5l61.5 173t47 138q-8 8 -18 8q-13 0 -33.5 -13t-34.5 -21q-123 -72 -194.5 -120t-88.5 -48q-8 0 -8 8q0 12 26.5 31.5t63.5 43l79 48t75 49.5q20 14 40.5 34.5l40 40t40 37t45.5 25.5
q35 12 71.5 22.5t77.5 10.5q11 0 11 -19q0 2 -23 -61.5l-57.5 -163.5l-75.5 -222l-79 -233.5l-66.5 -196.5t-36.5 -114q-2 -8 -7.5 -23.5l-11.5 -33t-11 -33.5t-7 -29h37q16 0 42.5 8.5t37.5 8.5q16 0 16 -15q0 -10 -11.5 -15t-26.5 -9t-33.5 -5t-33.5 -1q-61 0 -104 10
t-82 10q-53 0 -74.5 -6t-38.5 -6q-8 0 -13 1t-5 11z" />
    <glyph glyph-name="two" unicode="2" horiz-adv-x="929" 
d="M827 195q0 -89 -56 -151t-169 -62q-63 0 -110.5 12t-92.5 25.5t-94 25.5t-117 12q-30 0 -60 -5t-61 -5q-20 0 -20 12q0 9 13.5 26t40 35.5t64.5 35t87 22.5q102 55 199.5 131t173 165t121.5 190.5t46 209.5q0 48 -18 86.5t-50 67.5t-72 45.5t-83 16.5q-110 0 -171.5 -69
t-61.5 -175q0 -23 4 -45.5t14 -41t30.5 -30.5t55.5 -12q-10 26 -10 49q0 41 27.5 64.5t58.5 23.5q35 0 53.5 -24.5t18.5 -57.5q0 -39 -30 -72.5t-95 -33.5q-56 0 -106 45t-50 139q0 70 24.5 125t67.5 95t102.5 61.5t131.5 21.5q55 0 112.5 -17.5t105.5 -50t77.5 -82
t29.5 -112.5q0 -88 -33.5 -164t-89 -143.5t-127 -125t-146.5 -108.5l-146.5 -96t-126.5 -86q172 -55 260 -71.5t123 -16.5q22 0 42.5 1t43.5 11q18 8 24 33t9.5 50.5t6.5 45t17 19.5q8 0 10 -5.5t2 -39.5z" />
    <glyph glyph-name="three" unicode="3" horiz-adv-x="829" 
d="M61 195q0 10 1 19t11 9q8 0 11.5 -25.5t18.5 -57t54 -57.5t121 -26q74 0 138.5 31t113.5 82t77.5 118.5t28.5 139.5q0 27 -2 58.5t-11 59t-26.5 46t-50.5 18.5q-36 -6 -88.5 -17t-99.5 -11q-21 0 -39 5t-18 34q0 28 30.5 36.5t57.5 8.5q34 0 80.5 -5.5t87.5 -9.5
q28 0 58 27t53.5 64.5t39 80.5t15.5 78q0 43 -15.5 82t-43.5 67.5t-64.5 46t-81.5 17.5q-51 0 -90 -23.5t-65 -57.5t-38 -70.5t-12 -65.5q0 -43 -12 -43q-17 0 -17 47q0 49 19.5 94t59.5 81t100.5 56.5t140.5 20.5q49 0 92 -17.5t73.5 -47t49 -70.5t18.5 -88
q0 -66 -19.5 -111t-51 -78.5t-71.5 -58.5t-81 -47q82 -41 124 -95.5t42 -144.5t-40 -165.5t-104.5 -130t-146.5 -85t-166 -30.5q-47 0 -94 13t-84 39.5t-60.5 66.5t-23.5 92z" />
    <glyph glyph-name="four" unicode="4" horiz-adv-x="829" 
d="M319 25q28 67 61 161.5l66 190.5q-39 8 -81 14t-96 6q-59 0 -109 -13t-106 -40q-4 -2 -8 -2q-8 0 -8 8t4 12q59 56 118.5 144t109 186.5t83 197.5t43.5 179q9 39 68 55.5t131 24.5q12 0 12 -23q0 -16 -21.5 -60t-58 -106.5t-85 -136l-101.5 -147.5l-107.5 -143.5
t-101.5 -122.5q64 12 129 12q51 0 99.5 -5t95.5 -11l55.5 166.5t34.5 109.5q6 16 45 39.5t117 23.5q10 0 10 -18q0 2 -11.5 -27.5t-27.5 -79l-37.5 -110.5l-42.5 -123q10 -2 22.5 -2h22.5q70 0 108 17.5t54 17.5q12 0 12 -6q0 -17 -23.5 -28t-54 -17.5t-61.5 -9.5t-45 -3
h-45l-44.5 -132.5l-29.5 -90.5q-2 -8 -7 -23.5l-11 -33l-11.5 -33.5t-7.5 -29q19 -2 28 -1t15 1q17 0 43.5 8.5t36.5 8.5q17 0 17 -15q0 -10 -11.5 -15t-27 -9t-34 -5t-32.5 -1q-61 0 -118.5 6t-96.5 6q-53 0 -74.5 -6t-38.5 -6q-8 0 -13 1t-5 11q0 16 36 22.5t75 6.5
q10 0 20 -1t19 -1h2z" />
    <glyph glyph-name="five" unicode="5" horiz-adv-x="915" 
d="M79 207q0 10 3 32.5t11.5 44t19.5 38t29 16.5q11 0 11 -12q0 -23 -11.5 -40.5t-11.5 -39.5q0 -49 19.5 -89t51.5 -69t76 -44t93 -15q76 0 137 43t104 108.5t67 143t24 145.5q0 104 -56.5 157.5t-160.5 53.5q-48 0 -104 -10.5t-97 -34.5q-6 -8 -14.5 -22.5t-19.5 -29
t-25.5 -24.5t-30.5 -10q-11 0 -12 9t-1 13q0 39 26 55.5t54 41.5l48.5 131.5l49 138.5l43 124l31.5 91q8 -6 24.5 -16.5t47.5 -21.5t77 -18t113 -7q70 0 114 8t74 17t49 17.5t38 8.5q10 0 10 -17q0 -16 -44 -41.5t-117.5 -49t-168 -41t-192.5 -17.5q-10 0 -23.5 3t-23.5 3
q-13 -23 -41.5 -97.5t-69.5 -201.5q139 72 297 72q129 0 202 -56.5t73 -195.5q0 -74 -48.5 -164t-127 -169t-179 -132t-205.5 -53q-98 0 -165.5 59t-67.5 164z" />
    <glyph glyph-name="six" unicode="6" 
d="M901 1073q-37 29 -66.5 36t-64.5 7q-92 0 -177 -58.5t-150.5 -139t-108.5 -166.5t-51 -142h10q31 43 58.5 76t58 55.5t67.5 34.5t84 12q119 0 182.5 -78.5t63.5 -230.5q0 -88 -30 -177t-85 -159.5t-133 -114.5t-174 -44q-84 0 -140.5 36.5t-91 93t-50 127t-15.5 138.5
q0 131 48 271.5t136 254t210 187t268 73.5q40 0 82 -15t75 -46zM715 549q0 41 -9.5 79t-30 67.5t-51 47t-75.5 17.5q-78 0 -137.5 -49t-100.5 -123t-62.5 -159t-21.5 -155q0 -59 6.5 -106t24.5 -81t51 -52.5t86 -18.5q58 0 104 35t81.5 88.5t61.5 118t42 122.5t23.5 104
t7.5 65z" />
    <glyph glyph-name="seven" unicode="7" horiz-adv-x="778" 
d="M915 1153q-4 -51 -43 -89t-86 -56l-168 -320h106q19 0 19 -22q0 -13 -4 -30.5t-13.5 -33.5t-21.5 -27.5t-29 -11.5h-121l-121.5 -243.5l-111.5 -227.5q-12 -24 -25.5 -58t-30 -64.5t-37 -51t-46.5 -20.5q-41 0 -47.5 7t-6.5 15q0 17 7.5 29l21.5 35l338 579h-123
q-20 0 -20 21q0 14 6 32.5t16 35t22.5 26.5t24.5 10h146l186 309q-12 -4 -23.5 -4h-21.5q-65 0 -115.5 9.5t-95.5 21.5t-91 21.5t-101 9.5q-31 0 -67 -11.5t-68.5 -32t-54 -50t-21.5 -66.5q0 -41 18.5 -85t48.5 -62q8 -7 21.5 -9l27 -4t22.5 -6t9 -14q0 -13 -6 -16t-16 -3
q-39 0 -68 19.5t-48.5 48.5t-28.5 64.5t-9 66.5q0 74 28.5 129t75 91t105.5 54.5t123 18.5q47 0 97 -13.5t99.5 -30t99.5 -29.5t97 -13q23 45 40 65.5t56 20.5q29 0 29 -35z" />
    <glyph glyph-name="eight" unicode="8" 
d="M73 252q0 108 79 190t228 160q-51 33 -85 78t-34 119q0 47 22.5 109.5t68 117.5t112 94t154.5 39q55 0 105 -10t90 -32.5t63.5 -61.5t23.5 -97q0 -53 -20.5 -99t-52 -85t-71.5 -71.5t-79 -59.5q66 -35 108 -80t42 -123q0 -47 -12.5 -87t-34.5 -79q-35 -61 -72 -114.5
t-83 -92t-104.5 -61t-134.5 -22.5q-59 0 -115.5 15t-100.5 48t-70.5 83t-26.5 122zM712 309q0 64 -29.5 105t-73.5 70.5t-98.5 52t-103.5 51.5q-150 -78 -227.5 -161t-77.5 -181q0 -56 24.5 -100t64.5 -75.5t89 -48t100 -16.5q62 0 122 23.5t106.5 63.5t75 95.5t28.5 120.5z
M370 897q2 -49 29.5 -85t67.5 -62.5t89 -48t97 -46.5q86 60 132 113t46 72q-45 22 -57.5 55t-3 63.5t34 53t48.5 22.5q-16 31 -44.5 50.5t-62.5 29.5t-70 13t-64 3q-99 0 -163.5 -55t-78.5 -178z" />
    <glyph glyph-name="nine" unicode="9" horiz-adv-x="860" 
d="M34 41q27 -12 55.5 -20.5t63.5 -8.5q92 0 176 59.5t149.5 142.5t107.5 170t52 142h-10q-14 -22 -41 -51t-61.5 -54.5t-76.5 -43t-89 -17.5q-60 0 -106 24t-76.5 64.5t-47 94t-16.5 114.5q0 88 29.5 177.5t85 160t133.5 114.5t174 44q84 0 141 -31.5t93 -83t52.5 -117
t16.5 -133.5q0 -133 -49 -275t-137.5 -260t-210 -193.5t-267.5 -75.5q-41 0 -71.5 6t-69.5 28v23zM206 588q0 -82 40 -137.5t130 -55.5q76 0 137.5 47t104.5 117t65.5 152t22.5 151q0 119 -38 188.5t-142 69.5q-86 0 -147.5 -56t-99.5 -138t-55.5 -174.5t-17.5 -163.5z" />
    <glyph glyph-name="colon" unicode=":" horiz-adv-x="301" 
d="M211 80q0 -35 -24.5 -58.5t-59.5 -23.5t-58.5 23.5t-23.5 58.5t23.5 60.5t58.5 25.5t59.5 -25.5t24.5 -60.5zM340 530q0 -34 -24.5 -57.5t-59.5 -23.5t-58.5 23.5t-23.5 57.5q0 35 23.5 60.5t58.5 25.5t59.5 -25.5t24.5 -60.5z" />
    <glyph glyph-name="semicolon" unicode=";" horiz-adv-x="301" 
d="M341 530q0 -34 -25 -57.5t-59 -23.5q-35 0 -58.5 23.5t-23.5 57.5q0 35 23.5 60.5t58.5 25.5q34 0 59 -25.5t25 -60.5zM-65 -217l75.5 186.5t53.5 121.5t40 65.5t40 19.5q55 0 55 -55q0 -27 -25.5 -70t-63.5 -92t-81 -98l-78 -86z" />
    <glyph glyph-name="less" unicode="&#x3c;" horiz-adv-x="348" 
d="M352 700q0 -10 -19 -34l-159 -205l63 -293q2 -10 3 -17.5t1 -13.5q0 -24 -27 -24q-22 0 -28 13t-10 30l-58 260q-10 35 -10 47q0 6 12.5 23.5l40.5 56.5l119 155q12 17 23.5 23t21.5 6q8 0 17.5 -7t9.5 -20z" />
    <glyph glyph-name="equal" unicode="=" horiz-adv-x="712" 
d="M678 330q0 -21 -12.5 -36t-45.5 -15h-477q-49 0 -49 30q0 19 13.5 33t43.5 14h478q49 0 49 -26zM719 535q0 -21 -12.5 -36.5t-45.5 -15.5h-477q-49 0 -49 31q0 18 13.5 32.5t43.5 14.5h477q50 0 50 -26z" />
    <glyph glyph-name="greater" unicode="&#x3e;" horiz-adv-x="303" 
d="M272 375q-2 -6 -13.5 -23.5t-40.5 -56.5l-118 -156q-21 -26 -43 -26q-11 0 -20 6t-9 18q0 8 20 37l160 203l-63 295q-2 10 -4 16t-2 12q0 27 28 27q21 0 28 -14.5t11 -30.5l58 -260q4 -14 6 -27.5t2 -19.5z" />
    <glyph glyph-name="question" unicode="?" horiz-adv-x="829" 
d="M247 1122q0 45 26 94.5t72 90.5t108.5 68.5t135.5 27.5q66 0 121.5 -24.5t94 -65.5t60 -96.5t21.5 -118.5q0 -105 -49 -187t-121.5 -148.5t-157.5 -121.5l-158 -106.5t-122 -101.5t-49 -107q0 -23 6 -40.5t6 -27.5t-6 -10q-10 0 -19.5 11t-15.5 26.5t-9 31t-3 25.5
q0 74 48 148.5t121 148.5t157 145.5l156.5 138t120.5 127t48 111.5q0 58 -23.5 98.5t-61.5 67.5t-85 39t-96 12q-96 0 -168 -56t-117 -136q15 12 33 12q31 0 44 -21.5t13 -50.5q0 -34 -17 -64t-52 -30q-37 0 -49.5 33t-12.5 57zM268 78q0 -35 -24.5 -58.5t-59.5 -23.5
t-58.5 23.5t-23.5 58.5t23.5 60.5t58.5 25.5t59.5 -25.5t24.5 -60.5z" />
    <glyph glyph-name="at" unicode="@" horiz-adv-x="1708" 
d="M682 -184q24 0 45.5 -4.5t21.5 -20.5q0 -10 -14 -12t-51 -2q-146 0 -249 31.5t-170 88t-97.5 132t-30.5 166.5q0 165 50 317t134 281t197 235.5t237.5 180t253.5 114.5t250 41q107 0 199 -34t161.5 -107.5t109.5 -188t40 -274.5q0 -195 -62.5 -339.5t-156.5 -240.5
t-204.5 -144t-204.5 -48q-43 0 -72 14t-46.5 34.5t-24.5 44t-7 42.5q0 27 5 51.5t18.5 60t37 92t58.5 148.5q-37 -74 -84 -159t-97.5 -158.5t-100.5 -121.5t-95 -48q-90 0 -125 46t-35 138q0 37 13.5 101.5t43 140t73.5 152.5t105.5 139.5t140.5 102.5t177 40h31.5t40 -1
t37 -2t26.5 -1q23 2 38.5 3t27.5 1q29 0 38 -6t9 -19q0 -16 -19.5 -74.5l-47 -137.5l-61.5 -169l-61.5 -168.5l-47 -136t-19.5 -74.5q0 -28 15.5 -34t25.5 -6q39 0 95.5 21.5t116.5 62t120.5 102t107.5 139.5t77 174t30 209q0 148 -36 253.5t-98.5 173t-147.5 99t-181 31.5
q-111 0 -228.5 -38t-232.5 -109.5t-217 -173t-180 -228.5t-124 -275.5t-46 -311.5q0 -74 25.5 -135.5t82 -105.5t145.5 -69.5t214 -25.5zM745 18q33 0 81 55.5t101.5 139.5t104.5 182.5l92 184.5t66.5 145t25.5 68q0 22 -27.5 27t-50.5 5q-53 0 -107 -46t-103.5 -117.5
t-93.5 -157.5t-75.5 -168t-50 -148.5t-18.5 -97.5q0 -33 12.5 -52.5t42.5 -19.5z" />
    <glyph glyph-name="A" unicode="A" horiz-adv-x="2209" 
d="M2476 1071q0 -33 -20.5 -65.5t-53.5 -58t-72 -42t-78 -16.5h-96l-138.5 -330l-123.5 -304t-90 -243.5t-35 -148.5q0 -35 21.5 -72t64.5 -37q37 0 78 28t85 76t89 112.5t90 138.5q6 14 18 14q15 0 15 -21q0 -8 -16.5 -38.5t-44 -73.5t-64.5 -91.5t-77 -89t-81 -67.5
t-76 -27q-55 0 -96 32t-41 118q0 63 30 174t78 248t109.5 292.5l124.5 309.5q-76 0 -150.5 1t-146.5 1q-108 -264 -229 -446.5t-253 -296t-274.5 -165t-291.5 -51.5q-156 0 -280 52.5t-210 141.5t-132 209t-46 253q0 162 37 285.5t98.5 214t139 151.5t158.5 98t159 52.5
t139 15.5q70 0 143.5 -19.5t137 -59.5t108.5 -103.5t58 -151.5q28 4 56 6t54 2q139 0 241.5 -1t178.5 -3l147 355q39 92 85.5 174t97.5 143t105.5 96t109.5 35q24 0 47.5 -6t44 -22.5t33 -43t12.5 -69.5q0 -39 -17.5 -106.5t-48 -157t-71.5 -193.5l-88 -217q53 0 119.5 1
t128.5 7zM571 578q0 104 59.5 188t151.5 145.5t204.5 100.5t221.5 55q-29 133 -131.5 215t-265.5 82q-168 0 -297 -66.5t-218.5 -176t-135.5 -251t-46 -288.5q0 -150 51.5 -264.5t139.5 -191.5t206.5 -116t253.5 -39q162 0 292 65.5t239.5 186.5t205 291t189.5 379
q-131 2 -232.5 3t-150.5 1h-34.5t-36.5 -2q-19 -125 -70 -220t-118.5 -158.5t-142.5 -95.5t-141 -32q-81 0 -137.5 51.5t-56.5 137.5zM1851 1073q55 -2 97 -4t77 -3t64.5 -2t60.5 -1l99 238.5l84 204.5t57.5 153.5t21.5 87.5q0 51 -28.5 70.5t-73.5 19.5t-90.5 -39
t-88.5 -102.5t-82.5 -144.5t-75.5 -166t-67 -166.5zM765 428q80 0 153 43t132.5 110.5t101 150.5t58.5 163q-94 -4 -199.5 -20.5t-194.5 -52.5t-147.5 -94t-58.5 -146q0 -64 41 -109t114 -45z" />
    <glyph glyph-name="B" unicode="B" horiz-adv-x="2025" 
d="M1624 1714q59 0 127 -10t125 -39t95 -79t38 -130q0 -92 -44 -170t-108.5 -141.5t-141.5 -113.5l-141.5 -90l-108.5 -68.5t-44 -49.5q0 -26 39 -26q15 0 29 9t38.5 20.5t63.5 20.5t105 9q69 0 127.5 -18.5t101.5 -55.5t66.5 -92t23.5 -131q0 -94 -50 -194.5t-135 -196.5
t-197.5 -183t-235.5 -151.5t-249 -102.5t-241 -38q-90 0 -159.5 20.5t-121 57t-82 85t-44.5 103.5q-17 -4 -34.5 -6t-33.5 -2q-92 0 -158.5 33.5t-107.5 92t-60.5 139.5t-19.5 173q0 143 45 289.5t129 284t204 261.5t268.5 222t323.5 164.5t369 91.5l11 37q6 22 23.5 32.5
t35.5 10.5q16 0 28.5 -8.5t12.5 -24.5q0 -4 -10 -39q24 2 48.5 3t49.5 1zM1010 569q69 138 131.5 287.5t113 290.5t89 266t63.5 215q-182 -22 -347 -84.5t-307.5 -156t-258 -212t-197.5 -254t-127 -281.5t-45 -292q0 -72 16.5 -136.5t53 -113.5t95 -78.5t142.5 -29.5
q16 0 29.5 2t30.5 6q-3 14 -4 29.5t-1 31.5q0 91 35 182t99.5 164.5t155.5 119.5t204 46h13t16 -2zM1059 522q-55 -100 -115.5 -190t-125 -163t-134.5 -124t-141 -74q28 -102 116.5 -170.5t237.5 -68.5q107 0 215.5 43t207.5 113.5t187 161.5t152.5 189.5t101.5 194.5
t37 176q0 105 -46 141.5t-144 36.5q-39 0 -63.5 -7t-41 -14t-31 -14.5t-32.5 -7.5q-45 0 -57.5 21.5t-12.5 38.5q0 29 32 61.5t78 74.5l101 91t101 111.5t78 136.5t32 164q0 110 -57.5 152t-155.5 42q-18 0 -36.5 -1t-37.5 -1q-22 -80 -62 -202.5t-94.5 -268t-122 -302
t-147.5 -304.5q47 -10 92 -29.5t81 -50t60.5 -71.5t28.5 -93q0 -10 -2 -15t-4 -9q-4 -4 -6 -4q-18 0 -27.5 32.5t-31 73.5t-69.5 79t-142 50zM535 10q122 47 237 187.5t215 328.5q-106 -2 -190 -42t-143.5 -104.5t-91.5 -146t-32 -167.5v-28t5 -28z" />
    <glyph glyph-name="C" unicode="C" horiz-adv-x="1796" 
d="M1810 864q-4 2 -13 10q-92 -86 -207.5 -160.5t-246.5 -130t-269.5 -86t-273.5 -30.5q-59 0 -121 6q2 -106 26.5 -196.5t81 -156t146.5 -102t223 -36.5q150 0 246 45t155.5 100t91.5 100t52 45q10 0 12 -6t2 -10q0 -10 -25.5 -46t-70.5 -83t-108.5 -98.5t-139 -94.5
t-160.5 -71.5t-173 -28.5q-117 0 -215.5 42t-169 119t-109.5 184.5t-39 238.5v40.5t4 43.5q-84 20 -162.5 55t-139 87t-97.5 124t-37 168q0 117 53 204t138 143t190.5 85t212.5 29q135 0 280 -35q154 160 334.5 257t360.5 97q190 0 294.5 -103.5t104.5 -289.5
q0 -104 -56.5 -211.5t-154.5 -206.5l68 -61q4 -4 4 -8q0 -21 -21 -21q-22 0 -37.5 15.5zM968 1319q-131 -158 -208 -368t-81 -437q70 -6 142 -6q110 0 239 28.5t256 80t245 124t204 162.5q-166 141 -370 254t-427 162zM513 537q15 102 49.5 206.5t87 207t120 198.5
t145.5 180q-119 23 -230 23q-100 0 -201.5 -22.5t-184.5 -72t-135 -127t-52 -186.5q0 -92 31.5 -160.5t87 -118t128 -80t154.5 -48.5zM995 1352q110 -29 218.5 -73t211 -98.5t195.5 -117t173 -127.5q66 74 103 156t37 174q0 84 -30 149.5t-83 111.5t-125 69.5t-156 23.5
q-157 0 -295.5 -72.5t-248.5 -195.5z" />
    <glyph glyph-name="D" unicode="D" horiz-adv-x="2080" 
d="M164 537q10 43 22 82.5t27 80.5q-54 66 -85.5 147t-31.5 181q0 174 84 296t213 198.5t283.5 112.5t298.5 36q208 0 404 -59.5t346.5 -175t241.5 -287.5t91 -395q0 -185 -73.5 -349.5t-196.5 -288.5t-285 -197t-338 -73q-287 0 -495.5 52.5t-380.5 146.5q-9 4 -16 12.5
t-7 16.5q0 18 21.5 33.5t29.5 23.5q76 68 145.5 155t135.5 185q-103 29 -194 76t-161 119q-22 -74 -33.5 -127.5t-21.5 -53.5q-18 0 -21 10.5t-3 24.5v17zM231 745q47 113 114.5 207.5t161 162t216.5 107.5t278 44l10 26q7 13 11 28t12 28.5t21.5 22.5t37.5 9q11 0 21 -4
t10 -16q0 -2 -1 -4t-1 -4q-12 -43 -31 -86q74 -6 153 -27.5t145.5 -62.5t108.5 -103.5t42 -152.5q0 -132 -63.5 -224t-161 -150.5t-213 -85t-220.5 -26.5q-53 0 -106 5t-107 16q-59 -93 -111 -163.5t-91 -109.5q94 -59 206.5 -93t218 -51.5t188.5 -21.5t118 -4
q203 0 356.5 58.5t257 160t155.5 236.5t52 291q0 125 -46 229.5t-125 187t-183.5 144t-222 101.5t-242.5 60.5t-242 20.5q-74 0 -163 -8t-180 -28.5t-176 -55.5t-151.5 -87t-106.5 -125t-40 -169q0 -76 21.5 -147.5t68.5 -135.5zM1499 913q0 82 -38 138.5t-99.5 93.5
t-137 55.5t-149.5 22.5q-35 -86 -79 -181.5t-94 -190.5t-103.5 -186.5l-104.5 -172.5q82 -13 176 -13q125 0 238.5 29t200.5 84t138.5 136t51.5 185zM307 819q-16 -26 -27.5 -53t-21.5 -55q59 -72 149 -124t213 -81q60 92 113 189.5t99 190.5l85 179t68 160
q-141 -4 -250 -42t-190.5 -94.5t-140 -127t-97.5 -142.5z" />
    <glyph glyph-name="E" unicode="E" horiz-adv-x="1433" 
d="M679 -160q-98 0 -204.5 25.5t-195.5 89t-146.5 170t-57.5 268.5q0 119 68.5 230.5t190.5 198.5t290 141.5t369 62.5q-48 18 -92 45t-79.5 63.5t-57 85t-21.5 109.5q0 96 35.5 168t96 120t141.5 71.5t171 23.5q53 0 104.5 -11t91.5 -37t64.5 -68t24.5 -101q0 -47 -31 -86
t-82 -39q-74 0 -74 74q0 55 30 94t77 66q-41 38 -85 54.5t-89 16.5q-66 0 -129.5 -31.5t-112.5 -86t-78.5 -125t-29.5 -148.5q0 -47 15 -89t49 -76t88 -56.5t132 -30.5q33 -4 66 -7t60.5 -8t45 -10.5t17.5 -13.5q0 -10 -19.5 -35.5t-50.5 -52t-68.5 -47t-72.5 -20.5
q-45 0 -92.5 1t-94.5 1q-80 0 -172 -10.5t-185 -33t-179 -61.5t-151.5 -94t-105.5 -131t-40 -174q0 -117 50 -200t131 -134t181.5 -74.5t200.5 -23.5q176 0 304 40t212 102.5t125 140t41 153.5q0 80 -35 138.5t-90 96t-127 56t-145 18.5q-72 0 -140.5 -16.5t-122 -47
t-86 -76.5t-32.5 -103q0 -48 19.5 -80.5t51 -53t71.5 -30t81 -9.5q72 0 145.5 34t133.5 69q8 4 12 4q6 0 8 -7t2 -14q0 -12 -31.5 -31.5t-79 -38t-102.5 -31.5t-100 -13t-88 12t-77 37t-54.5 62.5t-20.5 89.5q0 69 34 121.5t90 88t128 53t149 17.5q82 0 162 -20.5
t143.5 -61.5t102.5 -101.5t39 -142.5q0 -90 -47 -183t-139.5 -168t-225.5 -122t-305 -47z" />
    <glyph glyph-name="F" unicode="F" horiz-adv-x="1970" 
d="M2143 1434q-26 0 -41.5 11t-22.5 26.5t-8 32t-1 26.5q0 51 31.5 95t84.5 93q-71 0 -123.5 -62.5t-94.5 -168t-78.5 -245.5l-79.5 -294h61q49 0 125 5t172 28q0 -33 -22.5 -68.5t-57.5 -66.5t-77 -51.5t-81 -20.5h-172q-38 -127 -86.5 -253t-111 -240.5t-141 -212
t-180 -170t-227.5 -113.5t-282 -41q-155 0 -277 55.5t-206 148.5t-128 216t-44 256q0 162 35 285.5t92 216t130 156t150.5 101.5t152.5 54t136 16q76 0 147.5 -21.5t132 -60.5t104.5 -95t67 -126q67 12 129 12q137 0 211 -1t125 -5l96 306.5t105.5 257t132 177t172.5 66.5
q45 0 64.5 -40t19.5 -89q0 -31 -7.5 -64.5t-24 -63t-42 -49t-60.5 -19.5zM765 -217q189 0 326 85t237.5 224t172 317.5t130.5 364.5q-116 -2 -187 -2h-136q-16 0 -34.5 -1t-37.5 -1q-10 -139 -56 -245.5t-112.5 -177.5t-144.5 -106.5t-148 -35.5q-41 0 -78.5 13t-66.5 41
t-46 70t-17 101q0 100 55 184t142 148.5t194.5 108.5t214.5 67q-41 117 -139.5 193.5t-245.5 76.5q-168 0 -292 -68.5t-206 -180t-123 -255t-41 -290.5q0 -150 49.5 -267.5t135.5 -198.5t202.5 -123t251.5 -42zM775 244q86 0 161 51t130.5 129t89 170t37.5 174
q-92 -8 -194.5 -29.5t-188.5 -61.5t-141 -101.5t-55 -149.5q0 -31 11 -63.5t32.5 -59.5t51.5 -43t66 -16z" />
    <glyph glyph-name="G" unicode="G" horiz-adv-x="1810" 
d="M77 1124q0 99 48 182t126 142t176.5 92t200.5 33q92 0 175 -16.5t159 -43.5q149 123 322 198t362 75q61 0 122.5 -18.5t110.5 -53.5t79 -89t30 -124q0 -115 -49.5 -221t-136.5 -201.5t-205.5 -174.5t-255 -135t-286 -88t-298.5 -32q-45 0 -86 3t-80 7q-63 -167 -63 -294
q0 -66 14 -128.5t47 -110.5t85 -78t128 -30q141 0 268 68t236.5 170t201 223t162.5 228q19 28 40.5 46.5t70.5 18.5h59q37 0 37 -22q-2 -43 -26.5 -118t-67.5 -169t-100.5 -199.5t-125 -210t-143 -200t-155.5 -168t-160 -115.5t-156 -43q-57 0 -84.5 32.5t-27.5 80.5
q0 36 11 71t30.5 62.5t44 44t51.5 16.5q39 0 67.5 -25.5t28.5 -64.5q0 -53 -22.5 -90t-57.5 -76q0 -6 4 -6h7q65 0 138.5 67.5t146.5 171t140.5 227.5t118.5 239.5t82 205.5t31 125q-66 -96 -158 -204.5t-202.5 -203t-233.5 -155.5t-250 -61q-108 0 -187 42t-132.5 111.5
t-79 161.5t-25.5 193q0 102 33 213q-94 36 -158.5 88.5t-104.5 110t-58.5 115.5t-18.5 105zM1081 1425q-74 -77 -143.5 -167.5t-131 -183.5t-113 -189.5t-88.5 -186.5q47 -8 96.5 -11t106.5 -3q131 0 267.5 34t263.5 93t238.5 138t193.5 170t130 188.5t48 193.5
q0 64 -27.5 110t-71.5 76.5t-99.5 45t-110.5 14.5q-127 0 -264.5 -82t-268.5 -215q76 -41 137.5 -87t103.5 -88t64.5 -76t22.5 -50q0 -12 -15 -12q-4 0 -8 4q-67 94 -151 164.5t-180 119.5zM427 743q31 95 79 193t112.5 194.5t143.5 187.5t169 169q-135 43 -279 43
q-94 0 -189 -23.5t-172 -73t-126 -126t-49 -183.5q0 -37 13.5 -87t48 -103t95 -103.5t154.5 -87.5z" />
    <glyph glyph-name="H" unicode="H" horiz-adv-x="2248" 
d="M1761 1395q-33 0 -47.5 26.5t-14.5 63.5q0 65 18.5 114.5t47.5 83t63.5 50t69.5 16.5q53 0 92 -40t39 -120q0 -69 -33.5 -219.5t-105.5 -337.5q43 -2 87 -2h87h66.5t62.5 2l110.5 276t100.5 228t85 155.5t64 57.5q35 0 44.5 -17.5t9.5 -52.5q0 -57 -7.5 -134
t-20.5 -156.5t-34.5 -154.5t-52.5 -128q-53 -94 -127 -148.5t-168 -83.5l-137.5 -369.5l-119.5 -340t-84 -261t-32 -130.5q0 -64 16.5 -89.5t63.5 -29.5q62 0 115 39t96 96t76 120.5t55 110.5q2 7 8.5 10t12.5 3q8 0 15 -4t7 -15q0 -8 -14 -40.5t-41 -76.5t-62.5 -94.5
t-78.5 -91.5t-91.5 -68.5t-97.5 -27.5q-78 0 -113.5 52t-35.5 124q0 59 31.5 170t84 253l119 307l133.5 335q-71 -14 -150 -19.5t-167 -5.5q-78 -167 -182.5 -330t-238.5 -292t-298 -208t-358 -79q-131 0 -252 43t-214 123t-148.5 190.5t-55.5 245.5q0 158 66.5 306.5
t182.5 264t268.5 185.5t324.5 70q82 0 154.5 -21.5t131 -63.5t98.5 -101.5t58 -135.5q131 19 248 19q41 0 108.5 -3.5l145.5 -7.5q39 97 67.5 184t47 154.5t27.5 111.5t9 56q0 51 -10 86t-24.5 54.5t-33 27.5t-32.5 8q-16 0 -26.5 -6t-10.5 -14q37 -4 47.5 -31t10.5 -55
q0 -29 -12.5 -66t-34 -70.5t-49 -57t-60.5 -23.5zM729 -37q184 0 338.5 77t282.5 199.5t228.5 278.5t176.5 313q-92 0 -192.5 2.5t-211.5 6.5q-16 -103 -71.5 -204t-137.5 -181t-184 -129.5t-213 -49.5q-47 0 -88 17.5t-71.5 47.5t-49 71t-18.5 88q0 114 70.5 202.5t183 153
t254 106.5t282.5 62q-18 92 -71.5 148.5t-118 88t-132 43t-114.5 11.5q-147 0 -285.5 -63.5t-245 -171t-171 -247t-64.5 -288.5q0 -137 48 -244.5t132 -182.5t198 -115t245 -40zM764 311q73 0 160 37t167 106.5t139.5 167t77.5 218.5q-35 2 -69.5 2h-69.5
q-78 0 -182.5 -13.5t-199.5 -51.5t-161.5 -105.5t-66.5 -177.5q0 -91 61.5 -137t143.5 -46zM2549 1698q-10 0 -36.5 -52.5t-65.5 -142.5l-88 -211l-100 -256q61 8 107 23.5t71 46.5q35 45 59.5 118.5t39.5 155.5t22.5 161t7.5 134q0 8 -2 15.5t-15 7.5z" />
    <glyph glyph-name="I" unicode="I" horiz-adv-x="1824" 
d="M1642 1300q-33 0 -59.5 16.5t-45 43t-28 60.5t-9.5 71t10.5 70.5t34 61.5t58.5 44t84 16q76 0 131 -48t89 -118.5t50.5 -148.5t16.5 -137q0 -170 -42 -345t-121 -339t-190.5 -308.5t-252 -252t-306.5 -170t-350 -62.5q-145 0 -263 49.5t-202 137.5t-129 207.5t-45 261.5
q0 151 58.5 302.5t163 273.5t247.5 198t313 76q92 0 174 -19.5t146.5 -65t106.5 -116t53 -174.5q81 -4 117 -24.5t36 -39.5q0 -4 -4 -10t-8 -6q-8 0 -17.5 5t-23.5 11t-36.5 11.5t-59.5 7.5v-21q0 -110 -43 -224t-115 -206t-166 -151.5t-199 -59.5q-41 0 -77.5 12.5
t-65.5 37t-46 62.5t-17 87q0 119 65.5 213t166.5 158.5t223 99.5t233 37q0 12 -2 24.5l-4 24.5q-7 57 -42.5 108.5t-91 89t-128 60t-152.5 22.5q-150 0 -288 -65.5t-244.5 -174t-170 -249.5t-63.5 -293q0 -129 37 -243.5t108.5 -200.5t175 -137.5t238.5 -51.5
q152 0 283 55.5t241.5 147.5t201.5 213t161.5 254t123 268t87.5 256t51 219.5t16 155.5q0 43 -6 90t-24.5 87t-51 65.5t-84.5 25.5q-38 0 -65 -18.5t-31 -67.5q12 0 22.5 3t22.5 3q27 0 47.5 -14t34.5 -36.5t20.5 -50.5t6.5 -52q0 -35 -21.5 -69t-64.5 -34zM827 221
q80 0 163.5 55.5t152.5 143.5t113 198.5t44 223.5q-117 -2 -232.5 -37t-209 -97.5t-152 -150.5t-58.5 -199q0 -34 16.5 -60t43.5 -42t57.5 -25.5t61.5 -9.5z" />
    <glyph glyph-name="J" unicode="J" horiz-adv-x="1802" 
d="M1945 821q0 -28 -33 -28h-127q-30 -156 -83.5 -312.5t-127 -301t-167 -270.5t-207 -218t-245.5 -145.5t-282 -53.5q-145 0 -257.5 42t-190.5 120t-119 190.5t-41 253.5q0 152 53 293t147.5 250t224.5 173.5t286 64.5q63 0 133.5 -14.5t129 -56.5t96.5 -120t38 -205
q53 -16 87 -42.5t34 -41.5q0 -4 -4 -10t-8 -6q-13 0 -39.5 19.5t-69.5 35.5q-4 -53 -37 -139t-90 -169t-137 -143.5t-180 -60.5q-80 0 -137.5 38t-57.5 138q0 74 42 145.5t114.5 128t171 90.5t209.5 34q32 0 63 -6q-4 102 -34.5 167.5t-79 104.5t-106.5 53.5t-116 14.5
q-135 0 -259 -54.5t-219 -151t-151.5 -226.5t-56.5 -281q0 -129 33 -235.5t99.5 -184.5t165.5 -121t235 -43q137 0 252.5 54.5t211 147.5t171 217t134 263t101.5 286.5t72 287.5h-179q-34 0 -34 28q0 29 32 29h191q35 178 50 320.5t15 220.5q0 43 -7 96t-25.5 99t-51 78
t-83.5 32q-19 0 -46.5 -7.5t-52 -28t-42 -57t-17.5 -96.5q12 -22 16 -36.5t4 -24.5q0 -16 -8 -22.5t-16 -6.5q-13 0 -20 12.5t-10 29t-4 34.5t-1 29q0 100 54 160.5t159 60.5q49 0 92 -28.5t78 -75t63.5 -104.5t47 -117.5t28.5 -115t10 -94.5q0 -166 -34 -358h114
q35 0 35 -29zM739 -31q76 0 144.5 54.5t121.5 130t87 157.5t40 140q-29 6 -59 6q-117 0 -209 -37t-156.5 -92.5t-98.5 -118t-34 -113.5q0 -35 14.5 -58.5t38 -38.5t52 -22.5t59.5 -7.5z" />
    <glyph glyph-name="K" unicode="K" horiz-adv-x="2557" 
d="M1647 1343q-33 0 -59.5 16.5t-45 43.5t-28 60.5t-9.5 70.5t10.5 70.5t34 61.5t58 44t84.5 16q75 0 130.5 -48t89.5 -118.5t50 -148.5t16 -137q0 -154 -33.5 -310.5t-97.5 -306.5q70 54 150 134.5l166 174l174 192.5l174 191.5t166 169t147 123.5l43.5 30.5t48.5 15.5
q35 0 43 -27t8 -53q0 -35 -11 -72t-40 -59q-75 -21 -156 -71t-166 -117.5t-170 -148.5l-168 -161l-161 -155.5t-147 -133.5q51 -2 82.5 -11t52 -23.5t31 -32t18.5 -33.5l248 -539q20 -45 46.5 -76.5t65.5 -31.5q27 0 38.5 14t37.5 14q8 0 12.5 -1t4.5 -11q0 -25 -14.5 -45
t-37 -35.5t-48 -24t-48.5 -8.5q-57 0 -108.5 38t-96.5 99.5t-85 138.5t-72.5 152.5l-60.5 143l-46 112.5l-13 32.5t-16.5 31.5t-22.5 23.5t-34 9.5q-31 0 -51 -6q-78 -168 -188.5 -315.5t-252 -258t-309.5 -174t-356 -63.5q-145 0 -263 50t-201 137t-128 208t-45 262
q0 151 58.5 303t163 273.5t247.5 197.5t313 76q92 0 174 -19.5t146.5 -64.5t106.5 -115.5t53 -175.5q81 -4 117 -24.5t36 -38.5q0 -5 -4 -11t-8 -6q-8 0 -17.5 5t-23.5 11.5t-36.5 11.5t-59.5 7v-20q0 -111 -43 -224.5t-115 -206t-166 -151.5t-199 -59q-41 0 -77.5 12
t-65.5 36.5t-46 62.5t-17 87q0 119 65.5 213t166.5 158.5t223 99.5t233 37q0 12 -2 24.5l-4 24.5q-7 58 -42.5 109t-91 89t-128 60.5t-152.5 22.5q-150 0 -288 -65.5t-244.5 -174t-170 -250t-63.5 -293.5q0 -129 37 -243.5t107.5 -201.5t174 -138t238.5 -51q152 0 283 54
t240.5 145t199.5 212t160.5 252t122 265.5t85 255t50 218t16.5 154.5q0 43 -6 90t-24.5 87t-51.5 65.5t-84 25.5q-39 0 -65.5 -18.5t-30.5 -67.5q12 0 22.5 3t22.5 3q27 0 47.5 -14t34.5 -36.5t20.5 -50.5t6.5 -52q0 -35 -21.5 -69t-64.5 -34zM842 279q80 0 163.5 55
t152.5 143t113 198.5t44 223.5q-117 -2 -232.5 -33.5t-209 -92t-152 -147.5t-58.5 -198q0 -35 16.5 -61.5t43.5 -47t57.5 -30.5t61.5 -10z" />
    <glyph glyph-name="L" unicode="L" horiz-adv-x="1771" 
d="M1632 850q-2 8 -3 16t-5 17q-80 -90 -185.5 -166t-224.5 -130.5t-246 -85t-250 -30.5h-43.5t-42.5 2q-82 -111 -176 -194.5t-211 -124.5q90 -39 205 -65t239 -41t248.5 -22.5t237.5 -7.5q135 0 228.5 16.5t154.5 42t96 55.5t54.5 55.5t27.5 42t17 16.5q8 0 12 -7.5
t4 -15.5q0 -49 -51 -113.5t-148.5 -123t-237 -99.5t-315.5 -41q-110 0 -224 15.5t-220.5 41t-199.5 60.5t-161.5 73t-108.5 78t-40 74q0 11 5 23t18 12q26 0 44.5 -9t41.5 -19q61 0 111 22.5t93 62t80 93t68 116.5q-86 17 -157 51.5t-122 87t-79.5 125t-28.5 167.5
q0 135 61.5 237.5t159.5 173t220 106.5t243 36q57 0 112.5 -7.5t108.5 -19.5q104 88 223 148.5t230 60.5q147 0 236 -89t89 -237q0 -106 -42 -207.5t-116 -193.5q11 -35 16 -69t5 -68q0 -27 -16 -27q-15 0 -21 9t-8 23.5t-3 29t-3 24.5zM770 520q112 0 230 32t228.5 88
t207.5 133t171 167q-51 152 -171 260.5t-271 167.5q-64 -86 -123 -190.5l-119.5 -216l-123 -224t-132.5 -215.5q23 -2 48.5 -2h54.5zM182 948q0 -49 7 -111.5t43 -121t108.5 -106.5t205.5 -72q37 79 68 166.5l60.5 171l59 159.5t64.5 135q35 60 88.5 123.5t118.5 122.5
q-88 17 -166 17q-117 0 -233.5 -32t-210.5 -93.5t-153.5 -151.5t-59.5 -207zM1540 1604q-105 0 -189 -56.5t-160 -148.5q160 -66 279 -175.5t172 -240.5q61 86 96 176t37 182q0 64 -21.5 113t-55 82t-75.5 50.5t-83 17.5z" />
    <glyph glyph-name="M" unicode="M" horiz-adv-x="2398" 
d="M1520 41q-7 -21 -33.5 -31t-52.5 -10q-23 0 -38.5 6t-15.5 23q0 14 27 83.5l71 175l99 236.5l111 269h-148q-35 0 -35 28q0 29 33 29h174l91 228.5t78 206.5t53.5 166t19.5 108q0 47 -21.5 80.5t-72.5 33.5q-113 0 -223.5 -135t-223.5 -393q-8 -109 -48 -242t-109.5 -270
t-169 -268.5t-224.5 -232.5t-275.5 -162.5t-322.5 -61.5q-35 0 -72.5 11t-70.5 31.5t-53.5 51.5t-20.5 70q0 32 14.5 61t37 49.5t50 31.5t52.5 11q32 0 55 -20.5t23 -67.5t-29 -97t-66 -73q4 -10 30 -16t50 -6q166 0 301 75.5t241.5 196.5t185.5 269.5t130.5 293t76 269.5
t24.5 198q0 88 -22.5 163t-64.5 130t-102.5 87t-136.5 32t-174 -37t-191 -111q113 -12 194 -58t133 -115.5t77 -157.5t25 -183q0 -77 -26 -158t-74 -146.5t-117.5 -106.5t-157.5 -41q-92 0 -160 42t-113 118q-98 4 -165.5 30.5t-109.5 69.5t-61.5 98t-19.5 117
q0 86 30.5 174t94 159.5t158 117t221.5 45.5h24q88 86 197 140t231 54q123 0 215.5 -36t153.5 -100.5t93 -152.5t38 -190q68 139 125 233.5t112.5 151.5t111 81.5t120.5 24.5q45 0 76 -19.5t51.5 -50t29.5 -67.5t9 -74q0 -26 -9 -70t-23.5 -93.5l-30 -100.5l-29.5 -94
q82 154 148.5 249t124 148.5t108.5 72.5t100 19q45 0 79 -17t56.5 -46t33.5 -64.5t11 -72.5q0 -84 -42 -219.5t-106.5 -295l-138 -327.5l-138 -316.5t-106.5 -264t-42 -169.5q0 -47 8 -74.5t59 -27.5q62 0 113 46t90 102.5t64.5 102.5t36.5 46q12 0 14 -5t2 -17
q0 -21 -30.5 -73t-78 -107.5t-103.5 -97.5t-108 -42q-77 0 -123 44t-46 173q0 64 23.5 159t63 207.5t89 237.5l101.5 249l102.5 242l90 215t63.5 170t24 107q0 43 -27 67.5t-78 24.5q-57 0 -122.5 -56t-131 -148t-129 -209t-115.5 -236l-45 -100h158q35 0 35 -29
q0 -28 -33 -28h-184l-92 -212.5l-85 -203.5l-74 -184.5t-56 -151.5zM924 1014q0 94 -27 176t-80 143.5t-135 99t-193 42.5q-86 -84 -144 -202t-58 -276q0 -55 12 -124.5t47 -131.5q60 0 106 23.5t81.5 57.5t61.5 73t43 72.5l28.5 56.5t17.5 23q10 0 16.5 -1.5t6.5 -11.5
q0 -18 -25 -70.5t-69 -107.5t-106.5 -100t-137.5 -51q37 -54 94 -87.5t141 -33.5q80 0 139.5 44t99.5 108.5t60.5 140t20.5 137.5zM-2 1018q0 -51 15.5 -98.5t50 -84t91 -61t138.5 -31.5q-27 58 -39 128.5t-12 152.5q0 104 54 225t150 226q-112 -5 -196 -47t-140.5 -108.5
t-84 -146t-27.5 -155.5z" />
    <glyph glyph-name="N" unicode="N" horiz-adv-x="1726" 
d="M822 1677q-41 0 -101.5 -16t-127.5 -51q51 -58 87 -127.5t59.5 -138t33.5 -131t10 -107.5q0 -78 -22.5 -160t-66.5 -148.5t-110.5 -109.5t-154.5 -43q-55 0 -107.5 22.5t-93.5 70.5t-65.5 122t-24.5 176q0 33 6 70q-129 10 -198.5 93t-69.5 237q0 80 34 140t88 102
t122.5 63.5t138.5 21.5q94 0 168 -32.5t131 -85.5q66 34 135.5 55.5t140.5 21.5q95 0 184 -26.5t159.5 -78.5t117.5 -129t58 -177q94 184 188 257.5t201 73.5q45 0 75.5 -19t51 -50t30 -68t9.5 -73q0 -84 -38 -216.5t-95.5 -287l-124 -318.5l-124 -311t-95 -266t-37.5 -183
q0 -47 22.5 -74.5t73.5 -27.5q65 0 113.5 46t82 102.5t54 102.5t30.5 46q13 0 15 -5t2 -17q0 -21 -22.5 -73t-62.5 -107.5t-94.5 -97.5t-117.5 -42q-78 0 -121 52t-43 124q0 39 21.5 117t56.5 179l79 220l91 243l91 246t79 228.5t56.5 191.5t21.5 134q0 20 -5.5 43.5
t-17.5 43t-30.5 32t-43.5 12.5q-43 0 -90 -18.5t-94 -61.5t-95 -111.5t-93 -167.5q-9 -127 -56 -271t-123.5 -287.5t-180 -275.5t-225.5 -233.5t-258 -162t-280 -60.5q-69 0 -119.5 37t-50.5 115q0 32 14.5 61t37 49.5t50 31.5t52.5 11q33 0 55.5 -20.5t22.5 -67.5
t-23.5 -92t-60.5 -68q4 -10 16 -14t17 -4q161 0 292 81t233.5 208t175.5 283.5t120 308t69.5 280.5t22.5 203q0 88 -26.5 153.5t-71.5 110.5t-105.5 67.5t-128.5 22.5zM732 1128q0 117 -44 244t-130 219q-57 -32 -114.5 -76.5t-105.5 -100.5t-85 -124.5t-55 -148.5
q32 2 66 12t62.5 21.5l49 20.5t30.5 9q11 0 17 -1t6 -11q0 -14 -24.5 -29.5t-60.5 -28t-78 -21.5t-77 -9q-6 -47 -6 -94q0 -58 16.5 -116t49.5 -104.5t82 -76t116 -29.5q80 0 134.5 46t88 113.5t48 145.5t14.5 139zM-73 1415q0 -33 11.5 -78t37 -86t68.5 -72.5t108 -37.5
q17 63 51.5 130.5t82 132t108 121t129.5 99.5q-53 45 -119.5 71.5t-144.5 26.5q-70 0 -130 -20.5t-105.5 -59t-71 -96t-25.5 -131.5z" />
    <glyph glyph-name="O" unicode="O" horiz-adv-x="1681" 
d="M1718 1012q0 8 -1 14t-1 14q-78 -143 -193.5 -272t-247.5 -227.5t-266.5 -156.5t-246.5 -58q-84 0 -144.5 27.5t-100.5 71.5t-59.5 100.5t-19.5 111.5q0 82 33 179t92 193.5t142 186.5t184.5 159.5t218 112.5t241.5 45q68 70 143 112t144 42q109 0 151 -65.5t42 -167.5
q0 -72 -16.5 -143.5t-45.5 -143.5q4 -25 7 -52.5t3 -56.5q0 -149 -40.5 -290.5t-112.5 -267.5t-172.5 -230.5t-219 -180t-252.5 -117.5t-274 -42q-147 0 -261.5 55t-192.5 147.5t-118 215.5t-40 258q0 153 47 293.5t128 261.5t191.5 219t238.5 166.5t265.5 106.5t274.5 38
q10 0 10 -14q0 -8 -10 -10q-15 -5 -49.5 -9t-102.5 -24q-174 -53 -320.5 -164t-254 -261.5t-168 -330.5t-60.5 -371q0 -141 44.5 -241.5t115 -165t160.5 -94t182 -29.5q101 0 209.5 43t212 119t196.5 177t162.5 219t110.5 245t41 252zM1147 954q0 -26 -19 -26q-10 0 -17 10
t-7 27q0 133 60 269t151 241q-101 -9 -202 -50t-193.5 -105.5t-172.5 -146t-138 -170t-92 -179.5t-34 -173q0 -61 20.5 -113.5t56.5 -91t87 -60t113 -21.5q120 0 258.5 66.5t269.5 176t241.5 246.5t178.5 279q-10 69 -36 130.5t-67 107.5t-99 74t-134 32q-47 -52 -88 -115.5
t-72 -131t-48 -138t-17 -138.5zM1622 1624q-53 0 -108.5 -30.5t-108.5 -84.5q45 -6 95 -27.5t96 -57t86 -87t65 -116.5q41 112 41 213q0 92 -31 141t-135 49z" />
    <glyph glyph-name="P" unicode="P" horiz-adv-x="1601" 
d="M82 1380q2 74 26.5 124t58.5 80t71 43t61 13q101 0 145 -87t44 -232q0 -158 -47.5 -363.5t-124.5 -422.5h12l108.5 219t131 249.5t155.5 247.5t181.5 216.5t211 152.5t244.5 57q111 0 187.5 -33.5t126 -92t72 -139.5t22.5 -175q0 -131 -39 -280.5t-105.5 -297
t-155.5 -282.5t-191.5 -239.5t-213 -166t-217.5 -61.5q-84 0 -143.5 29.5t-97 80t-55 118t-17.5 143.5q0 84 19.5 184t58 201.5t95 198t129.5 170t162 118.5t191 45q35 0 77 -13.5t78 -41t60.5 -70.5t24.5 -104q0 -103 -45 -222.5t-120 -222t-174.5 -170t-207.5 -67.5
q-57 0 -96 15t-62.5 39t-34 49.5t-10.5 43.5q0 23 17 23q10 0 20 -20.5t26.5 -45t45 -45t75.5 -20.5q62 0 125.5 31.5t121 83t107.5 117t87 134t58.5 134t21.5 116.5q0 109 -56.5 160t-160.5 51q-74 0 -146 -37t-136.5 -98.5t-117.5 -142t-93 -167.5t-61.5 -176.5
t-21.5 -164.5q0 -121 60.5 -195t189.5 -74q92 0 193.5 57.5t197.5 151.5t183 217t153 256t104.5 265.5t38.5 244.5q0 74 -18.5 137.5t-59 108.5t-105 70.5t-157.5 25.5q-120 0 -231 -60.5t-210 -164.5t-188 -245.5t-170 -302.5t-153 -333t-135.5 -340l-119.5 -322.5
t-107 -281.5q-17 -51 -46.5 -70.5t-58.5 -19.5q-39 0 -64.5 24.5t-25.5 61.5q0 23 24.5 94.5t64.5 178l91 237.5l104.5 271.5l104.5 281.5t91 266t64.5 227.5t24.5 165.5q0 93 -11 151t-29.5 90t-42 44t-50.5 12q-18 0 -29.5 -5l-25.5 -11q57 -2 57 -63q0 -25 -14 -60
t-38 -65.5t-52.5 -52t-54.5 -21.5q-58 0 -58 61z" />
    <glyph glyph-name="Q" unicode="Q" horiz-adv-x="1742" 
d="M708 -217q-147 0 -261.5 55.5t-192.5 147.5t-118 215t-40 258q0 231 103.5 434t274.5 354.5t392 239.5t457 88q10 0 10 -14q0 -9 -10 -11q-15 -4 -49.5 -9t-102.5 -23q-188 -54 -350 -169.5t-280.5 -276.5t-186.5 -354.5t-68 -398.5q0 -141 44.5 -234t115 -150.5
t160.5 -81t182 -23.5q66 0 133 18q-2 17 -2 32.5v29.5q0 78 2 155.5t9 153.5q-48 -6 -93 -6q-69 0 -127.5 27.5t-101.5 71.5t-66.5 100.5t-23.5 111.5q0 76 24.5 162t71.5 174t113.5 171t148.5 151.5t180.5 119t206.5 70.5q68 94 145 145.5t163 51.5q108 0 156 -67.5
t48 -170.5q0 -106 -24 -217q18 -43 29.5 -95t11.5 -114q0 -176 -68.5 -347t-183.5 -315.5t-264.5 -254t-311.5 -162.5q17 -78 68 -105.5t143 -27.5q88 0 139.5 16.5t82 34.5t46 34.5t29.5 16.5q15 0 19 -2t4 -14q0 -17 -22.5 -67t-65.5 -102t-102.5 -93t-133.5 -41
q-67 0 -112 30.5t-74 78.5t-43.5 108.5t-18.5 120.5q-53 -15 -107 -23t-108 -8zM1288 1341q-59 -86 -109.5 -203.5t-91.5 -257t-70.5 -295t-43.5 -317.5q131 31 247.5 115t211 198.5t164 249t104.5 267.5q-41 110 -124 181t-198 71q-51 0 -90 -9zM934 260q28 334 107 613.5
t196 457.5q-135 -33 -259 -118t-217.5 -196.5t-148.5 -237.5t-55 -238q0 -60 20.5 -112t57 -92t88 -62.5t112.5 -22.5q25 0 49.5 2t49.5 6zM1724 1018q-43 -139 -119.5 -269.5t-175 -236.5t-216.5 -182t-245 -103q-12 -147 -12 -293q0 -20 1 -38.5t3 -34.5q92 30 186.5 89.5
t180.5 138.5t160.5 175t130 200.5t87 215.5t31.5 219q0 59 -12 119zM1405 1386q18 0 56 -11t83 -35.5t91 -65.5t83 -98q8 41 12 79.5t4 75.5q0 92 -38.5 145.5t-143.5 53.5q-63 0 -122.5 -39t-114.5 -111q43 6 90 6z" />
    <glyph glyph-name="R" unicode="R" horiz-adv-x="2027" 
d="M542 608h23t22 2q-28 70 -47.5 162t-19.5 197q0 63 18.5 129.5t55 120t92 87t129.5 33.5q51 0 89 -20.5t62.5 -56t36.5 -84t12 -101.5q0 -88 -24.5 -170t-71.5 -147.5t-114.5 -112.5t-151.5 -65q20 -41 33.5 -65.5t13.5 -33.5q0 -4 -3 -10t-13 -6q-15 0 -36.5 27.5
t-43.5 78.5q-17 -2 -31 -3t-31 -1q-92 0 -173 35t-140 100.5t-93 158.5t-34 208q0 137 54.5 265t153.5 224.5t236.5 155t303.5 58.5q114 0 215.5 -31t178.5 -96.5t121 -167t44 -242.5q0 -47 -2 -82t-6.5 -64.5t-10.5 -57t-14 -60.5q24 26 61 90.5l86 146.5l106.5 171
t123 162t135 120t143.5 47q99 0 160 -63.5t61 -157.5q0 -82 -45 -183.5t-135 -204t-228 -195.5t-325 -156q6 -23 18.5 -64l37 -121l62.5 -209l97 -323q8 -29 28.5 -54.5t55.5 -25.5q29 0 55.5 25.5t50 57.5t40 57.5t26.5 25.5q17 0 17 -10q0 -17 -19.5 -53t-55.5 -74.5
t-85 -67.5t-109 -29q-63 0 -116.5 42t-75.5 102q-23 57 -42.5 130.5l-39 150.5l-38.5 151t-41.5 133t-49.5 96t-59 41q-72 -127 -173.5 -260t-231.5 -242.5t-288.5 -180.5t-345.5 -71q-39 0 -65.5 14.5t-42 36t-21.5 47t-6 50.5q0 65 44 112.5t110 47.5q30 0 46.5 -27
t16.5 -53q0 -43 -25.5 -87t-95.5 -79q35 -16 90 -16q103 0 213.5 37.5t216 108.5t198.5 172t164 227t111.5 274.5t40.5 312.5q0 82 -22.5 181.5t-72.5 186.5t-131 146.5t-197 59.5q-127 0 -245 -52.5t-209 -141.5t-146.5 -206t-55.5 -246q0 -84 22.5 -169t71 -152.5
t121 -110.5t174.5 -43zM1978 1608q-72 0 -134.5 -46t-119.5 -120t-109.5 -166l-103.5 -184.5t-103.5 -176.5t-105.5 -141l62 -4q71 0 155 29.5t169 81t164 119t140.5 143.5t98 154.5t36.5 150.5q0 70 -37.5 115t-111.5 45zM563 942q0 -98 23.5 -181t50.5 -143
q79 19 141.5 63t104.5 106.5t63.5 137t21.5 152.5q0 41 -9 79t-28.5 67.5t-50 47t-76.5 17.5q-67 0 -113 -33.5t-75 -86t-41 -113t-12 -113.5z" />
    <glyph glyph-name="S" unicode="S" horiz-adv-x="1810" 
d="M1699 1366q-39 0 -62.5 17.5t-23.5 56.5t19.5 65.5t48 43t62.5 24.5t65 10q-23 92 -109 138t-194 46q-76 0 -153 -22.5t-138.5 -67.5t-99 -111.5t-37.5 -154.5q0 -84 53 -135t133 -92t173 -82t173 -100.5t133.5 -148.5t53.5 -228q0 -121 -42 -242t-116 -233.5
t-172.5 -210t-210 -169t-230 -112.5t-233.5 -41q-119 0 -225.5 28.5t-187.5 85t-128 139.5t-47 189q0 68 17 140q-78 61 -116 143t-38 174q0 125 45 195.5t105.5 105.5t123 44t97.5 9h14t26.5 -2t26 -6t11.5 -10q0 -16 -13.5 -18.5t-32.5 -2.5h-30q-68 0 -130.5 -18
t-109.5 -55t-75.5 -94.5t-28.5 -135.5q0 -172 135 -288q33 118 105.5 220.5t169 178.5t209 119t224.5 43q70 0 132.5 -18.5t109.5 -55.5t73.5 -92t26.5 -129q0 -107 -60 -188.5t-150.5 -138t-198 -85t-201.5 -28.5q-135 0 -240.5 28.5t-181.5 81.5q-4 -29 -7 -55.5t-3 -54.5
q0 -80 37 -155t105.5 -132.5t166 -92t217.5 -34.5q164 0 321 71.5t278.5 194.5t196.5 286t75 345q0 119 -49.5 195.5t-123 129t-158.5 92.5t-158.5 85t-123 107.5t-49.5 162.5q0 119 51.5 210t131 152.5t177 93t191.5 31.5q68 0 127.5 -16t105.5 -50t72.5 -85t26.5 -121
q0 -29 -11.5 -58.5t-32 -54t-50 -41t-64.5 -16.5zM939 762q-104 0 -212.5 -42t-201.5 -115t-164 -172t-101 -216q71 -53 172.5 -82t228.5 -29q82 0 183.5 25t191.5 76t151.5 126t61.5 177q0 61 -28 108.5t-72 79t-99 48t-111 16.5z" />
    <glyph glyph-name="T" unicode="T" horiz-adv-x="1824" 
d="M86 1118q0 154 63.5 254.5t158.5 160.5t206 84.5t205 24.5q67 0 146 -13t163 -33.5t170 -47l172 -53.5q119 74 237.5 117t229.5 43q41 0 94 -6.5t101.5 -24.5t81 -53t32.5 -92q0 -62 -34.5 -106t-86 -71.5t-112 -40t-111.5 -12.5q-153 0 -283 36t-264 81
q-55 -45 -107 -96t-99 -107q90 -12 179 -39.5t160.5 -76t115.5 -117t44 -160.5q0 -100 -48 -167.5t-126 -109.5t-176 -59.5t-201 -17.5q-104 0 -223 24q8 -100 46 -190t100.5 -158.5t148.5 -108.5t193 -40q127 0 221 41t184 137l28.5 34.5l32 41t28.5 35t20 14.5
q16 0 16 -17q0 -18 -22.5 -46.5l-41.5 -51.5q-108 -127 -241 -206t-305 -79q-119 0 -223.5 38t-183.5 111t-124 177t-45 238v36.5t4 38.5q-123 43 -232.5 115t-182.5 176q-17 -20 -32.5 -41.5l-31.5 -44.5q-8 0 -12 7.5t-4 11.5q0 36 55 104q-41 66 -62.5 140.5t-21.5 164.5
zM1507 764q0 88 -41 150.5t-108.5 105.5t-157.5 66.5t-188 31.5q-111 -141 -175.5 -300t-64.5 -316v-17q64 -14 130.5 -20t137.5 -6q95 0 180 16.5t148.5 52t101 94t37.5 142.5zM899 1174q21 0 42.5 -1.5t43.5 -3.5q105 117 225 213q-129 43 -275.5 78t-330.5 35
q-92 0 -178 -22.5t-152.5 -70.5t-107.5 -121t-41 -173q0 -143 72 -262q49 53 120.5 110.5t162.5 105.5t196.5 80t222.5 32zM895 1122q-182 0 -356 -75.5t-318 -239.5q66 -92 167 -164t230 -117q29 142 115 296.5t209 297.5q-12 0 -24.5 1t-22.5 1zM1849 1616
q-104 0 -213.5 -36t-216.5 -99q135 -41 256 -71t213 -30q31 0 67 4.5t66.5 18.5t52 38.5t21.5 65.5q0 33 -29.5 54.5t-69.5 34t-82 16.5t-65 4z" />
    <glyph glyph-name="U" unicode="U" horiz-adv-x="1990" 
d="M460 197q0 -11 -6 -14t-10 -3q-21 0 -40.5 25.5t-37 65.5t-29.5 88.5t-20 95.5q-64 20 -110 63t-75.5 95.5t-44 107.5t-14.5 102q0 119 41 233.5t110.5 216t165 186.5t203 146.5t224 96.5t231.5 35q86 0 173 -28t155.5 -80t112.5 -128t44 -170q0 -100 -35.5 -220
t-89 -243t-115 -244.5l-114.5 -226t-89 -187.5t-36 -128q0 -35 17.5 -59.5t56.5 -24.5q47 0 109.5 48t135 128t150.5 184.5t154.5 218l148.5 228.5l132.5 217l106.5 182t68 123q15 23 56 23q22 -4 25 -14.5t3 -20.5q-10 -29 -37.5 -99.5l-68.5 -168l-90.5 -215l-98.5 -239.5
l-96 -242l-83 -220t-57.5 -175t-21.5 -108q0 -65 17.5 -104t74.5 -39q66 0 116 41t85 91t58.5 91t37.5 41q9 0 13 -7t4 -17q0 -8 -23.5 -52.5t-63.5 -94.5t-96.5 -91t-119.5 -41q-95 0 -132.5 56.5t-37.5 148.5q0 51 17.5 121.5t60.5 188.5l113.5 300.5l174.5 456.5
q-49 -64 -112.5 -161l-135 -206.5l-149.5 -220t-153.5 -200t-147.5 -144.5t-131 -55q-35 0 -67.5 9t-60.5 31.5t-44.5 60.5t-16.5 93q0 82 33 185.5t82 219.5t107.5 237.5t107.5 239.5t82 226.5t33 198.5q0 66 -32 113t-81 76.5t-108.5 43t-114.5 13.5q-182 0 -350 -75
t-297 -202t-206 -296t-77 -357q0 -16 8.5 -52t29 -76t57 -79t92.5 -59q-2 14 -3.5 27.5t-1.5 25.5q0 143 34 277.5t102.5 238t170 165.5t236.5 62q121 0 171 -68.5t50 -189.5q0 -120 -55 -229t-146 -192.5t-207 -133t-237 -49.5q-39 0 -71 6q10 -55 28.5 -96t35.5 -70.5
t29.5 -49t12.5 -29.5zM343 557q0 -18 1 -34.5t3 -33.5q31 -8 76 -8q109 0 218.5 46t197.5 125t143.5 181.5t55.5 213.5q0 36 -7.5 75t-26 70t-48 51.5t-72.5 20.5q-133 0 -234.5 -59.5t-169 -158t-102.5 -226.5t-35 -263z" />
    <glyph glyph-name="V" unicode="V" horiz-adv-x="2121" 
d="M468 496q-28 0 -54 2t-50 6q16 -66 43 -125q0 -10 -10 -10q-23 0 -42.5 41t-31.5 102q-121 33 -187.5 120t-66.5 230q0 178 82 336t214 277.5t298 189.5t336 70q119 0 216 -28t166.5 -81t108.5 -132t39 -181q0 -82 -30.5 -183.5t-76.5 -212t-100.5 -223t-100.5 -217
t-77 -196t-31 -154.5q0 -117 69 -165t177 -48q109 0 207 61.5t182 157.5t150.5 214t114 232.5t73 211t25.5 151.5q-35 29 -63.5 69t-49 85t-31 92t-10.5 90q0 65 28 109.5t87 44.5q49 0 76.5 -35t41 -83t16.5 -99.5t3 -84.5q0 -43 -1 -97t-9 -93q16 -10 32.5 -16t31 -12.5
t22.5 -13.5t8 -19q0 -13 -5 -22t-21 -9q-13 0 -40.5 13t-37.5 24q-25 -84 -64 -191.5t-95 -219.5t-130 -220.5t-165 -192.5t-200.5 -135t-238.5 -51q-62 0 -119 17.5t-101 56.5t-71 102.5t-27 155.5q0 98 30 203.5t76 213t98 214l98 207t76 192.5t30 168q0 92 -31 148.5
t-84 88t-122.5 43t-149.5 11.5q-197 0 -360.5 -81t-281.5 -204t-183.5 -267.5t-65.5 -273.5q0 -108 49 -191t158 -120q-4 35 -7 71t-3 70q0 101 38.5 214.5t109.5 210t167 160t213 63.5q49 0 93 -16.5t76 -47.5t51.5 -73t19.5 -93q0 -112 -52.5 -224t-136.5 -200
t-193.5 -143t-222.5 -55zM341 688q0 -65 13 -139q55 -12 123 -12q98 0 197.5 50t179 130t130 179t50.5 200q0 104 -59.5 157.5t-164.5 53.5q-102 0 -188 -59.5t-148.5 -151.5t-97.5 -201t-35 -207z" />
    <glyph glyph-name="W" unicode="W" horiz-adv-x="2766" 
d="M1095 1178q0 -109 -56.5 -218.5t-146.5 -199.5t-202.5 -146.5t-223.5 -56.5q-69 0 -131 21q17 -76 38.5 -117t21.5 -60q0 -22 -19 -22q-18 0 -43.5 54t-40.5 161q-96 41 -159.5 129t-63.5 215q0 88 33 185.5t92 191.5t144 179t189.5 148.5t227.5 101.5t256 38
q98 0 194.5 -25.5t171 -79t122 -134.5t47.5 -189q0 -90 -35 -196.5t-88.5 -220.5l-113.5 -230.5l-113.5 -223t-88 -200t-34.5 -162.5q0 -90 52 -128t130 -38q53 0 115.5 32.5t129 90t135 135.5t136.5 168q8 90 27.5 204.5t47 233.5t64.5 231.5t79 200.5t89 141.5t96 53.5
q35 0 54.5 -18.5t19.5 -51.5q0 -88 -22.5 -188.5t-61.5 -205.5t-93 -212.5t-118 -210.5q-4 -57 -7 -114.5t-3 -114.5q0 -51 7 -127t29.5 -145.5t67.5 -120t121 -50.5q84 0 157 50.5t134 136.5t110.5 198.5t83 236.5t51 252t17.5 243q0 61 -6 116q-72 43 -121 117t-49 168
q0 31 19.5 55.5t48.5 24.5q57 0 93 -41t56.5 -97.5t27.5 -114.5t7 -93q20 -9 45 -12t46.5 -7t35.5 -13t14 -28q0 -16 -14 -22t-37 -6q-27 0 -51.5 7t-36.5 11v-27q0 -16 -6 -75.5t-21.5 -147.5t-40 -195.5t-62.5 -216t-90 -212t-122 -183.5t-157 -128t-195 -48
q-84 0 -147.5 36t-106.5 96.5t-64.5 138t-21.5 161.5v25q-68 -84 -138.5 -154.5t-137 -121t-129 -79t-115.5 -28.5q-72 0 -126.5 30.5t-93 82t-58 114t-19.5 127.5q0 80 32.5 175.5t81.5 197.5t107.5 208.5t107.5 208t82 194.5t33 169q0 111 -40 175.5t-100.5 97t-130 42
t-128.5 9.5q-152 0 -307.5 -65.5t-282.5 -177.5t-208 -258t-81 -308q0 -96 48 -172t126 -117q-2 23 -3 48.5t-1 53.5q0 66 20.5 141t57.5 150.5t88 145t110.5 123t128 85t138.5 31.5q51 0 99 -17.5t86 -49t60.5 -76.5t22.5 -100zM321 729q0 -59 6 -104q53 -21 117 -21
q112 0 223 51.5t197 132t139 180t53 197.5q0 41 -16.5 80t-46 70t-69.5 49t-85 18q-96 0 -186 -61t-162 -156.5t-118 -211t-52 -224.5zM2060 1206q-27 -125 -52.5 -257t-42.5 -269q54 92 99 183t76.5 174t50 155t18.5 127q0 10 -1 24.5t-4 26.5t-12 22.5t-24 12.5
q-22 0 -40.5 -25.5t-33 -59.5t-23.5 -66.5t-11 -47.5z" />
    <glyph glyph-name="X" unicode="X" horiz-adv-x="1744" 
d="M2088 1485q0 -23 -28.5 -56.5t-97 -103.5l-183.5 -186.5l-287 -304.5q14 -132 21.5 -262t13.5 -248.5t14 -222t26.5 -179.5t47.5 -119t78 -43q39 0 68.5 20.5t51 51.5t37 68t23.5 69q4 15 27 15q8 0 15 -7.5t7 -15.5q-6 -33 -25.5 -75t-47 -79.5t-62.5 -64.5t-72 -27
q-112 0 -181 79t-108.5 209t-60 299t-39.5 347l-205.5 -234l-236.5 -278q-14 -16 -41 -55l-56.5 -80t-59.5 -72.5t-50 -31.5q-29 0 -54.5 11t-25.5 42q0 18 13.5 40.5t32 44t39 42l36.5 37.5l331.5 334.5l266.5 275.5q-20 184 -50 361.5t-89.5 314.5t-156.5 221t-251 84
q-149 0 -269 -79t-203 -199.5t-128 -265t-45 -277.5q0 -68 22.5 -128.5t64.5 -106.5t103.5 -73.5t141.5 -27.5q100 0 189 61.5t155.5 154.5t105.5 202.5t39 208.5q0 104 -53 166.5t-133 62.5q-78 0 -135.5 -56.5t-95 -136t-57 -165.5t-21.5 -148q0 -25 -11.5 -31t-15.5 -6
q-10 0 -14 13.5t-4 25.5q0 62 20.5 154t65.5 178t113.5 147.5t166.5 61.5q51 0 92 -20.5t70 -55.5t44 -81t15 -97q0 -109 -43 -229.5t-116.5 -222t-172 -168t-210.5 -66.5q-88 0 -157 29.5t-117 82t-72.5 125t-24.5 158.5q0 160 54.5 314.5t151.5 275.5t232 195.5t297 74.5
q174 0 292 -70.5t194.5 -189.5t118.5 -272.5t65 -321.5l217 239.5l145.5 168l91 108.5t54 62.5t35 29t32.5 7.5q17 0 23 -10.5t6 -22.5z" />
    <glyph glyph-name="Y" unicode="Y" horiz-adv-x="2013" 
d="M1863 616q17 41 31 94.5l29 110.5l-118.5 -170l-135 -190l-144 -187.5t-143.5 -163t-133.5 -114.5t-112.5 -43q-35 0 -67.5 9t-60 31.5t-44 60.5t-16.5 93q0 82 30.5 180.5t77.5 205l100.5 218t100.5 220t78 211t31 192.5q0 66 -26 127.5t-78 108.5t-133 74.5t-191 27.5
q-168 0 -319.5 -80t-267.5 -208t-183.5 -286.5t-67.5 -316.5q0 -35 16.5 -88t54 -103t99 -86t153.5 -36h28t28 2q-17 53 -25 107.5t-8 99.5q0 143 35 266t97.5 213t148.5 141.5t190 51.5q121 0 171 -72t50 -193q0 -106 -52 -211.5t-138 -194.5t-193.5 -153.5t-218.5 -89.5
q21 -47 37 -75.5t16 -41.5q0 -10 -6 -13t-10 -3q-20 0 -41.5 36t-40.5 89q-16 -4 -32.5 -4h-32.5q-93 0 -160.5 36t-113.5 90t-68.5 117.5t-22.5 118.5q0 119 36 235t97.5 218t145 189t181 150.5t202 98.5t208.5 35q131 0 239 -38t183.5 -101.5t117.5 -148.5t42 -179
q0 -100 -34 -216t-85 -233.5t-109.5 -233.5l-109.5 -215t-85 -178t-34 -124q0 -35 17.5 -59.5t56.5 -24.5q45 0 106.5 43t132 114.5t148.5 168t155 202t149.5 216l133.5 210.5l25 95t23.5 79.5t21.5 57t21 28.5q12 9 33.5 23l44 28.5t44 24.5t37.5 10q29 0 29 -34
q-31 -119 -80 -274.5t-110.5 -327.5t-133 -350.5t-149.5 -342.5q-49 -102 -115.5 -198.5t-154 -172t-194 -120.5t-232.5 -45q-84 0 -120 33.5t-36 80.5q0 29 12 57.5t35 51.5t53.5 37t67.5 14q28 0 44.5 -18.5t16.5 -44.5q0 -66 -49 -104t-104 -50q55 -12 108 -12
q109 0 195 45t152.5 115.5t116.5 157.5t89 173q70 154 120 318zM493 719q0 -64 8.5 -113t20.5 -88q117 25 222 96.5t185 161.5t127 185.5t47 168.5q0 37 -7 76t-24.5 70t-47 51.5t-72.5 20.5q-98 0 -182 -47.5t-145.5 -131.5t-96.5 -199.5t-35 -250.5z" />
    <glyph glyph-name="Z" unicode="Z" horiz-adv-x="1652" 
d="M978 539q-100 55 -176 137q-53 -41 -114.5 -62.5t-129.5 -21.5q-84 0 -155.5 32.5t-125 88t-83 129t-29.5 155.5q0 142 61.5 253.5t166 188.5t242.5 117.5t294 40.5q123 0 237.5 -24.5t217 -53l193.5 -53t167 -24.5q25 0 51.5 2t51 3t44 3t27.5 2q27 0 44.5 -4t17.5 -21
q0 -28 -28 -52.5t-81 -51.5q-70 -59 -161 -145l-195.5 -188.5l-218 -215l-228.5 -225.5q76 -35 152 -50.5t137 -15.5q111 0 175.5 69t98.5 167q7 18 23 18q8 0 15 -5t7 -13q0 -60 -28.5 -110t-74.5 -89t-102.5 -60.5t-113.5 -21.5q-80 0 -164 19.5t-162 54.5l-182 -174
l-176 -158q59 -10 133 -47t152.5 -84l159.5 -100l156 -98.5t140.5 -74t114.5 -28.5q39 0 71.5 19.5t57.5 43t42 43t28 19.5q22 0 22 -23q0 -18 -30.5 -53t-83 -68.5t-121 -58t-142.5 -24.5q-82 0 -177 53t-199.5 126l-214 147.5t-218.5 117.5q-123 -98 -221 -157.5
t-162 -59.5q-39 0 -70.5 24.5t-31.5 67.5q0 105 137 160t381 59l181.5 166zM992 1055q0 -99 -41 -190t-112 -158q37 -41 82 -73t94 -59l386 377.5t376 347.5q-35 -4 -57.5 -4h-45.5q-120 0 -252.5 32t-259.5 70l-241.5 69.5t-202.5 31.5q-100 0 -192.5 -39t-162 -107.5
t-111.5 -161.5t-42 -200q0 -78 27.5 -142.5t76 -110.5t114 -72.5t143.5 -26.5q53 0 103 21.5t97 56.5q-41 55 -64.5 121.5t-23.5 142.5q0 37 5 80t21.5 80t46.5 61.5t77 24.5q71 0 115 -51.5t44 -120.5zM730 981q0 -68 20.5 -126t55.5 -107q59 57 97 132.5t38 151.5
q0 55 -23.5 101.5t-80.5 46.5q-37 0 -57.5 -21.5t-32 -52.5t-14.5 -65.5t-3 -59.5zM204 -80q45 0 124 51.5t183 137.5q-33 10 -64.5 15t-62.5 5t-75 -12.5t-86 -34t-70.5 -48t-28.5 -52.5q0 -39 22.5 -50.5t57.5 -11.5z" />
    <glyph glyph-name="bracketleft" unicode="[" horiz-adv-x="532" 
d="M12 -109l502 1469l8 6h229l4 -8l-8 -25l-8 -6h-139l-484 -1407h140l4 -6l-10 -25l-9 -6h-227z" />
    <glyph glyph-name="backslash" unicode="\" horiz-adv-x="608" 
d="M227 2001q4 14 14 14q17 0 22 -14t9 -33l336 -2136q2 -10 2 -17.5v-11.5q0 -10 -6 -17t-14 -7q-21 0 -27 47l-336 2134q-2 6 -2 13v14q0 10 2 14z" />
    <glyph glyph-name="bracketright" unicode="]" horiz-adv-x="532" 
d="M641 1358l-503 -1469l-7 -8h-231l-2 10l6 25l10 4h138l485 1407h-141l-4 8l10 23l10 8h227z" />
    <glyph glyph-name="asciicircum" unicode="^" horiz-adv-x="1912" 
d="M894 815q0 -22 -20.5 -74.5t-51 -121l-65.5 -150.5t-65.5 -167t-51 -166t-20.5 -148q0 -86 42 -140.5t148 -54.5q103 0 219.5 49t230.5 132t218.5 191.5t185 227.5t128 240t47.5 229q0 92 -31 141.5t-135 49.5q-74 0 -158 -63.5t-153.5 -161t-117 -216t-47.5 -229.5
q0 -27 -18 -27q-10 0 -17.5 10.5t-7.5 26.5q0 121 50.5 246t129.5 226.5t173 166t180 64.5q109 0 150.5 -65.5t41.5 -168.5q0 -129 -51 -260t-136 -254t-194.5 -231.5t-228.5 -189.5t-237.5 -127t-219.5 -46q-83 0 -143.5 28t-100.5 72t-59.5 100t-19.5 112q0 69 23.5 152
t58.5 172l71.5 178t65.5 169l11 31t5 18q-51 -59 -93 -141t-82 -171l-77.5 -177t-78.5 -157.5t-86 -112.5t-99 -43q-45 0 -72.5 15t-43 42t-20.5 64.5t-5 82.5q0 109 45 225.5t124 214t186.5 160t230.5 62.5h188q23 0 38 -6t15 -29zM239 35q41 0 79 45t74.5 116.5
t73.5 159.5t77 173t84 157t93 113q0 14 -8 16t-16 2q-94 -8 -167 -60t-129.5 -127t-96 -162t-64.5 -163t-36 -131t-11 -68q0 -32 8 -51.5t39 -19.5z" />
    <glyph glyph-name="underscore" unicode="_" horiz-adv-x="1615" 
d="M229 276q-8 -51 -18.5 -101t-10.5 -107q0 -84 29 -148.5t77 -108.5t110.5 -68t127.5 -24q170 0 310.5 41t252 106.5t195.5 150.5t138.5 172t82 171t27.5 148q0 67 -24.5 116.5t-92.5 49.5q-102 0 -200.5 -57.5t-175 -151.5t-124 -213t-47.5 -244v-17t2 -18q0 -26 -16 -26
q-18 0 -24.5 22.5t-6.5 50.5q0 91 30 179t80 167.5t113.5 146.5t130 116t133 76.5t119.5 27.5q80 0 119 -47t39 -125q0 -72 -30.5 -166t-92 -192.5t-152.5 -192.5t-214 -168.5t-275.5 -120t-335.5 -45.5q-86 0 -165.5 29t-141 87t-98.5 144.5t-37 200.5q0 60 14.5 136.5
t42 158.5t68.5 160t94 139.5t118.5 99t143.5 37.5q15 0 39.5 -4t48 -22.5t41 -55t17.5 -100.5q0 -29 -15.5 -92.5t-63.5 -129t-139.5 -120.5t-242.5 -68zM606 768q0 31 -18.5 51.5t-35.5 20.5q-45 0 -90 -47.5t-86 -122t-75.5 -169.5t-61.5 -190q84 4 151.5 51.5t116 115
t74 146t25.5 144.5z" />
    <glyph glyph-name="grave" unicode="`" horiz-adv-x="921" 
d="M661 961q0 -17 -26 -17q-6 0 -51.5 12.5t-97.5 35t-94 54t-42 72.5q0 27 17.5 43.5t37.5 16.5q33 0 51.5 -16.5t40.5 -57.5q35 -60 64 -84.5t70 -36.5q30 -10 30 -22z" />
    <glyph glyph-name="a" unicode="a" 
d="M827 158q12 14 26 14q11 0 11 -8t-6 -17q-23 -32 -46.5 -61t-49 -50.5t-57.5 -33.5t-73 -12q-35 0 -60.5 14t-40.5 33.5t-22.5 43t-7.5 42.5q0 63 27.5 149t62.5 174.5t69 166t48 124.5l11 31t5 18q-51 -59 -93 -141t-82 -171l-77.5 -177t-78.5 -157.5t-86 -112.5
t-99 -43q-45 0 -72.5 15t-43 42t-20.5 64.5t-5 82.5q0 109 45 225.5t124 214t186.5 160t230.5 62.5h188q23 0 38 -6t15 -29q0 -6 -19.5 -58l-49 -129l-64.5 -166l-64.5 -169t-49 -140.5t-19.5 -76.5q0 -35 11.5 -44t23.5 -9q25 0 48.5 16t46 37.5t40 44zM239 35q41 0 79 45
t74.5 116.5t73.5 159.5t77 173t84 157t93 113q0 14 -8 16t-16 2q-94 -8 -167 -60t-129.5 -127t-96 -162t-64.5 -163t-36 -131t-11 -68q0 -32 8 -51.5t39 -19.5z" />
    <glyph glyph-name="b" unicode="b" horiz-adv-x="753" 
d="M641 1210q-11 0 -34.5 -41t-54 -108.5l-67.5 -155.5l-74 -182l-72.5 -189.5l-66.5 -177.5q51 105 106.5 196t108.5 156.5t103.5 103.5t90.5 38q58 0 89.5 -49t31.5 -172q0 -80 -38.5 -190.5t-110.5 -211t-173.5 -171t-223.5 -70.5q-99 0 -146 34.5t-47 120.5
q0 37 29.5 130.5t77 219l104.5 274l112.5 296l102.5 284t72 238.5q10 -2 20 -2h19q0 -80 10 -175t35 -173zM641 801q-27 0 -71 -44t-94.5 -114t-100.5 -152.5t-91 -160.5t-66.5 -141.5t-25.5 -90.5q0 -24 10.5 -39.5t24.5 -24.5t28.5 -12.5t22.5 -3.5q59 0 112.5 50.5
t98.5 127t82 167t62.5 170t39 138t13.5 70.5q0 33 -7.5 46.5t-37.5 13.5z" />
    <glyph glyph-name="c" unicode="c" horiz-adv-x="657" 
d="M741 723q0 -59 -32.5 -95t-67.5 -36q-23 0 -39 17.5t-16 56.5q0 41 23.5 77.5t76.5 38.5q-4 17 -23.5 31t-46.5 14q-63 0 -117.5 -51t-100.5 -129t-81.5 -170t-60.5 -174t-38 -142.5t-13 -74.5q0 -68 63 -68q72 0 126 39t93 86t63.5 86t37.5 39q16 0 16 -16
q0 -12 -27.5 -56t-73.5 -91.5t-107.5 -84t-127.5 -36.5q-78 0 -130 45t-52 127q0 59 16.5 135t46 154.5t73.5 154.5t101.5 135.5t126 96t146.5 36.5q18 0 43 -4t47.5 -19.5t38.5 -44t16 -77.5z" />
    <glyph glyph-name="d" unicode="d" horiz-adv-x="886" 
d="M1058 1227q-12 0 -37.5 -48.5t-59.5 -126t-72 -178l-75.5 -206l-72.5 -208l-61.5 -186.5l-43 -139t-16.5 -65q0 -35 11 -44.5t24 -9.5q41 0 83 42t78.5 93.5t63.5 93.5t35 42q12 0 12 -13q0 -4 -1 -9t-5 -13l-59.5 -90t-66.5 -87t-78 -65.5t-93 -25.5q-65 0 -98 42
t-33 101q0 31 19.5 98.5t52.5 161.5l-79 -138.5t-87 -130t-90 -97t-86 -37.5q-90 0 -123 48t-33 140q0 43 15.5 110.5t45 143.5t73.5 152.5t101.5 138t128 100.5t152.5 39q35 0 70 -5t76 -24l73 202l70 198.5t59.5 187.5t42.5 166q11 -2 21 -2h18q0 -80 12.5 -166t36.5 -164
zM714 788q-10 17 -29.5 23t-56.5 6q-49 0 -98 -39t-94 -99.5t-85 -134t-72 -144t-53.5 -129t-29.5 -89.5q-12 -47 -12 -82q0 -32 12 -51.5t43 -19.5t69 34.5t78.5 91t81.5 127t80 144.5l72 142.5t55 119.5z" />
    <glyph glyph-name="e" unicode="e" horiz-adv-x="638" 
d="M690 686q0 -29 -15.5 -92.5t-63.5 -129t-139 -120.5t-243 -68q-24 -98 -24 -149q0 -35 24.5 -72t69.5 -37q76 0 125 24t80 53.5t46 53t21 23.5q17 0 17 -16q0 -9 -20.5 -36.5t-60.5 -58t-96.5 -54t-125.5 -23.5q-39 0 -75 18t-63.5 51t-44 75t-16.5 89q0 88 31.5 200.5
t91 213t144.5 169t192 68.5q14 0 38.5 -4t48 -22.5t41 -55t17.5 -100.5zM553 840q-47 0 -94 -52.5t-89 -130t-76 -171t-56 -175.5q86 4 153.5 51.5t115.5 115t73.5 146t25.5 144.5q0 31 -18.5 51.5t-34.5 20.5z" />
    <glyph glyph-name="f" unicode="f" horiz-adv-x="444" 
d="M613 827q0 -20 -33 -20h-143l-41.5 -141.5t-40.5 -130.5l-109 -305.5l-91 -245t-63.5 -173t-23.5 -92.5q0 -14 -4 -38.5t-10 -49t-14.5 -43t-18.5 -18.5t-18.5 26.5t-12.5 65.5t-6 84t-2 80q0 27 5 57.5t19.5 77.5l37 114.5l57.5 168l83 239l111 324.5h-80q-34 0 -34 20
q0 23 32 23h97l143.5 402.5t99.5 330.5q11 -2 23 -2h20q0 -80 12.5 -175t37.5 -173l-5 -23q-28 -6 -53.5 -37.5t-49.5 -81t-45.5 -111.5t-41.5 -130h127q35 0 35 -23z" />
    <glyph glyph-name="g" unicode="g" horiz-adv-x="690" 
d="M660 778q0 21 11 44.5t32 39.5q-74 -4 -115 -47q33 -27 54.5 -61.5t21.5 -75.5q0 -74 -23.5 -149.5t-70 -136t-113 -99.5t-152.5 -39q-90 0 -149 47q-31 -55 -31 -94q0 -49 37 -75t88 -26q55 0 106.5 11.5t104.5 11.5q78 0 130 -37t52 -123q0 -98 -45 -179t-113.5 -138.5
t-151.5 -88t-159 -30.5q-92 0 -156.5 49t-64.5 158q0 72 36 105.5t70 33.5q35 0 49.5 -20.5t14.5 -44.5q0 -29 -16.5 -51.5t-44.5 -22.5q-31 0 -41.5 26.5t-10.5 47.5q-2 8 -10 8q-10 0 -20.5 -23.5t-10.5 -46.5q0 -94 57.5 -138t137.5 -44q57 0 117.5 22.5t110.5 66.5
t82 107.5t32 145.5q0 45 -17.5 62.5t-39.5 17.5h-177q-83 0 -128.5 58.5t-45.5 133.5q0 19 9.5 57t38.5 70q-64 60 -64 162q0 70 29.5 139.5t80 126t118 91t145.5 34.5q53 0 106 -33q19 19 65 35.5t89 16.5q31 0 52.5 -12.5t21.5 -45.5q0 -32 -22.5 -65t-61.5 -33
q-17 0 -31 11.5t-14 39.5zM193 369q0 -47 29.5 -66.5t72.5 -19.5t79 31.5t64.5 81.5t49 108.5t35 112t21.5 93.5t7 52q0 39 -23.5 59.5t-62.5 20.5q-68 0 -118 -62.5t-85 -143.5t-52 -159t-17 -108z" />
    <glyph glyph-name="h" unicode="h" horiz-adv-x="776" 
d="M280 350q14 21 37.5 66t54.5 99l66.5 113.5t74.5 107.5t80 79t80 31q78 0 119 -43t41 -111q0 -39 -26.5 -112.5t-65.5 -167t-86 -194.5t-86 -194.5t-65.5 -170t-26.5 -117.5q0 -47 1 -75t3 -42l3 -20.5t1 -12.5q0 -16 -8 -16q-15 0 -29 24q-19 27 -31 67t-20.5 80
t-11.5 74.5t-3 53.5q0 35 23.5 109.5t60.5 168l78 194.5l78 189t60.5 151.5t23.5 84.5q0 14 -9.5 30.5t-45.5 16.5q-31 0 -73 -46t-90 -117.5t-97.5 -159l-92.5 -169l-76.5 -149.5t-50.5 -98q-6 -11 -9 -25t-7 -27.5t-9 -22.5t-16 -9q-10 0 -20 17.5t-19.5 44t-14.5 55
t-5 53.5q0 18 1 32.5t3 26.5t7 26.5l12 35.5q26 79 65 184.5l84 223.5l92 243l89 243.5l77 224t55 185.5q11 -2 21 -2h18q0 -80 10.5 -175t34.5 -173l-4 -23q-12 0 -34.5 -41t-53.5 -109.5t-66.5 -156.5l-72.5 -183l-72 -191.5l-65 -180.5h8z" />
    <glyph glyph-name="i" unicode="i" horiz-adv-x="423" 
d="M177 831q0 11 9.5 15t62.5 4h176q17 0 31 -6t14 -29q0 -22 -20.5 -81.5t-52 -138.5l-67.5 -166l-67.5 -165t-52 -135t-20.5 -78q0 -26 24 -26q58 0 142 137q6 10 14 13t12 3t9.5 -3t5.5 -7t-13.5 -34t-40 -63.5t-65.5 -60t-88 -26.5q-25 0 -47.5 12t-38 31.5t-24.5 43
t-9 46.5q0 30 17.5 88.5t42 129.5t55 147.5l55.5 141l42 110.5t17 59q0 10 -2 15t-12 8t-31.5 4t-60.5 1q-4 0 -8 2q-9 4 -9 8zM413 1098q0 26 8 59t23.5 61.5t39 48t56.5 19.5q25 0 41 -20.5t16 -46.5q0 -23 -10 -54.5t-26.5 -61.5t-38 -51.5t-45.5 -21.5q-29 0 -46.5 19.5
t-17.5 48.5z" />
    <glyph glyph-name="j" unicode="j" horiz-adv-x="346" 
d="M-204 -489q0 6 7 18t16.5 26.5t19.5 26.5t14 19q23 28 51.5 97t61.5 160l68.5 198.5l73.5 216l75 212t74 185.5q10 28 23.5 59t13.5 66q0 10 -2 15t-12.5 8t-32 4t-60.5 1q-4 0 -8 2q-8 4 -8 9q0 10 9 14t62 4h177q16 0 30.5 -6t14.5 -29q0 -16 -6.5 -36.5t-14.5 -41
t-16 -39t-15 -30.5q-57 -131 -103 -264.5l-90 -258t-90 -236.5t-104 -200q-12 -20 -38.5 -55t-57.5 -68.5t-62.5 -58.5t-54.5 -25q-16 0 -16 7zM406 1102q0 26 8.5 59t23.5 61.5t39 48t56 19.5q25 0 41.5 -20.5t16.5 -46.5q0 -23 -10.5 -54.5t-27 -61.5t-38 -51.5
t-45.5 -21.5q-29 0 -46.5 19.5t-17.5 48.5z" />
    <glyph glyph-name="k" unicode="k" horiz-adv-x="755" 
d="M397 354q0 23 8 28t18 5q74 25 126 59.5t85 72.5t48.5 75t15.5 61q0 35 -16.5 57.5t-45.5 22.5q-41 0 -86 -40t-91 -103.5t-91 -140t-83 -150.5l-67.5 -134.5t-46.5 -92.5q-6 -11 -9 -25t-7 -27.5t-9 -22.5t-16 -9q-10 0 -20 17.5t-19.5 44t-14.5 55t-5 53.5q0 18 1 32.5
t3 26.5t7 26.5l12 35.5q26 79 65 184.5l84 223.5l92 243l89 243.5l77 224t55 185.5q11 -2 21 -2h18q0 -80 10.5 -175t34.5 -173l-4 -23q-12 0 -34.5 -41t-53.5 -109.5t-66.5 -156.5l-72.5 -183l-72 -191.5l-65 -180.5h8q14 21 38.5 64t57.5 96t72 109.5t81 102.5t86 75.5
t85 29.5q71 0 95 -41t24 -108q0 -25 -20.5 -64t-63.5 -80.5t-107.5 -81.5t-153.5 -67q35 -4 64 -23.5t29 -58.5q0 -61 15 -144t36.5 -161t43 -138.5t32.5 -74.5q0 -8 -1 -16.5t-12 -8.5q-14 0 -60 49.5t-96.5 132.5t-89 189.5t-38.5 222.5z" />
    <glyph glyph-name="l" unicode="l" horiz-adv-x="462" 
d="M629 1212q-13 0 -39.5 -47t-61 -123.5t-74.5 -176l-79 -204l-76 -206l-65.5 -183.5t-45 -137t-16.5 -65q0 -35 11.5 -44.5t23.5 -9.5q41 0 83 42t78.5 93.5t63.5 93.5t35 42q12 0 12 -13q0 -4 -1 -9t-5 -13l-59.5 -90t-66.5 -87t-78 -65.5t-93 -25.5q-65 0 -98 42
t-33 101q0 37 30.5 131t78 222l105.5 278.5l114.5 300t103.5 287t72 239.5q10 -2 20.5 -2h18.5q0 -80 10 -175t35 -173z" />
    <glyph glyph-name="m" unicode="m" horiz-adv-x="1253" 
d="M857 678q0 -33 -8 -69t-18.5 -67.5l-19.5 -58t-11 -41.5h8q8 13 26.5 46.5l43 77.5t55.5 92.5t65.5 88t72.5 65.5t77 26q66 0 101.5 -52.5t35.5 -119.5q0 -31 -15.5 -81t-37 -109.5t-48 -122t-48 -120t-37 -103.5t-15.5 -73q0 -16 10.5 -20t24.5 -4q17 0 48.5 24.5
t86.5 87.5q11 11 13 11q6 0 6 -11q0 -12 -16.5 -37.5t-44 -52t-62.5 -46t-72 -19.5q-51 0 -84.5 40t-33.5 87q0 26 15 79.5t36.5 119t48.5 136l48.5 131l36.5 104.5t15 54q0 15 -6 39.5t-35 24.5q-30 0 -73 -49t-92.5 -125t-99.5 -168l-93 -178l-77 -157l-48 -101
q-10 -21 -20.5 -24t-30.5 -3h-86q-17 0 -20 7t-3 22q0 12 50.5 144l142.5 368q28 77 45.5 133.5t17.5 79.5q0 14 -6 32.5t-31 18.5q-28 0 -71 -49t-92.5 -125t-100.5 -168l-96 -178l-80 -157l-49 -101q-10 -21 -20.5 -24t-30.5 -3h-92q-17 0 -20 7t-3 22q0 8 19.5 60l50 127
l64.5 164l64.5 169t50 142.5t19.5 84.5q0 27 -16 34t-34.5 8t-35 1t-16.5 12q0 13 15.5 16t82.5 3q21 0 50.5 -1t56 -8t45 -22.5t18.5 -42.5q0 -28 -16.5 -82.5t-38 -114l-41 -112.5t-25.5 -82h9l26.5 51l48 90.5t62.5 107.5t71.5 102t75.5 77t74 31q63 0 100 -49.5
t37 -116.5z" />
    <glyph glyph-name="n" unicode="n" horiz-adv-x="841" 
d="M532 113q0 34 16 91.5t39.5 124t51.5 136.5l51.5 130t40 106.5t16.5 66.5q0 14 -9.5 30.5t-46.5 16.5q-30 0 -74.5 -49t-93.5 -127t-100 -171l-96 -180t-79 -159l-48 -102q-10 -21 -20.5 -24t-30.5 -3h-86q-17 0 -20 7t-3 22q0 8 19.5 60l50 127l64.5 164l64.5 169
t50 142.5t19.5 84.5q0 27 -16 34t-34.5 8t-35 1t-16.5 12q0 13 15.5 16t82.5 3q21 0 48.5 -1t52 -9.5t41 -23.5t16.5 -46q0 -45 -13.5 -91t-31 -89l-33.5 -81t-20 -67h8q8 13 26.5 47.5l43 78.5t55 93.5t65.5 89.5t74 66.5t78 26.5q78 0 119 -43t41 -111q0 -31 -16.5 -82
t-40 -111.5t-52.5 -126t-52.5 -126t-40 -109.5t-16.5 -78q0 -16 10.5 -20t24.5 -4q17 0 48.5 22.5t86.5 85.5q11 11 13 11q6 0 6 -11q0 -12 -16.5 -37.5t-44 -50t-62.5 -44t-72 -19.5q-51 0 -84.5 38t-33.5 85z" />
    <glyph glyph-name="o" unicode="o" horiz-adv-x="647" 
d="M61 207q0 37 12.5 99.5t38 135t63.5 147.5t90 135t118.5 99t148.5 39q66 0 116 -29.5t58 -113.5h-12q-17 61 -54.5 88t-80.5 27q-47 0 -94.5 -44.5t-90.5 -114t-78.5 -152.5t-62.5 -161.5t-42 -142t-15 -92.5q0 -18 4 -38.5t15 -37t30.5 -28t52.5 -11.5q70 0 127 49.5
t97 114t61.5 128t21.5 89.5q-20 37 -32.5 73t-12.5 83q0 31 12.5 56.5t30 46t39 31.5t39.5 11t30.5 -14t12.5 -45q0 -17 -12.5 -70t-36 -125.5t-59 -152.5t-85 -147.5t-110.5 -111.5t-135 -44q-45 0 -82 17t-64.5 48t-43 72t-15.5 86z" />
    <glyph glyph-name="p" unicode="p" horiz-adv-x="841" 
d="M513 102q0 35 18.5 91.5t45 122t58 134l58.5 128t45.5 105.5t18.5 65q0 14 -7.5 30.5t-48.5 16.5q-16 0 -51 -44t-80 -118t-98 -170l-107.5 -199.5l-106.5 -208l-96 -194.5l-76 -159l-46 -101q-10 -21 -20.5 -24t-30.5 -3h-86q-17 0 -20 7t-3 22q0 8 31.5 89l79 200.5
l102.5 261l102 269.5t79 224t32 129q0 27 -18.5 34t-40 8t-40 1t-18.5 12q0 13 24.5 16t92.5 3q20 0 48 -1t52.5 -9.5t41 -23.5t16.5 -46q0 -20 -13.5 -68.5t-34 -112l-45 -133l-47 -133l-40 -111.5t-21.5 -67h8q86 150 146.5 277t111.5 219t99.5 144.5t107.5 52.5
q76 0 102.5 -42t26.5 -108q0 -59 -33.5 -146t-74.5 -177.5l-75 -170t-34 -122.5q0 -39 33 -39q16 0 57 19.5t96 82.5q11 10 13 10q6 0 6 -10q0 -12 -19.5 -36.5t-50.5 -50t-68.5 -44t-74.5 -18.5q-51 0 -89 34.5t-38 81.5z" />
    <glyph glyph-name="q" unicode="q" horiz-adv-x="776" 
d="M253 -418q0 6 16.5 50l44 114l63.5 159l75 186l79 196.5l73 187.5q-37 -74 -84 -159t-97.5 -158.5t-100.5 -121.5t-95 -48q-90 0 -125 46t-35 138q0 37 13.5 101.5t43 140t73.5 152.5t105.5 139.5t140.5 102.5t177 40h31.5t40 -1t37 -2t26.5 -1q23 2 38 3t28 1
q28 0 37.5 -6t9.5 -19q0 -20 -29 -105t-74 -206l-100 -262l-105.5 -273.5l-90.5 -239t-56 -157.5q-6 -18 -20.5 -22t-30.5 -4h-86q-16 0 -19.5 7t-3.5 21zM239 18q33 0 81 55.5t101.5 139.5t104.5 182.5l92 184.5t66.5 145t25.5 68q0 22 -27.5 27t-50.5 5q-53 0 -107.5 -46
t-103.5 -117.5t-93 -157.5t-75.5 -168t-50 -148.5t-18.5 -97.5q0 -33 12 -52.5t43 -19.5z" />
    <glyph glyph-name="r" unicode="r" horiz-adv-x="606" 
d="M73 131q0 33 14.5 84t37 111.5l48 125l48 124t37 110.5t14.5 84q0 43 -26 50t-58 7q-17 0 -17 11q0 12 11 12h182q35 0 52 -21.5t17 -48.5q0 -18 -7 -48t-18 -65.5t-24.5 -73.5t-23.5 -71q24 33 55 88.5t67.5 108.5t79.5 92t93 39q28 0 42.5 -27.5t14.5 -64.5
q0 -27 -7 -53.5t-19.5 -49t-32 -37t-43.5 -14.5q-31 0 -44.5 21.5t-13.5 46.5q0 35 17.5 68.5l33.5 64.5q-16 0 -53 -45t-82 -115t-93 -153.5t-88 -163.5t-65.5 -145.5t-25.5 -96.5q0 -41 21.5 -52t37.5 -11q41 0 74 19t55.5 41.5t38 42t21.5 19.5t6 -8q-29 -69 -93.5 -106
t-146.5 -37q-55 0 -96 41t-41 96z" />
    <glyph glyph-name="s" unicode="s" horiz-adv-x="622" 
d="M487 987q26 0 44.5 -15.5t18.5 -41.5q0 -39 -16.5 -77t-38.5 -77q33 -31 55.5 -58.5t36.5 -58t19 -68.5t5 -89q0 -84 -27.5 -175t-79.5 -167t-127 -126t-169 -50q-33 0 -63.5 8t-55 27.5t-39 52t-14.5 84.5q0 32 10 73t31.5 77t54.5 59.5t76 23.5q47 0 68.5 -24.5
t21.5 -57.5q0 -37 -25.5 -69.5t-66.5 -32.5q-23 0 -39 15.5t-16 47.5q0 15 2 27t12 33q-27 0 -44 -22.5t-28.5 -52.5t-16.5 -59.5t-5 -43.5q0 -76 35.5 -104t83.5 -28q45 0 88 33t78.5 87.5t65.5 121t50.5 135t31.5 132t11 108.5q0 41 -14 65.5t-35 47.5
q-59 -64 -134 -126.5t-153 -95.5q-6 -2 -16 -2q-16 0 -16 8q0 9 12 13q43 22 93 59t91 73t68.5 64.5t27.5 36.5q-16 17 -25 45.5t-9 59.5q0 41 18.5 72.5t63.5 31.5z" />
    <glyph glyph-name="t" unicode="t" horiz-adv-x="487" 
d="M603 827q0 -20 -32 -20h-121q-29 -68 -58.5 -144.5l-57.5 -153.5l-52.5 -148.5l-43 -129t-28.5 -96.5t-10 -49q0 -41 19.5 -50t31.5 -9q41 0 81 41t74 91t58.5 91t32.5 41q12 0 12 -12q0 -5 -1 -10t-5 -13l-59.5 -90t-66.5 -87t-78 -65.5t-93 -25.5q-65 0 -98 42t-33 101
q0 33 18.5 99.5t47 157.5t66.5 198.5l79 220.5h-109q-34 0 -34 20q0 23 32 23h125l102 291.5t79 253.5q10 -2 20 -2h18q7 -109 25 -195t41 -127l-4 -31q-19 -4 -48.5 -56t-64.5 -134h101q34 0 34 -23z" />
    <glyph glyph-name="u" unicode="u" horiz-adv-x="802" 
d="M168 831q0 13 15 16t83 3q20 0 49 -1t55.5 -9.5t45 -23.5t18.5 -46q0 -29 -19.5 -88t-48 -133t-63.5 -155l-63.5 -149.5l-48 -118.5t-19.5 -63q0 -14 5 -30.5t30 -16.5q30 0 79.5 48.5t105.5 124t114.5 166.5t107.5 179.5t83 161t40 109.5q4 18 17.5 22t33.5 4h90
q17 0 20 -7t3 -21q0 -8 -20.5 -64.5t-52.5 -137.5l-68.5 -173l-68.5 -172l-52.5 -135t-20.5 -64q0 -16 10.5 -24t24.5 -8q25 0 56.5 24.5t86.5 87.5q11 10 13 10q6 0 6 -10q0 -12 -17.5 -36.5t-45 -50t-63.5 -44t-73 -18.5q-51 0 -87 39t-36 86q0 28 12.5 73t31 95.5
t40 101.5l39.5 94h-10q-8 -12 -31.5 -53t-57.5 -94.5l-75 -112.5t-83 -108.5t-84 -82t-77 -32.5q-65 0 -103 43t-38 110q0 27 15.5 79.5t39 117t51 132l51 128t39 105.5t15.5 63q0 27 -15.5 34t-35 9t-34.5 3t-15 13z" />
    <glyph glyph-name="v" unicode="v" horiz-adv-x="716" 
d="M726 791q-10 -48 -35.5 -79.5t-68.5 -31.5q-37 0 -54.5 20.5t-17.5 49.5q0 36 27 71t74 35q51 0 88 -29.5t37 -85.5q0 -94 -50.5 -205.5t-124 -216t-157.5 -190.5t-152 -129h-96q-10 0 -14 8t-4 37q16 154 25 311.5t9 331.5q0 70 -16 95.5t-34.5 32.5t-35 6t-16.5 16
q0 10 15.5 11t43.5 1q47 0 84 -2t61.5 -16.5t38 -45t13.5 -86.5q0 -79 -4 -166.5t-10 -171t-15.5 -161.5t-19.5 -140q8 0 44 32t83 84t99 121t97 143.5t74 148.5t29 139q0 19 -4 32t-13 30z" />
    <glyph glyph-name="w" unicode="w" horiz-adv-x="1130" 
d="M1140 791q-10 -48 -35.5 -79.5t-68.5 -31.5q-37 0 -54.5 20.5t-17.5 49.5q0 36 26.5 71t73.5 35q52 0 88.5 -29.5t36.5 -85.5q0 -94 -50 -205.5t-124 -216t-157.5 -190.5t-151.5 -129h-96q-11 0 -15 8t-4 37q11 115 20 231.5t13 243.5l-88 -157.5t-95 -158.5t-91 -130.5
t-74 -73.5h-86q-10 0 -14.5 8t-4.5 37q17 154 29 311.5t12 331.5q0 70 -16 95.5t-34.5 32.5t-35 6t-16.5 16q0 10 15.5 11t43.5 1q47 0 84 -2t61.5 -16.5t38 -45t13.5 -86.5q0 -79 -4 -162t-11.5 -164t-16.5 -155t-19 -135q10 0 44 46t80 116.5t95 156.5l90 164q2 29 2 59.5
v61.5q0 70 -16.5 95.5t-35 32.5t-34.5 6t-16 16q0 10 15 11t44 1q47 0 84 -2t61.5 -16.5t38 -45t13.5 -86.5q0 -79 -4 -166.5t-10.5 -171t-15.5 -161.5t-19 -140q8 0 43.5 32t83 84t99.5 121t97 143.5t74 148.5t29 139q0 19 -4.5 32t-12.5 30z" />
    <glyph glyph-name="x" unicode="x" horiz-adv-x="681" 
d="M742 782q-55 -41 -118.5 -104.5t-129.5 -140.5q29 -86 54.5 -174.5t44 -162t29.5 -121.5t11 -52q0 -13 -8 -20t-19 -10t-21.5 -3h-14.5q-43 0 -63.5 4t-30.5 22.5t-17.5 57.5t-25.5 110l-53 203q-91 -115 -175 -232.5l-155 -221.5q-21 -29 -42.5 -37.5t-47.5 -8.5
q-29 0 -29 23q0 10 4 14t8 15l162 196.5l168 196.5l92 106q-18 66 -39.5 132.5t-43 118.5t-41 85t-34.5 33q-28 2 -44.5 3t-16.5 20q0 10 15.5 13t54.5 3h102q19 0 39 -21.5t40.5 -58.5t41 -86l41.5 -104q98 116 177 190t140 74q11 0 18 -6.5t7 -16.5q0 -12 -9.5 -18
t-22.5 -9t-26.5 -4.5t-21.5 -7.5z" />
    <glyph glyph-name="y" unicode="y" horiz-adv-x="780" 
d="M324 -297q32 68 64 151t62.5 174l62.5 186l65 185h-11q-43 -77 -89 -151t-94 -131.5t-95 -92t-90 -34.5q-66 0 -104 43t-38 110q0 27 15.5 80t38 116.5t50 133.5l50.5 130.5t38 105.5t15 63q0 27 -15 34t-34.5 9t-35 3t-15.5 13q0 13 15.5 16t82.5 3q21 0 49.5 -1
t55 -9.5t45 -23.5t18.5 -46q0 -29 -19.5 -88t-48 -134l-61.5 -156l-61.5 -150.5l-48 -119.5t-19.5 -63q0 -14 5 -30.5t30 -16.5q49 0 101 53.5t105.5 134.5t105.5 175l102 178l56 164t56 143q0 4 4 13.5t19 9.5q14 0 27.5 -13.5t24.5 -32t19.5 -37t14.5 -26.5v-29
q0 -8 -18.5 -65l-48 -141l-63.5 -182.5l-68 -188.5l-60.5 -159.5t-38.5 -94.5q-41 -82 -83 -155.5t-99.5 -129t-135 -88.5t-190.5 -33h-29q-10 0 -10 13q0 10 10 10q33 0 77 7t88 25.5t84 52.5t67 87z" />
    <glyph glyph-name="z" unicode="z" horiz-adv-x="798" 
d="M22 47q0 23 17.5 51.5t44 55t56 44t54.5 17.5q8 0 15.5 -1t17.5 -3l70.5 66.5l86.5 80.5q-45 2 -87 16.5t-73.5 43t-51 71.5t-19.5 103q0 51 22.5 99t60.5 85t89 58.5t107 21.5q98 0 196.5 -14.5t212.5 -14.5q10 0 20.5 -3t10.5 -13q0 -14 -28.5 -42t-106.5 -91
l-90.5 -94.5l-102.5 -104.5q2 -6 3 -11t1 -11q0 -35 -27.5 -65t-99.5 -34l-161 -157q36 -13 79 -32t91.5 -37.5t100.5 -32t107 -13.5q25 0 45.5 17.5t38 39t30.5 40t24 18.5q4 0 10 -4t6 -15q0 -4 -21.5 -34.5t-58.5 -67.5t-88 -66.5t-110 -29.5q-39 0 -93.5 19.5t-108.5 43
l-102.5 43t-72.5 19.5q-31 0 -54.5 -31t-42.5 -51q-12 0 -15 5t-3 15zM466 743q-82 0 -138 -14t-91 -36.5t-50 -52.5t-15 -62q0 -37 17 -72t45 -63.5t63.5 -47t74.5 -18.5q6 0 11.5 1t11.5 1q-4 16 -5 28.5t-1 18.5q0 53 28.5 76.5t63.5 23.5q33 0 53 -24l78 77.5t64.5 67.5
t44 51.5t16.5 26.5q-13 -2 -24 -2h-21q-60 0 -108 10t-118 10z" />
    <glyph glyph-name="braceleft" unicode="{" horiz-adv-x="2437" 
d="M1520 41q-7 -21 -33.5 -31t-52.5 -10q-23 0 -38.5 6t-15.5 23q0 14 25 78.5l64.5 162l92 220l105.5 252.5l105.5 259t92.5 240t64.5 194t24.5 124q0 47 -21.5 80.5t-72.5 33.5q-113 0 -223.5 -135t-223.5 -393q-8 -109 -48 -242t-109.5 -269t-169 -265t-224.5 -229.5
t-275.5 -162t-322.5 -61.5q-35 0 -72.5 9t-70.5 28.5t-53.5 49.5t-20.5 69q0 32 14.5 61t37 49.5t50 31.5t52.5 11q32 0 55 -20.5t23 -67.5t-29 -97t-66 -73q2 -4 14.5 -8t26 -7t25.5 -5t14 -2q166 0 301 75.5t241.5 196.5t185.5 269.5t130.5 293t76 269.5t24.5 198
q0 88 -22.5 163t-64.5 130t-102.5 87t-136.5 32t-174 -37t-191 -111q113 -12 194 -58t133 -115.5t77 -157.5t25 -183q0 -77 -26 -158t-74 -146.5t-117.5 -106.5t-157.5 -41q-92 0 -160 42t-113 118q-98 4 -165.5 30.5t-109.5 69.5t-61.5 98t-19.5 117q0 86 30.5 174
t94 159.5t158 117t221.5 45.5h24q88 86 197 140t231 54q123 0 215.5 -36t153.5 -100.5t93 -152.5t38 -190q68 139 125 233.5t112.5 151.5t111 81.5t120.5 24.5q45 0 76 -19.5t51.5 -50t29.5 -67.5t9 -74q0 -26 -9 -70t-23.5 -93.5l-30 -100.5l-29.5 -94q82 154 148.5 249
t124 148.5t108.5 72.5t100 19q45 0 79 -17t56.5 -46t33.5 -64.5t11 -72.5q0 -84 -42 -219.5t-106.5 -295l-138 -327.5l-138 -316.5t-106.5 -264t-42 -169.5q0 -47 8 -74.5t59 -27.5q62 0 113 46t90 102.5t64.5 102.5t36.5 46q12 0 14 -5t2 -17q0 -21 -30.5 -73t-78 -107.5
t-103.5 -97.5t-108 -42q-77 0 -123 44t-46 173q0 64 23.5 159t63 207.5t89 237.5l101.5 249l102.5 242l90 215t63.5 170t24 107q0 43 -27 67.5t-78 24.5q-57 0 -122.5 -56t-131 -148t-129 -209t-115.5 -236l-108 -250l-106.5 -247.5l-93.5 -226t-68 -185.5zM924 1014
q0 94 -27 176t-80 143.5t-135 99t-193 42.5q-86 -84 -144 -202t-58 -276q0 -55 12 -124.5t47 -131.5q60 0 106 23.5t81.5 57.5t61.5 73t43 72.5l28.5 56.5t17.5 23q10 0 16.5 -1.5t6.5 -11.5q0 -18 -25 -70.5t-69 -107.5t-106.5 -100t-137.5 -51q37 -54 94 -87.5t141 -33.5
q80 0 139.5 44t99.5 108.5t60.5 140t20.5 137.5zM-2 1018q0 -51 15.5 -98.5t50 -84t91 -61t138.5 -31.5q-27 58 -39 128.5t-12 152.5q0 104 54 225t150 226q-112 -5 -196 -47t-140.5 -108.5t-84 -146t-27.5 -155.5z" />
    <glyph glyph-name="bar" unicode="|" horiz-adv-x="1380" 
d="M752 653q0 37 12 99.5t37.5 135.5t63.5 147.5t90.5 135t119 99.5t148.5 39q65 0 115 -30t59 -114h-13q-16 62 -54 88.5t-81 26.5q-47 0 -94 -44t-90 -113.5t-79 -152.5t-62.5 -162t-42 -142.5t-15.5 -92.5q0 -18 4 -38.5t15.5 -37t31 -27.5t52.5 -11q69 0 126.5 49
t97.5 113.5t61.5 128t21.5 90.5q-33 26 -39 67t-6 88q0 31 12 56.5t29.5 46t39 32t40.5 11.5q18 0 30.5 -14.5t12.5 -45.5q0 -14 -10.5 -61t-30.5 -113q75 80 119 170t44 189q0 84 -29.5 149.5t-82.5 111.5t-125 69.5t-156 23.5q-180 0 -336.5 -96.5t-273.5 -254
t-183.5 -360t-66.5 -417.5q0 -111 24.5 -204t80 -162t146.5 -106.5t226 -37.5q150 0 246 45t155.5 100t91.5 100t52 45q10 0 12 -6t2 -10q0 -10 -25.5 -46t-70.5 -83t-108.5 -98.5t-139 -94.5t-160.5 -71.5t-174 -28.5q-116 0 -214.5 42t-169 119t-109.5 184.5t-39 238.5
q0 143 47 294.5t129 296t191.5 273.5t236.5 225.5t263.5 152.5t269.5 56q190 0 294.5 -103.5t104.5 -289.5q0 -127 -83 -257t-218 -245q-27 -67 -62.5 -137t-82 -126t-102.5 -92t-122 -36q-45 0 -81.5 17.5t-64.5 48t-43 71.5t-15 86z" />
    <glyph glyph-name="braceright" unicode="}" horiz-adv-x="2379" 
d="M1642 1300q-33 0 -59.5 16.5t-45 43t-28 60.5t-9.5 71t10.5 70.5t34 61.5t58.5 44t84 16q74 0 127 -45t88 -111.5t52 -141t20 -136.5q51 111 102 185.5t102.5 121t104.5 66.5t110 20q45 0 76 -19t51.5 -50t29.5 -68t9 -73q0 -84 -38 -216.5t-95 -287t-123.5 -318.5
l-124 -311t-95.5 -266t-38 -183q0 -47 22.5 -74.5t73.5 -27.5q66 0 114 46t82 102.5t54.5 102.5t30.5 46q12 0 14 -5t2 -17q0 -21 -22.5 -73t-62 -107.5t-94 -97.5t-118.5 -42q-77 0 -120 52t-43 124q0 39 21.5 117t56 179l78.5 220l91.5 243l91.5 246t78.5 228.5t56 191.5
t21.5 134q0 20 -5 43.5t-17.5 43t-30.5 32t-43 12.5q-47 0 -98.5 -22.5t-103.5 -75t-104 -136.5t-102 -205q-12 -163 -61 -328t-130 -318.5t-191.5 -287t-247 -231.5t-294 -154.5t-333.5 -56.5q-145 0 -263 49.5t-202 137.5t-129 207.5t-45 261.5q0 151 58.5 302.5
t163 273.5t247.5 198t313 76q92 0 174 -19.5t146.5 -65t106.5 -116t53 -174.5q81 -4 117 -24.5t36 -39.5q0 -4 -4 -10t-8 -6q-8 0 -17.5 5t-23.5 11t-36.5 11.5t-59.5 7.5v-21q0 -110 -43 -224t-115 -206t-166 -151.5t-199 -59.5q-41 0 -77.5 12.5t-65.5 37t-46 62.5t-17 87
q0 119 65.5 213t166.5 158.5t223 99.5t233 37q0 12 -2 24.5l-4 24.5q-7 57 -42.5 108.5t-91 89t-128 60t-152.5 22.5q-150 0 -288 -65.5t-244.5 -174t-170 -249.5t-63.5 -293q0 -129 37 -243.5t108.5 -200.5t175 -137.5t238.5 -51.5q152 0 283 55.5t241.5 147.5t201.5 213
t161.5 254t123 268t87.5 256t51 219.5t16 155.5q0 43 -6 90t-24.5 87t-51 65.5t-84.5 25.5q-38 0 -65 -18.5t-31 -67.5q12 0 22.5 3t22.5 3q27 0 47.5 -14t34.5 -36.5t20.5 -50.5t6.5 -52q0 -35 -21.5 -69t-64.5 -34zM827 221q80 0 163.5 55.5t152.5 143.5t113 198.5
t44 223.5q-117 -2 -232.5 -37t-209 -97.5t-152 -150.5t-58.5 -199q0 -34 16.5 -60t43.5 -42t57.5 -25.5t61.5 -9.5z" />
    <glyph glyph-name="asciitilde" unicode="~" horiz-adv-x="755" 
d="M450 825q-47 -116 -93 -242l-85 -233h8q14 21 38.5 64t57.5 96t72 109.5t81 102.5t86 75.5t85 29.5q71 0 95 -41t24 -108q0 -27 -17.5 -62.5t-53.5 -73.5t-91.5 -74t-132.5 -60l-25 10q109 53 154 119.5t45 117.5q0 35 -16.5 57.5t-45.5 22.5q-41 0 -86 -40t-91 -103.5
t-91 -140t-83 -150.5l-67.5 -134.5t-46.5 -92.5q-6 -11 -9 -25t-7 -27.5t-9 -22.5t-16 -9q-10 0 -20 17.5t-19.5 44t-14.5 55t-5 53.5q0 18 1 32.5t3 26.5t7 26.5l12 35.5q20 63 49.5 143l63.5 171l71 188.5l74 195.5l122.5 326.5t85.5 279.5q11 -2 21 -2h18q0 -65 6.5 -140
t20.5 -143q51 78 118.5 159t146.5 146.5t167 107.5t184 42q86 0 149.5 -26.5t103.5 -71.5t59.5 -104.5t19.5 -122.5q0 -91 -31.5 -183t-85 -167.5t-123 -123t-147.5 -47.5q-53 0 -92 17.5t-64.5 46t-38 64.5t-12.5 71q0 74 36 140.5t81 115.5t88 77.5t60 28.5q4 0 11 -6
t7 -10q0 -2 -10 -12q-43 -31 -86 -66t-78 -74.5t-57.5 -89t-22.5 -106.5q0 -27 9 -55.5t29.5 -53t52.5 -40t77 -15.5q68 0 132.5 44t114.5 112.5t81.5 154.5t31.5 170q0 52 -17 101t-53 87t-92.5 60.5t-136.5 22.5q-123 0 -220 -50.5t-175 -131t-141.5 -182t-116.5 -202.5
q-29 -53 -63.5 -131.5t-71.5 -171.5zM397 354q0 23 8 28t14 5q53 0 96 -15.5t52 -68.5q8 -61 25.5 -145t35.5 -162t36.5 -137.5t29.5 -73.5q0 -8 -1 -16.5t-12 -8.5q-14 0 -60 55.5t-96.5 141.5t-89 191.5t-38.5 205.5z" />
    <glyph glyph-name="dieresis" unicode="&#xa8;" horiz-adv-x="1024" 
 />
    <glyph glyph-name="copyright" unicode="&#xa9;" horiz-adv-x="750" 
 />
    <glyph glyph-name="registered" unicode="&#xae;" horiz-adv-x="750" 
 />
    <glyph glyph-name="acute" unicode="&#xb4;" horiz-adv-x="1024" 
 />
    <glyph glyph-name="paragraph" unicode="&#xb6;" horiz-adv-x="1024" 
d="M929 1435v-70h-127v-1365h-82v1365h-166v-1365h-84v738q-174 8 -275.5 102.5t-101.5 245.5q0 157 107.5 253t285.5 96h443z" />
    <glyph glyph-name="onequarter" unicode="&#xbc;" horiz-adv-x="1950" 
 />
    <glyph glyph-name="onehalf" unicode="&#xbd;" horiz-adv-x="1950" 
 />
    <glyph glyph-name="threequarters" unicode="&#xbe;" horiz-adv-x="1950" 
 />
    <glyph glyph-name="Agrave" unicode="&#xc0;" horiz-adv-x="2209" 
d="M2476 1071q0 -33 -20.5 -65.5t-53.5 -58t-72 -42t-78 -16.5h-96l-138.5 -330l-123.5 -304t-90 -243.5t-35 -148.5q0 -35 21.5 -72t64.5 -37q37 0 78 28t85 76t89 112.5t90 138.5q6 14 18 14q15 0 15 -21q0 -8 -16.5 -38.5t-44 -73.5t-64.5 -91.5t-77 -89t-81 -67.5
t-76 -27q-55 0 -96 32t-41 118q0 63 30 174t78 248t109.5 292.5l124.5 309.5q-76 0 -150.5 1t-146.5 1q-108 -264 -229 -446.5t-253 -296t-274.5 -165t-291.5 -51.5q-156 0 -280 52.5t-210 141.5t-132 209t-46 253q0 162 37 285.5t98.5 214t139 151.5t158.5 98t159 52.5
t139 15.5q70 0 143.5 -19.5t137 -59.5t108.5 -103.5t58 -151.5q28 4 56 6t54 2q139 0 241.5 -1t178.5 -3l147 355q39 92 85.5 174t97.5 143t105.5 96t109.5 35q24 0 47.5 -6t44 -22.5t33 -43t12.5 -69.5q0 -39 -17.5 -106.5t-48 -157t-71.5 -193.5l-88 -217q53 0 119.5 1
t128.5 7zM571 578q0 104 59.5 188t151.5 145.5t204.5 100.5t221.5 55q-29 133 -131.5 215t-265.5 82q-168 0 -297 -66.5t-218.5 -176t-135.5 -251t-46 -288.5q0 -150 51.5 -264.5t139.5 -191.5t206.5 -116t253.5 -39q162 0 292 65.5t239.5 186.5t205 291t189.5 379
q-131 2 -232.5 3t-150.5 1h-34.5t-36.5 -2q-19 -125 -70 -220t-118.5 -158.5t-142.5 -95.5t-141 -32q-81 0 -137.5 51.5t-56.5 137.5zM1851 1073q55 -2 97 -4t77 -3t64.5 -2t60.5 -1l99 238.5l84 204.5t57.5 153.5t21.5 87.5q0 51 -28.5 70.5t-73.5 19.5t-90.5 -39
t-88.5 -102.5t-82.5 -144.5t-75.5 -166t-67 -166.5zM765 428q80 0 153 43t132.5 110.5t101 150.5t58.5 163q-94 -4 -199.5 -20.5t-194.5 -52.5t-147.5 -94t-58.5 -146q0 -64 41 -109t114 -45zM2424 1982q0 -16 -26 -16q-6 0 -51.5 12.5t-97.5 35t-94 54t-42 72.5
q0 27 17.5 43.5t37.5 16.5q33 0 51.5 -16.5t41.5 -57.5q34 -60 63 -84.5t70 -36.5q30 -10 30 -23z" />
    <glyph glyph-name="Aacute" unicode="&#xc1;" horiz-adv-x="2209" 
d="M2476 1071q0 -33 -20.5 -65.5t-53.5 -58t-72 -42t-78 -16.5h-96l-138.5 -330l-123.5 -304t-90 -243.5t-35 -148.5q0 -35 21.5 -72t64.5 -37q37 0 78 28t85 76t89 112.5t90 138.5q6 14 18 14q15 0 15 -21q0 -8 -16.5 -38.5t-44 -73.5t-64.5 -91.5t-77 -89t-81 -67.5
t-76 -27q-55 0 -96 32t-41 118q0 63 30 174t78 248t109.5 292.5l124.5 309.5q-76 0 -150.5 1t-146.5 1q-108 -264 -229 -446.5t-253 -296t-274.5 -165t-291.5 -51.5q-156 0 -280 52.5t-210 141.5t-132 209t-46 253q0 162 37 285.5t98.5 214t139 151.5t158.5 98t159 52.5
t139 15.5q70 0 143.5 -19.5t137 -59.5t108.5 -103.5t58 -151.5q28 4 56 6t54 2q139 0 241.5 -1t178.5 -3l147 355q39 92 85.5 174t97.5 143t105.5 96t109.5 35q24 0 47.5 -6t44 -22.5t33 -43t12.5 -69.5q0 -39 -17.5 -106.5t-48 -157t-71.5 -193.5l-88 -217q53 0 119.5 1
t128.5 7zM571 578q0 104 59.5 188t151.5 145.5t204.5 100.5t221.5 55q-29 133 -131.5 215t-265.5 82q-168 0 -297 -66.5t-218.5 -176t-135.5 -251t-46 -288.5q0 -150 51.5 -264.5t139.5 -191.5t206.5 -116t253.5 -39q162 0 292 65.5t239.5 186.5t205 291t189.5 379
q-131 2 -232.5 3t-150.5 1h-34.5t-36.5 -2q-19 -125 -70 -220t-118.5 -158.5t-142.5 -95.5t-141 -32q-81 0 -137.5 51.5t-56.5 137.5zM1851 1073q55 -2 97 -4t77 -3t64.5 -2t60.5 -1l99 238.5l84 204.5t57.5 153.5t21.5 87.5q0 51 -28.5 70.5t-73.5 19.5t-90.5 -39
t-88.5 -102.5t-82.5 -144.5t-75.5 -166t-67 -166.5zM765 428q80 0 153 43t132.5 110.5t101 150.5t58.5 163q-94 -4 -199.5 -20.5t-194.5 -52.5t-147.5 -94t-58.5 -146q0 -64 41 -109t114 -45zM2641 2148q0 -41 -42 -72.5t-94 -54t-97 -35t-51 -12.5q-27 0 -27 17q0 12 31 22
q41 12 69.5 37t63.5 84q23 41 41 57.5t51 16.5q21 0 38 -16.5t17 -43.5z" />
    <glyph glyph-name="uni1EA2" unicode="&#x1ea2;" horiz-adv-x="2209" 
d="M2476 1071q0 -33 -20.5 -65.5t-53.5 -58t-72 -42t-78 -16.5h-96l-138.5 -330l-123.5 -304t-90 -243.5t-35 -148.5q0 -35 21.5 -72t64.5 -37q37 0 78 28t85 76t89 112.5t90 138.5q6 14 18 14q15 0 15 -21q0 -8 -16.5 -38.5t-44 -73.5t-64.5 -91.5t-77 -89t-81 -67.5
t-76 -27q-55 0 -96 32t-41 118q0 63 30 174t78 248t109.5 292.5l124.5 309.5q-76 0 -150.5 1t-146.5 1q-108 -264 -229 -446.5t-253 -296t-274.5 -165t-291.5 -51.5q-156 0 -280 52.5t-210 141.5t-132 209t-46 253q0 162 37 285.5t98.5 214t139 151.5t158.5 98t159 52.5
t139 15.5q70 0 143.5 -19.5t137 -59.5t108.5 -103.5t58 -151.5q28 4 56 6t54 2q139 0 241.5 -1t178.5 -3l147 355q39 92 85.5 174t97.5 143t105.5 96t109.5 35q24 0 47.5 -6t44 -22.5t33 -43t12.5 -69.5q0 -39 -17.5 -106.5t-48 -157t-71.5 -193.5l-88 -217q53 0 119.5 1
t128.5 7zM571 578q0 104 59.5 188t151.5 145.5t204.5 100.5t221.5 55q-29 133 -131.5 215t-265.5 82q-168 0 -297 -66.5t-218.5 -176t-135.5 -251t-46 -288.5q0 -150 51.5 -264.5t139.5 -191.5t206.5 -116t253.5 -39q162 0 292 65.5t239.5 186.5t205 291t189.5 379
q-131 2 -232.5 3t-150.5 1h-34.5t-36.5 -2q-19 -125 -70 -220t-118.5 -158.5t-142.5 -95.5t-141 -32q-81 0 -137.5 51.5t-56.5 137.5zM1851 1073q55 -2 97 -4t77 -3t64.5 -2t60.5 -1l99 238.5l84 204.5t57.5 153.5t21.5 87.5q0 51 -28.5 70.5t-73.5 19.5t-90.5 -39
t-88.5 -102.5t-82.5 -144.5t-75.5 -166t-67 -166.5zM765 428q80 0 153 43t132.5 110.5t101 150.5t58.5 163q-94 -4 -199.5 -20.5t-194.5 -52.5t-147.5 -94t-58.5 -146q0 -64 41 -109t114 -45zM2596 2198q1 6 0 11q-3 13 -14.5 19.5t-26 10t-29.5 5.5q-31 -2 -54 -4t-45 -16
q26 -3 32 -12t6 -17q-1 -9 -11.5 -18.5t-35.5 -7.5q-28 2 -35.5 12t-2.5 21q1 12 10 22.5t29.5 21t51 16t63.5 2.5q30 -3 53 -11.5t40 -21t24.5 -28.5t5.5 -32q-5 -38 -50 -68q-15 -13 -33 -23q-30 -18 -62 -30.5t-59 -26t-39 -28.5q-11 -12 7 -27q2 -2 9 -5.5t10 -5.5
q8 -7 1 -15q-3 -3 -22 1.5t-35 18.5q-20 16 -29 48t10 55q13 15 46.5 32.5t70.5 35t71 35.5q29 16 43 30z" />
    <glyph glyph-name="Atilde" unicode="&#xc3;" horiz-adv-x="2209" 
d="M2476 1071q0 -33 -20.5 -65.5t-53.5 -58t-72 -42t-78 -16.5h-96l-138.5 -330l-123.5 -304t-90 -243.5t-35 -148.5q0 -35 21.5 -72t64.5 -37q37 0 78 28t85 76t89 112.5t90 138.5q6 14 18 14q15 0 15 -21q0 -8 -16.5 -38.5t-44 -73.5t-64.5 -91.5t-77 -89t-81 -67.5
t-76 -27q-55 0 -96 32t-41 118q0 63 30 174t78 248t109.5 292.5l124.5 309.5q-76 0 -150.5 1t-146.5 1q-108 -264 -229 -446.5t-253 -296t-274.5 -165t-291.5 -51.5q-156 0 -280 52.5t-210 141.5t-132 209t-46 253q0 162 37 285.5t98.5 214t139 151.5t158.5 98t159 52.5
t139 15.5q70 0 143.5 -19.5t137 -59.5t108.5 -103.5t58 -151.5q28 4 56 6t54 2q139 0 241.5 -1t178.5 -3l147 355q39 92 85.5 174t97.5 143t105.5 96t109.5 35q24 0 47.5 -6t44 -22.5t33 -43t12.5 -69.5q0 -39 -17.5 -106.5t-48 -157t-71.5 -193.5l-88 -217q53 0 119.5 1
t128.5 7zM571 578q0 104 59.5 188t151.5 145.5t204.5 100.5t221.5 55q-29 133 -131.5 215t-265.5 82q-168 0 -297 -66.5t-218.5 -176t-135.5 -251t-46 -288.5q0 -150 51.5 -264.5t139.5 -191.5t206.5 -116t253.5 -39q162 0 292 65.5t239.5 186.5t205 291t189.5 379
q-131 2 -232.5 3t-150.5 1h-34.5t-36.5 -2q-19 -125 -70 -220t-118.5 -158.5t-142.5 -95.5t-141 -32q-81 0 -137.5 51.5t-56.5 137.5zM1851 1073q55 -2 97 -4t77 -3t64.5 -2t60.5 -1l99 238.5l84 204.5t57.5 153.5t21.5 87.5q0 51 -28.5 70.5t-73.5 19.5t-90.5 -39
t-88.5 -102.5t-82.5 -144.5t-75.5 -166t-67 -166.5zM765 428q80 0 153 43t132.5 110.5t101 150.5t58.5 163q-94 -4 -199.5 -20.5t-194.5 -52.5t-147.5 -94t-58.5 -146q0 -64 41 -109t114 -45zM2592 2111q0 -63 -31.5 -107t-93.5 -44q-37 0 -74.5 14.5t-72.5 32.5t-66.5 32.5
t-54.5 14.5q-18 0 -18 -26q0 -5 2 -13t2 -12q0 -12 -13 -12q-4 0 -14 20.5t-10 44.5q0 29 21.5 60.5t56.5 31.5q22 0 62 -16t83 -36.5t83 -37t65 -16.5q18 0 32.5 16.5t14.5 50.5q0 27 10 27q6 0 11 -8t5 -17z" />
    <glyph glyph-name="uni1EA0" unicode="&#x1ea0;" horiz-adv-x="2209" 
d="M2476 1071q0 -33 -20.5 -65.5t-53.5 -58t-72 -42t-78 -16.5h-96l-138.5 -330l-123.5 -304t-90 -243.5t-35 -148.5q0 -35 21.5 -72t64.5 -37q37 0 78 28t85 76t89 112.5t90 138.5q6 14 18 14q15 0 15 -21q0 -8 -16.5 -38.5t-44 -73.5t-64.5 -91.5t-77 -89t-81 -67.5
t-76 -27q-55 0 -96 32t-41 118q0 63 30 174t78 248t109.5 292.5l124.5 309.5q-76 0 -150.5 1t-146.5 1q-108 -264 -229 -446.5t-253 -296t-274.5 -165t-291.5 -51.5q-156 0 -280 52.5t-210 141.5t-132 209t-46 253q0 162 37 285.5t98.5 214t139 151.5t158.5 98t159 52.5
t139 15.5q70 0 143.5 -19.5t137 -59.5t108.5 -103.5t58 -151.5q28 4 56 6t54 2q139 0 241.5 -1t178.5 -3l147 355q39 92 85.5 174t97.5 143t105.5 96t109.5 35q24 0 47.5 -6t44 -22.5t33 -43t12.5 -69.5q0 -39 -17.5 -106.5t-48 -157t-71.5 -193.5l-88 -217q53 0 119.5 1
t128.5 7zM571 578q0 104 59.5 188t151.5 145.5t204.5 100.5t221.5 55q-29 133 -131.5 215t-265.5 82q-168 0 -297 -66.5t-218.5 -176t-135.5 -251t-46 -288.5q0 -150 51.5 -264.5t139.5 -191.5t206.5 -116t253.5 -39q162 0 292 65.5t239.5 186.5t205 291t189.5 379
q-131 2 -232.5 3t-150.5 1h-34.5t-36.5 -2q-19 -125 -70 -220t-118.5 -158.5t-142.5 -95.5t-141 -32q-81 0 -137.5 51.5t-56.5 137.5zM1851 1073q55 -2 97 -4t77 -3t64.5 -2t60.5 -1l99 238.5l84 204.5t57.5 153.5t21.5 87.5q0 51 -28.5 70.5t-73.5 19.5t-90.5 -39
t-88.5 -102.5t-82.5 -144.5t-75.5 -166t-67 -166.5zM765 428q80 0 153 43t132.5 110.5t101 150.5t58.5 163q-94 -4 -199.5 -20.5t-194.5 -52.5t-147.5 -94t-58.5 -146q0 -64 41 -109t114 -45zM1433 -312q0 -33 -24.5 -57.5t-59.5 -24.5q-32 0 -56.5 24.5t-24.5 57.5
q0 35 24.5 59.5t56.5 24.5q35 0 59.5 -24.5t24.5 -59.5z" />
    <glyph glyph-name="Acircumflex" unicode="&#xc2;" horiz-adv-x="2209" 
d="M2476 1071q0 -33 -20.5 -65.5t-53.5 -58t-72 -42t-78 -16.5h-96l-138.5 -330l-123.5 -304t-90 -243.5t-35 -148.5q0 -35 21.5 -72t64.5 -37q37 0 78 28t85 76t89 112.5t90 138.5q6 14 18 14q15 0 15 -21q0 -8 -16.5 -38.5t-44 -73.5t-64.5 -91.5t-77 -89t-81 -67.5
t-76 -27q-55 0 -96 32t-41 118q0 63 30 174t78 248t109.5 292.5l124.5 309.5q-76 0 -150.5 1t-146.5 1q-108 -264 -229 -446.5t-253 -296t-274.5 -165t-291.5 -51.5q-156 0 -280 52.5t-210 141.5t-132 209t-46 253q0 162 37 285.5t98.5 214t139 151.5t158.5 98t159 52.5
t139 15.5q70 0 143.5 -19.5t137 -59.5t108.5 -103.5t58 -151.5q28 4 56 6t54 2q139 0 241.5 -1t178.5 -3l147 355q39 92 85.5 174t97.5 143t105.5 96t109.5 35q24 0 47.5 -6t44 -22.5t33 -43t12.5 -69.5q0 -39 -17.5 -106.5t-48 -157t-71.5 -193.5l-88 -217q53 0 119.5 1
t128.5 7zM571 578q0 104 59.5 188t151.5 145.5t204.5 100.5t221.5 55q-29 133 -131.5 215t-265.5 82q-168 0 -297 -66.5t-218.5 -176t-135.5 -251t-46 -288.5q0 -150 51.5 -264.5t139.5 -191.5t206.5 -116t253.5 -39q162 0 292 65.5t239.5 186.5t205 291t189.5 379
q-131 2 -232.5 3t-150.5 1h-34.5t-36.5 -2q-19 -125 -70 -220t-118.5 -158.5t-142.5 -95.5t-141 -32q-81 0 -137.5 51.5t-56.5 137.5zM1851 1073q55 -2 97 -4t77 -3t64.5 -2t60.5 -1l99 238.5l84 204.5t57.5 153.5t21.5 87.5q0 51 -28.5 70.5t-73.5 19.5t-90.5 -39
t-88.5 -102.5t-82.5 -144.5t-75.5 -166t-67 -166.5zM765 428q80 0 153 43t132.5 110.5t101 150.5t58.5 163q-94 -4 -199.5 -20.5t-194.5 -52.5t-147.5 -94t-58.5 -146q0 -64 41 -109t114 -45zM2547 1995q0 -10 -20.5 -24.5t-42.5 -14.5q-62 0 -105 39t-63 80
q-31 -23 -70 -48.5t-72 -44.5q-12 -6 -21 -11t-15 -5q-17 0 -17 16q0 11 7.5 19t15.5 12q59 35 111.5 70t93.5 69q6 7 16 13t18 6q17 0 31 -37q27 -72 50.5 -93.5t58.5 -29.5q24 -6 24 -16z" />
    <glyph glyph-name="uni1EA6" unicode="&#x1ea6;" horiz-adv-x="2209" 
d="M2476 1071q0 -33 -20.5 -65.5t-53.5 -58t-72 -42t-78 -16.5h-96l-138.5 -330l-123.5 -304t-90 -243.5t-35 -148.5q0 -35 21.5 -72t64.5 -37q37 0 78 28t85 76t89 112.5t90 138.5q6 14 18 14q15 0 15 -21q0 -8 -16.5 -38.5t-44 -73.5t-64.5 -91.5t-77 -89t-81 -67.5
t-76 -27q-55 0 -96 32t-41 118q0 63 30 174t78 248t109.5 292.5l124.5 309.5q-76 0 -150.5 1t-146.5 1q-108 -264 -229 -446.5t-253 -296t-274.5 -165t-291.5 -51.5q-156 0 -280 52.5t-210 141.5t-132 209t-46 253q0 162 37 285.5t98.5 214t139 151.5t158.5 98t159 52.5
t139 15.5q70 0 143.5 -19.5t137 -59.5t108.5 -103.5t58 -151.5q28 4 56 6t54 2q139 0 241.5 -1t178.5 -3l147 355q39 92 85.5 174t97.5 143t105.5 96t109.5 35q24 0 47.5 -6t44 -22.5t33 -43t12.5 -69.5q0 -39 -17.5 -106.5t-48 -157t-71.5 -193.5l-88 -217q53 0 119.5 1
t128.5 7zM571 578q0 104 59.5 188t151.5 145.5t204.5 100.5t221.5 55q-29 133 -131.5 215t-265.5 82q-168 0 -297 -66.5t-218.5 -176t-135.5 -251t-46 -288.5q0 -150 51.5 -264.5t139.5 -191.5t206.5 -116t253.5 -39q162 0 292 65.5t239.5 186.5t205 291t189.5 379
q-131 2 -232.5 3t-150.5 1h-34.5t-36.5 -2q-19 -125 -70 -220t-118.5 -158.5t-142.5 -95.5t-141 -32q-81 0 -137.5 51.5t-56.5 137.5zM1851 1073q55 -2 97 -4t77 -3t64.5 -2t60.5 -1l99 238.5l84 204.5t57.5 153.5t21.5 87.5q0 51 -28.5 70.5t-73.5 19.5t-90.5 -39
t-88.5 -102.5t-82.5 -144.5t-75.5 -166t-67 -166.5zM765 428q80 0 153 43t132.5 110.5t101 150.5t58.5 163q-94 -4 -199.5 -20.5t-194.5 -52.5t-147.5 -94t-58.5 -146q0 -64 41 -109t114 -45zM2517 2192q0 -16 -26 -16q-6 0 -51.5 12.5t-97.5 35t-94 54t-42 72.5
q0 27 17.5 43.5t37.5 16.5q33 0 51.5 -16.5t41.5 -57.5q34 -60 63 -84.5t70 -36.5q30 -10 30 -23zM2547 1995q0 -10 -20.5 -24.5t-42.5 -14.5q-62 0 -105 39t-63 80q-31 -23 -70 -48.5t-72 -44.5q-12 -6 -21 -11t-15 -5q-17 0 -17 16q0 11 7.5 19t15.5 12q59 35 111.5 70
t93.5 69q6 7 16 13t18 6q17 0 31 -37q27 -72 50.5 -93.5t58.5 -29.5q24 -6 24 -16z" />
    <glyph glyph-name="uni1EA4" unicode="&#x1ea4;" horiz-adv-x="2209" 
d="M2476 1071q0 -33 -20.5 -65.5t-53.5 -58t-72 -42t-78 -16.5h-96l-138.5 -330l-123.5 -304t-90 -243.5t-35 -148.5q0 -35 21.5 -72t64.5 -37q37 0 78 28t85 76t89 112.5t90 138.5q6 14 18 14q15 0 15 -21q0 -8 -16.5 -38.5t-44 -73.5t-64.5 -91.5t-77 -89t-81 -67.5
t-76 -27q-55 0 -96 32t-41 118q0 63 30 174t78 248t109.5 292.5l124.5 309.5q-76 0 -150.5 1t-146.5 1q-108 -264 -229 -446.5t-253 -296t-274.5 -165t-291.5 -51.5q-156 0 -280 52.5t-210 141.5t-132 209t-46 253q0 162 37 285.5t98.5 214t139 151.5t158.5 98t159 52.5
t139 15.5q70 0 143.5 -19.5t137 -59.5t108.5 -103.5t58 -151.5q28 4 56 6t54 2q139 0 241.5 -1t178.5 -3l147 355q39 92 85.5 174t97.5 143t105.5 96t109.5 35q24 0 47.5 -6t44 -22.5t33 -43t12.5 -69.5q0 -39 -17.5 -106.5t-48 -157t-71.5 -193.5l-88 -217q53 0 119.5 1
t128.5 7zM571 578q0 104 59.5 188t151.5 145.5t204.5 100.5t221.5 55q-29 133 -131.5 215t-265.5 82q-168 0 -297 -66.5t-218.5 -176t-135.5 -251t-46 -288.5q0 -150 51.5 -264.5t139.5 -191.5t206.5 -116t253.5 -39q162 0 292 65.5t239.5 186.5t205 291t189.5 379
q-131 2 -232.5 3t-150.5 1h-34.5t-36.5 -2q-19 -125 -70 -220t-118.5 -158.5t-142.5 -95.5t-141 -32q-81 0 -137.5 51.5t-56.5 137.5zM1851 1073q55 -2 97 -4t77 -3t64.5 -2t60.5 -1l99 238.5l84 204.5t57.5 153.5t21.5 87.5q0 51 -28.5 70.5t-73.5 19.5t-90.5 -39
t-88.5 -102.5t-82.5 -144.5t-75.5 -166t-67 -166.5zM765 428q80 0 153 43t132.5 110.5t101 150.5t58.5 163q-94 -4 -199.5 -20.5t-194.5 -52.5t-147.5 -94t-58.5 -146q0 -64 41 -109t114 -45zM2795 2259q0 -41 -42 -72.5t-94 -54t-97 -35t-51 -12.5q-27 0 -27 17q0 12 31 22
q41 12 69.5 37t63.5 84q23 41 41 57.5t51 16.5q21 0 38 -16.5t17 -43.5zM2547 1995q0 -10 -20.5 -24.5t-42.5 -14.5q-62 0 -105 39t-63 80q-31 -23 -70 -48.5t-72 -44.5q-12 -6 -21 -11t-15 -5q-17 0 -17 16q0 11 7.5 19t15.5 12q59 35 111.5 70t93.5 69q6 7 16 13t18 6
q17 0 31 -37q27 -72 50.5 -93.5t58.5 -29.5q24 -6 24 -16z" />
    <glyph glyph-name="uni1EA8" unicode="&#x1ea8;" horiz-adv-x="2209" 
d="M2476 1071q0 -33 -20.5 -65.5t-53.5 -58t-72 -42t-78 -16.5h-96l-138.5 -330l-123.5 -304t-90 -243.5t-35 -148.5q0 -35 21.5 -72t64.5 -37q37 0 78 28t85 76t89 112.5t90 138.5q6 14 18 14q15 0 15 -21q0 -8 -16.5 -38.5t-44 -73.5t-64.5 -91.5t-77 -89t-81 -67.5
t-76 -27q-55 0 -96 32t-41 118q0 63 30 174t78 248t109.5 292.5l124.5 309.5q-76 0 -150.5 1t-146.5 1q-108 -264 -229 -446.5t-253 -296t-274.5 -165t-291.5 -51.5q-156 0 -280 52.5t-210 141.5t-132 209t-46 253q0 162 37 285.5t98.5 214t139 151.5t158.5 98t159 52.5
t139 15.5q70 0 143.5 -19.5t137 -59.5t108.5 -103.5t58 -151.5q28 4 56 6t54 2q139 0 241.5 -1t178.5 -3l147 355q39 92 85.5 174t97.5 143t105.5 96t109.5 35q24 0 47.5 -6t44 -22.5t33 -43t12.5 -69.5q0 -39 -17.5 -106.5t-48 -157t-71.5 -193.5l-88 -217q53 0 119.5 1
t128.5 7zM571 578q0 104 59.5 188t151.5 145.5t204.5 100.5t221.5 55q-29 133 -131.5 215t-265.5 82q-168 0 -297 -66.5t-218.5 -176t-135.5 -251t-46 -288.5q0 -150 51.5 -264.5t139.5 -191.5t206.5 -116t253.5 -39q162 0 292 65.5t239.5 186.5t205 291t189.5 379
q-131 2 -232.5 3t-150.5 1h-34.5t-36.5 -2q-19 -125 -70 -220t-118.5 -158.5t-142.5 -95.5t-141 -32q-81 0 -137.5 51.5t-56.5 137.5zM1851 1073q55 -2 97 -4t77 -3t64.5 -2t60.5 -1l99 238.5l84 204.5t57.5 153.5t21.5 87.5q0 51 -28.5 70.5t-73.5 19.5t-90.5 -39
t-88.5 -102.5t-82.5 -144.5t-75.5 -166t-67 -166.5zM765 428q80 0 153 43t132.5 110.5t101 150.5t58.5 163q-94 -4 -199.5 -20.5t-194.5 -52.5t-147.5 -94t-58.5 -146q0 -64 41 -109t114 -45zM2547 1995q0 -10 -20.5 -24.5t-42.5 -14.5q-62 0 -105 39t-63 80
q-31 -23 -70 -48.5t-72 -44.5q-12 -6 -21 -11t-15 -5q-17 0 -17 16q0 11 7.5 19t15.5 12q59 35 111.5 70t93.5 69q6 7 16 13t18 6q17 0 31 -37q27 -72 50.5 -93.5t58.5 -29.5q24 -6 24 -16zM2705 2317q1 6 -1 10q-3 13 -13.5 19.5t-24.5 10t-30 4.5q-29 -1 -51.5 -3.5
t-43.5 -15.5q25 -2 31 -11t5 -17q-1 -9 -11 -18t-34 -7q-27 2 -34.5 11.5t-2.5 20.5q1 12 9.5 22t28.5 20t49.5 15.5t61.5 2.5q29 -3 51.5 -11t39 -20t23.5 -27.5t6 -31.5q-6 -37 -49 -66q-14 -13 -31 -22q-30 -17 -61 -29.5t-57 -25.5t-38 -28q-11 -12 7 -26q2 -2 8.5 -5
t9.5 -6q8 -7 2 -14q-3 -3 -22 1.5t-34 17.5q-19 16 -27.5 47t9.5 54q12 14 44.5 31t68.5 34l69 34q28 15 42 29z" />
    <glyph glyph-name="uni1EAA" unicode="&#x1eaa;" horiz-adv-x="2209" 
d="M2476 1071q0 -33 -20.5 -65.5t-53.5 -58t-72 -42t-78 -16.5h-96l-138.5 -330l-123.5 -304t-90 -243.5t-35 -148.5q0 -35 21.5 -72t64.5 -37q37 0 78 28t85 76t89 112.5t90 138.5q6 14 18 14q15 0 15 -21q0 -8 -16.5 -38.5t-44 -73.5t-64.5 -91.5t-77 -89t-81 -67.5
t-76 -27q-55 0 -96 32t-41 118q0 63 30 174t78 248t109.5 292.5l124.5 309.5q-76 0 -150.5 1t-146.5 1q-108 -264 -229 -446.5t-253 -296t-274.5 -165t-291.5 -51.5q-156 0 -280 52.5t-210 141.5t-132 209t-46 253q0 162 37 285.5t98.5 214t139 151.5t158.5 98t159 52.5
t139 15.5q70 0 143.5 -19.5t137 -59.5t108.5 -103.5t58 -151.5q28 4 56 6t54 2q139 0 241.5 -1t178.5 -3l147 355q39 92 85.5 174t97.5 143t105.5 96t109.5 35q24 0 47.5 -6t44 -22.5t33 -43t12.5 -69.5q0 -39 -17.5 -106.5t-48 -157t-71.5 -193.5l-88 -217q53 0 119.5 1
t128.5 7zM571 578q0 104 59.5 188t151.5 145.5t204.5 100.5t221.5 55q-29 133 -131.5 215t-265.5 82q-168 0 -297 -66.5t-218.5 -176t-135.5 -251t-46 -288.5q0 -150 51.5 -264.5t139.5 -191.5t206.5 -116t253.5 -39q162 0 292 65.5t239.5 186.5t205 291t189.5 379
q-131 2 -232.5 3t-150.5 1h-34.5t-36.5 -2q-19 -125 -70 -220t-118.5 -158.5t-142.5 -95.5t-141 -32q-81 0 -137.5 51.5t-56.5 137.5zM1851 1073q55 -2 97 -4t77 -3t64.5 -2t60.5 -1l99 238.5l84 204.5t57.5 153.5t21.5 87.5q0 51 -28.5 70.5t-73.5 19.5t-90.5 -39
t-88.5 -102.5t-82.5 -144.5t-75.5 -166t-67 -166.5zM765 428q80 0 153 43t132.5 110.5t101 150.5t58.5 163q-94 -4 -199.5 -20.5t-194.5 -52.5t-147.5 -94t-58.5 -146q0 -64 41 -109t114 -45zM2696 2301q0 -63 -31.5 -107t-93.5 -44q-37 0 -74.5 14.5t-72.5 32.5t-66.5 32.5
t-54.5 14.5q-18 0 -18 -26q0 -5 2 -13t2 -12q0 -12 -13 -12q-4 0 -14 20.5t-10 44.5q0 29 21.5 60.5t56.5 31.5q22 0 62 -16t83 -36.5t83 -37t65 -16.5q18 0 32.5 16.5t14.5 50.5q0 27 10 27q6 0 11 -8t5 -17zM2547 1995q0 -10 -20.5 -24.5t-42.5 -14.5q-62 0 -105 39
t-63 80q-31 -23 -70 -48.5t-72 -44.5q-12 -6 -21 -11t-15 -5q-17 0 -17 16q0 11 7.5 19t15.5 12q59 35 111.5 70t93.5 69q6 7 16 13t18 6q17 0 31 -37q27 -72 50.5 -93.5t58.5 -29.5q24 -6 24 -16z" />
    <glyph glyph-name="uni1EAC" unicode="&#x1eac;" horiz-adv-x="2209" 
d="M2476 1071q0 -33 -20.5 -65.5t-53.5 -58t-72 -42t-78 -16.5h-96l-138.5 -330l-123.5 -304t-90 -243.5t-35 -148.5q0 -35 21.5 -72t64.5 -37q37 0 78 28t85 76t89 112.5t90 138.5q6 14 18 14q15 0 15 -21q0 -8 -16.5 -38.5t-44 -73.5t-64.5 -91.5t-77 -89t-81 -67.5
t-76 -27q-55 0 -96 32t-41 118q0 63 30 174t78 248t109.5 292.5l124.5 309.5q-76 0 -150.5 1t-146.5 1q-108 -264 -229 -446.5t-253 -296t-274.5 -165t-291.5 -51.5q-156 0 -280 52.5t-210 141.5t-132 209t-46 253q0 162 37 285.5t98.5 214t139 151.5t158.5 98t159 52.5
t139 15.5q70 0 143.5 -19.5t137 -59.5t108.5 -103.5t58 -151.5q28 4 56 6t54 2q139 0 241.5 -1t178.5 -3l147 355q39 92 85.5 174t97.5 143t105.5 96t109.5 35q24 0 47.5 -6t44 -22.5t33 -43t12.5 -69.5q0 -39 -17.5 -106.5t-48 -157t-71.5 -193.5l-88 -217q53 0 119.5 1
t128.5 7zM571 578q0 104 59.5 188t151.5 145.5t204.5 100.5t221.5 55q-29 133 -131.5 215t-265.5 82q-168 0 -297 -66.5t-218.5 -176t-135.5 -251t-46 -288.5q0 -150 51.5 -264.5t139.5 -191.5t206.5 -116t253.5 -39q162 0 292 65.5t239.5 186.5t205 291t189.5 379
q-131 2 -232.5 3t-150.5 1h-34.5t-36.5 -2q-19 -125 -70 -220t-118.5 -158.5t-142.5 -95.5t-141 -32q-81 0 -137.5 51.5t-56.5 137.5zM1851 1073q55 -2 97 -4t77 -3t64.5 -2t60.5 -1l99 238.5l84 204.5t57.5 153.5t21.5 87.5q0 51 -28.5 70.5t-73.5 19.5t-90.5 -39
t-88.5 -102.5t-82.5 -144.5t-75.5 -166t-67 -166.5zM765 428q80 0 153 43t132.5 110.5t101 150.5t58.5 163q-94 -4 -199.5 -20.5t-194.5 -52.5t-147.5 -94t-58.5 -146q0 -64 41 -109t114 -45zM1433 -312q0 -33 -24.5 -57.5t-59.5 -24.5q-32 0 -56.5 24.5t-24.5 57.5
q0 35 24.5 59.5t56.5 24.5q35 0 59.5 -24.5t24.5 -59.5zM2547 1995q0 -10 -20.5 -24.5t-42.5 -14.5q-62 0 -105 39t-63 80q-31 -23 -70 -48.5t-72 -44.5q-12 -6 -21 -11t-15 -5q-17 0 -17 16q0 11 7.5 19t15.5 12q59 35 111.5 70t93.5 69q6 7 16 13t18 6q17 0 31 -37
q27 -72 50.5 -93.5t58.5 -29.5q24 -6 24 -16z" />
    <glyph glyph-name="Abreve" unicode="&#x102;" horiz-adv-x="2209" 
d="M2476 1071q0 -33 -20.5 -65.5t-53.5 -58t-72 -42t-78 -16.5h-96l-138.5 -330l-123.5 -304t-90 -243.5t-35 -148.5q0 -35 21.5 -72t64.5 -37q37 0 78 28t85 76t89 112.5t90 138.5q6 14 18 14q15 0 15 -21q0 -8 -16.5 -38.5t-44 -73.5t-64.5 -91.5t-77 -89t-81 -67.5
t-76 -27q-55 0 -96 32t-41 118q0 63 30 174t78 248t109.5 292.5l124.5 309.5q-76 0 -150.5 1t-146.5 1q-108 -264 -229 -446.5t-253 -296t-274.5 -165t-291.5 -51.5q-156 0 -280 52.5t-210 141.5t-132 209t-46 253q0 162 37 285.5t98.5 214t139 151.5t158.5 98t159 52.5
t139 15.5q70 0 143.5 -19.5t137 -59.5t108.5 -103.5t58 -151.5q28 4 56 6t54 2q139 0 241.5 -1t178.5 -3l147 355q39 92 85.5 174t97.5 143t105.5 96t109.5 35q24 0 47.5 -6t44 -22.5t33 -43t12.5 -69.5q0 -39 -17.5 -106.5t-48 -157t-71.5 -193.5l-88 -217q53 0 119.5 1
t128.5 7zM571 578q0 104 59.5 188t151.5 145.5t204.5 100.5t221.5 55q-29 133 -131.5 215t-265.5 82q-168 0 -297 -66.5t-218.5 -176t-135.5 -251t-46 -288.5q0 -150 51.5 -264.5t139.5 -191.5t206.5 -116t253.5 -39q162 0 292 65.5t239.5 186.5t205 291t189.5 379
q-131 2 -232.5 3t-150.5 1h-34.5t-36.5 -2q-19 -125 -70 -220t-118.5 -158.5t-142.5 -95.5t-141 -32q-81 0 -137.5 51.5t-56.5 137.5zM1851 1073q55 -2 97 -4t77 -3t64.5 -2t60.5 -1l99 238.5l84 204.5t57.5 153.5t21.5 87.5q0 51 -28.5 70.5t-73.5 19.5t-90.5 -39
t-88.5 -102.5t-82.5 -144.5t-75.5 -166t-67 -166.5zM765 428q80 0 153 43t132.5 110.5t101 150.5t58.5 163q-94 -4 -199.5 -20.5t-194.5 -52.5t-147.5 -94t-58.5 -146q0 -64 41 -109t114 -45zM2354 2034q65 0 103 17t48 50q42 27 34 -14q-14 -47 -66 -88.5t-135 -41.5
q-84 0 -119 41.5t-24 88.5q14 30 45 14q-7 -33 18.5 -50t95.5 -17z" />
    <glyph glyph-name="uni1EB0" unicode="&#x1eb0;" horiz-adv-x="2209" 
d="M2476 1071q0 -33 -20.5 -65.5t-53.5 -58t-72 -42t-78 -16.5h-96l-138.5 -330l-123.5 -304t-90 -243.5t-35 -148.5q0 -35 21.5 -72t64.5 -37q37 0 78 28t85 76t89 112.5t90 138.5q6 14 18 14q15 0 15 -21q0 -8 -16.5 -38.5t-44 -73.5t-64.5 -91.5t-77 -89t-81 -67.5
t-76 -27q-55 0 -96 32t-41 118q0 63 30 174t78 248t109.5 292.5l124.5 309.5q-76 0 -150.5 1t-146.5 1q-108 -264 -229 -446.5t-253 -296t-274.5 -165t-291.5 -51.5q-156 0 -280 52.5t-210 141.5t-132 209t-46 253q0 162 37 285.5t98.5 214t139 151.5t158.5 98t159 52.5
t139 15.5q70 0 143.5 -19.5t137 -59.5t108.5 -103.5t58 -151.5q28 4 56 6t54 2q139 0 241.5 -1t178.5 -3l147 355q39 92 85.5 174t97.5 143t105.5 96t109.5 35q24 0 47.5 -6t44 -22.5t33 -43t12.5 -69.5q0 -39 -17.5 -106.5t-48 -157t-71.5 -193.5l-88 -217q53 0 119.5 1
t128.5 7zM571 578q0 104 59.5 188t151.5 145.5t204.5 100.5t221.5 55q-29 133 -131.5 215t-265.5 82q-168 0 -297 -66.5t-218.5 -176t-135.5 -251t-46 -288.5q0 -150 51.5 -264.5t139.5 -191.5t206.5 -116t253.5 -39q162 0 292 65.5t239.5 186.5t205 291t189.5 379
q-131 2 -232.5 3t-150.5 1h-34.5t-36.5 -2q-19 -125 -70 -220t-118.5 -158.5t-142.5 -95.5t-141 -32q-81 0 -137.5 51.5t-56.5 137.5zM1851 1073q55 -2 97 -4t77 -3t64.5 -2t60.5 -1l99 238.5l84 204.5t57.5 153.5t21.5 87.5q0 51 -28.5 70.5t-73.5 19.5t-90.5 -39
t-88.5 -102.5t-82.5 -144.5t-75.5 -166t-67 -166.5zM765 428q80 0 153 43t132.5 110.5t101 150.5t58.5 163q-94 -4 -199.5 -20.5t-194.5 -52.5t-147.5 -94t-58.5 -146q0 -64 41 -109t114 -45zM2470 2128q0 -16 -26 -16q-6 0 -51.5 12.5t-97.5 35t-94 54t-42 72.5
q0 27 17.5 43.5t37.5 16.5q33 0 51.5 -16.5t41.5 -57.5q34 -60 63 -84.5t70 -36.5q30 -10 30 -23zM2354 2034q65 0 103 17t48 50q42 27 34 -14q-14 -47 -66 -88.5t-135 -41.5q-84 0 -119 41.5t-24 88.5q14 30 45 14q-7 -33 18.5 -50t95.5 -17z" />
    <glyph glyph-name="uni1EAE" unicode="&#x1eae;" horiz-adv-x="2209" 
d="M2476 1071q0 -33 -20.5 -65.5t-53.5 -58t-72 -42t-78 -16.5h-96l-138.5 -330l-123.5 -304t-90 -243.5t-35 -148.5q0 -35 21.5 -72t64.5 -37q37 0 78 28t85 76t89 112.5t90 138.5q6 14 18 14q15 0 15 -21q0 -8 -16.5 -38.5t-44 -73.5t-64.5 -91.5t-77 -89t-81 -67.5
t-76 -27q-55 0 -96 32t-41 118q0 63 30 174t78 248t109.5 292.5l124.5 309.5q-76 0 -150.5 1t-146.5 1q-108 -264 -229 -446.5t-253 -296t-274.5 -165t-291.5 -51.5q-156 0 -280 52.5t-210 141.5t-132 209t-46 253q0 162 37 285.5t98.5 214t139 151.5t158.5 98t159 52.5
t139 15.5q70 0 143.5 -19.5t137 -59.5t108.5 -103.5t58 -151.5q28 4 56 6t54 2q139 0 241.5 -1t178.5 -3l147 355q39 92 85.5 174t97.5 143t105.5 96t109.5 35q24 0 47.5 -6t44 -22.5t33 -43t12.5 -69.5q0 -39 -17.5 -106.5t-48 -157t-71.5 -193.5l-88 -217q53 0 119.5 1
t128.5 7zM571 578q0 104 59.5 188t151.5 145.5t204.5 100.5t221.5 55q-29 133 -131.5 215t-265.5 82q-168 0 -297 -66.5t-218.5 -176t-135.5 -251t-46 -288.5q0 -150 51.5 -264.5t139.5 -191.5t206.5 -116t253.5 -39q162 0 292 65.5t239.5 186.5t205 291t189.5 379
q-131 2 -232.5 3t-150.5 1h-34.5t-36.5 -2q-19 -125 -70 -220t-118.5 -158.5t-142.5 -95.5t-141 -32q-81 0 -137.5 51.5t-56.5 137.5zM1851 1073q55 -2 97 -4t77 -3t64.5 -2t60.5 -1l99 238.5l84 204.5t57.5 153.5t21.5 87.5q0 51 -28.5 70.5t-73.5 19.5t-90.5 -39
t-88.5 -102.5t-82.5 -144.5t-75.5 -166t-67 -166.5zM765 428q80 0 153 43t132.5 110.5t101 150.5t58.5 163q-94 -4 -199.5 -20.5t-194.5 -52.5t-147.5 -94t-58.5 -146q0 -64 41 -109t114 -45zM2638 2259q0 -41 -42 -72.5t-94 -54t-97 -35t-51 -12.5q-27 0 -27 17q0 12 31 22
q41 12 69.5 37t63.5 84q23 41 41 57.5t51 16.5q21 0 38 -16.5t17 -43.5zM2354 2034q65 0 103 17t48 50q42 27 34 -14q-14 -47 -66 -88.5t-135 -41.5q-84 0 -119 41.5t-24 88.5q14 30 45 14q-7 -33 18.5 -50t95.5 -17z" />
    <glyph glyph-name="uni1EB2" unicode="&#x1eb2;" horiz-adv-x="2209" 
d="M2476 1071q0 -33 -20.5 -65.5t-53.5 -58t-72 -42t-78 -16.5h-96l-138.5 -330l-123.5 -304t-90 -243.5t-35 -148.5q0 -35 21.5 -72t64.5 -37q37 0 78 28t85 76t89 112.5t90 138.5q6 14 18 14q15 0 15 -21q0 -8 -16.5 -38.5t-44 -73.5t-64.5 -91.5t-77 -89t-81 -67.5
t-76 -27q-55 0 -96 32t-41 118q0 63 30 174t78 248t109.5 292.5l124.5 309.5q-76 0 -150.5 1t-146.5 1q-108 -264 -229 -446.5t-253 -296t-274.5 -165t-291.5 -51.5q-156 0 -280 52.5t-210 141.5t-132 209t-46 253q0 162 37 285.5t98.5 214t139 151.5t158.5 98t159 52.5
t139 15.5q70 0 143.5 -19.5t137 -59.5t108.5 -103.5t58 -151.5q28 4 56 6t54 2q139 0 241.5 -1t178.5 -3l147 355q39 92 85.5 174t97.5 143t105.5 96t109.5 35q24 0 47.5 -6t44 -22.5t33 -43t12.5 -69.5q0 -39 -17.5 -106.5t-48 -157t-71.5 -193.5l-88 -217q53 0 119.5 1
t128.5 7zM571 578q0 104 59.5 188t151.5 145.5t204.5 100.5t221.5 55q-29 133 -131.5 215t-265.5 82q-168 0 -297 -66.5t-218.5 -176t-135.5 -251t-46 -288.5q0 -150 51.5 -264.5t139.5 -191.5t206.5 -116t253.5 -39q162 0 292 65.5t239.5 186.5t205 291t189.5 379
q-131 2 -232.5 3t-150.5 1h-34.5t-36.5 -2q-19 -125 -70 -220t-118.5 -158.5t-142.5 -95.5t-141 -32q-81 0 -137.5 51.5t-56.5 137.5zM1851 1073q55 -2 97 -4t77 -3t64.5 -2t60.5 -1l99 238.5l84 204.5t57.5 153.5t21.5 87.5q0 51 -28.5 70.5t-73.5 19.5t-90.5 -39
t-88.5 -102.5t-82.5 -144.5t-75.5 -166t-67 -166.5zM765 428q80 0 153 43t132.5 110.5t101 150.5t58.5 163q-94 -4 -199.5 -20.5t-194.5 -52.5t-147.5 -94t-58.5 -146q0 -64 41 -109t114 -45zM2354 2034q65 0 103 17t48 50q42 27 34 -14q-14 -47 -66 -88.5t-135 -41.5
q-84 0 -119 41.5t-24 88.5q14 30 45 14q-7 -33 18.5 -50t95.5 -17zM2565 2319q1 6 -1 10q-3 13 -13.5 19.5t-24.5 10t-30 4.5q-29 -1 -51.5 -3.5t-43.5 -15.5q25 -2 31 -11t5 -17q-1 -9 -11 -18t-34 -7q-27 2 -34.5 11.5t-2.5 20.5q1 12 9.5 22t28.5 20t49.5 15.5t61.5 2.5
q29 -3 51.5 -11t39 -20t23.5 -27.5t6 -31.5q-6 -37 -49 -66q-14 -13 -31 -22q-30 -17 -61 -29.5t-57 -25.5t-38 -28q-11 -12 7 -26q2 -2 8.5 -5t9.5 -6q8 -7 2 -14q-3 -3 -22 1.5t-34 17.5q-19 16 -27.5 47t9.5 54q12 14 44.5 31t68.5 34l69 34q28 15 42 29z" />
    <glyph glyph-name="uni1EB4" unicode="&#x1eb4;" horiz-adv-x="2209" 
d="M2476 1071q0 -33 -20.5 -65.5t-53.5 -58t-72 -42t-78 -16.5h-96l-138.5 -330l-123.5 -304t-90 -243.5t-35 -148.5q0 -35 21.5 -72t64.5 -37q37 0 78 28t85 76t89 112.5t90 138.5q6 14 18 14q15 0 15 -21q0 -8 -16.5 -38.5t-44 -73.5t-64.5 -91.5t-77 -89t-81 -67.5
t-76 -27q-55 0 -96 32t-41 118q0 63 30 174t78 248t109.5 292.5l124.5 309.5q-76 0 -150.5 1t-146.5 1q-108 -264 -229 -446.5t-253 -296t-274.5 -165t-291.5 -51.5q-156 0 -280 52.5t-210 141.5t-132 209t-46 253q0 162 37 285.5t98.5 214t139 151.5t158.5 98t159 52.5
t139 15.5q70 0 143.5 -19.5t137 -59.5t108.5 -103.5t58 -151.5q28 4 56 6t54 2q139 0 241.5 -1t178.5 -3l147 355q39 92 85.5 174t97.5 143t105.5 96t109.5 35q24 0 47.5 -6t44 -22.5t33 -43t12.5 -69.5q0 -39 -17.5 -106.5t-48 -157t-71.5 -193.5l-88 -217q53 0 119.5 1
t128.5 7zM571 578q0 104 59.5 188t151.5 145.5t204.5 100.5t221.5 55q-29 133 -131.5 215t-265.5 82q-168 0 -297 -66.5t-218.5 -176t-135.5 -251t-46 -288.5q0 -150 51.5 -264.5t139.5 -191.5t206.5 -116t253.5 -39q162 0 292 65.5t239.5 186.5t205 291t189.5 379
q-131 2 -232.5 3t-150.5 1h-34.5t-36.5 -2q-19 -125 -70 -220t-118.5 -158.5t-142.5 -95.5t-141 -32q-81 0 -137.5 51.5t-56.5 137.5zM1851 1073q55 -2 97 -4t77 -3t64.5 -2t60.5 -1l99 238.5l84 204.5t57.5 153.5t21.5 87.5q0 51 -28.5 70.5t-73.5 19.5t-90.5 -39
t-88.5 -102.5t-82.5 -144.5t-75.5 -166t-67 -166.5zM765 428q80 0 153 43t132.5 110.5t101 150.5t58.5 163q-94 -4 -199.5 -20.5t-194.5 -52.5t-147.5 -94t-58.5 -146q0 -64 41 -109t114 -45zM2678 2283q0 -63 -31.5 -107t-93.5 -44q-37 0 -74.5 14.5t-72.5 32.5t-66.5 32.5
t-54.5 14.5q-18 0 -18 -26q0 -5 2 -13t2 -12q0 -12 -13 -12q-4 0 -14 20.5t-10 44.5q0 29 21.5 60.5t56.5 31.5q22 0 62 -16t83 -36.5t83 -37t65 -16.5q18 0 32.5 16.5t14.5 50.5q0 27 10 27q6 0 11 -8t5 -17zM2354 2034q65 0 103 17t48 50q42 27 34 -14q-14 -47 -66 -88.5
t-135 -41.5q-84 0 -119 41.5t-24 88.5q14 30 45 14q-7 -33 18.5 -50t95.5 -17z" />
    <glyph glyph-name="uni1EB6" unicode="&#x1eb6;" horiz-adv-x="2209" 
d="M2476 1071q0 -33 -20.5 -65.5t-53.5 -58t-72 -42t-78 -16.5h-96l-138.5 -330l-123.5 -304t-90 -243.5t-35 -148.5q0 -35 21.5 -72t64.5 -37q37 0 78 28t85 76t89 112.5t90 138.5q6 14 18 14q15 0 15 -21q0 -8 -16.5 -38.5t-44 -73.5t-64.5 -91.5t-77 -89t-81 -67.5
t-76 -27q-55 0 -96 32t-41 118q0 63 30 174t78 248t109.5 292.5l124.5 309.5q-76 0 -150.5 1t-146.5 1q-108 -264 -229 -446.5t-253 -296t-274.5 -165t-291.5 -51.5q-156 0 -280 52.5t-210 141.5t-132 209t-46 253q0 162 37 285.5t98.5 214t139 151.5t158.5 98t159 52.5
t139 15.5q70 0 143.5 -19.5t137 -59.5t108.5 -103.5t58 -151.5q28 4 56 6t54 2q139 0 241.5 -1t178.5 -3l147 355q39 92 85.5 174t97.5 143t105.5 96t109.5 35q24 0 47.5 -6t44 -22.5t33 -43t12.5 -69.5q0 -39 -17.5 -106.5t-48 -157t-71.5 -193.5l-88 -217q53 0 119.5 1
t128.5 7zM571 578q0 104 59.5 188t151.5 145.5t204.5 100.5t221.5 55q-29 133 -131.5 215t-265.5 82q-168 0 -297 -66.5t-218.5 -176t-135.5 -251t-46 -288.5q0 -150 51.5 -264.5t139.5 -191.5t206.5 -116t253.5 -39q162 0 292 65.5t239.5 186.5t205 291t189.5 379
q-131 2 -232.5 3t-150.5 1h-34.5t-36.5 -2q-19 -125 -70 -220t-118.5 -158.5t-142.5 -95.5t-141 -32q-81 0 -137.5 51.5t-56.5 137.5zM1851 1073q55 -2 97 -4t77 -3t64.5 -2t60.5 -1l99 238.5l84 204.5t57.5 153.5t21.5 87.5q0 51 -28.5 70.5t-73.5 19.5t-90.5 -39
t-88.5 -102.5t-82.5 -144.5t-75.5 -166t-67 -166.5zM765 428q80 0 153 43t132.5 110.5t101 150.5t58.5 163q-94 -4 -199.5 -20.5t-194.5 -52.5t-147.5 -94t-58.5 -146q0 -64 41 -109t114 -45zM1433 -312q0 -33 -24.5 -57.5t-59.5 -24.5q-32 0 -56.5 24.5t-24.5 57.5
q0 35 24.5 59.5t56.5 24.5q35 0 59.5 -24.5t24.5 -59.5zM2354 2034q65 0 103 17t48 50q42 27 34 -14q-14 -47 -66 -88.5t-135 -41.5q-84 0 -119 41.5t-24 88.5q14 30 45 14q-7 -33 18.5 -50t95.5 -17z" />
    <glyph glyph-name="Egrave" unicode="&#xc8;" horiz-adv-x="1433" 
d="M679 -160q-98 0 -204.5 25.5t-195.5 89t-146.5 170t-57.5 268.5q0 119 68.5 230.5t190.5 198.5t290 141.5t369 62.5q-48 18 -92 45t-79.5 63.5t-57 85t-21.5 109.5q0 96 35.5 168t96 120t141.5 71.5t171 23.5q53 0 104.5 -11t91.5 -37t64.5 -68t24.5 -101q0 -47 -31 -86
t-82 -39q-74 0 -74 74q0 55 30 94t77 66q-41 38 -85 54.5t-89 16.5q-66 0 -129.5 -31.5t-112.5 -86t-78.5 -125t-29.5 -148.5q0 -47 15 -89t49 -76t88 -56.5t132 -30.5q33 -4 66 -7t60.5 -8t45 -10.5t17.5 -13.5q0 -10 -19.5 -35.5t-50.5 -52t-68.5 -47t-72.5 -20.5
q-45 0 -92.5 1t-94.5 1q-80 0 -172 -10.5t-185 -33t-179 -61.5t-151.5 -94t-105.5 -131t-40 -174q0 -117 50 -200t131 -134t181.5 -74.5t200.5 -23.5q176 0 304 40t212 102.5t125 140t41 153.5q0 80 -35 138.5t-90 96t-127 56t-145 18.5q-72 0 -140.5 -16.5t-122 -47
t-86 -76.5t-32.5 -103q0 -48 19.5 -80.5t51 -53t71.5 -30t81 -9.5q72 0 145.5 34t133.5 69q8 4 12 4q6 0 8 -7t2 -14q0 -12 -31.5 -31.5t-79 -38t-102.5 -31.5t-100 -13t-88 12t-77 37t-54.5 62.5t-20.5 89.5q0 69 34 121.5t90 88t128 53t149 17.5q82 0 162 -20.5
t143.5 -61.5t102.5 -101.5t39 -142.5q0 -90 -47 -183t-139.5 -168t-225.5 -122t-305 -47zM1316 1837q0 -16 -27 -16q-6 0 -51 12t-97 34.5t-94 54.5t-42 73q0 26 17.5 42.5t37.5 16.5q33 0 51.5 -16.5t40.5 -57.5q35 -59 63.5 -83.5t69.5 -36.5q31 -11 31 -23z" />
    <glyph glyph-name="Eacute" unicode="&#xc9;" horiz-adv-x="1433" 
d="M679 -160q-98 0 -204.5 25.5t-195.5 89t-146.5 170t-57.5 268.5q0 119 68.5 230.5t190.5 198.5t290 141.5t369 62.5q-48 18 -92 45t-79.5 63.5t-57 85t-21.5 109.5q0 96 35.5 168t96 120t141.5 71.5t171 23.5q53 0 104.5 -11t91.5 -37t64.5 -68t24.5 -101q0 -47 -31 -86
t-82 -39q-74 0 -74 74q0 55 30 94t77 66q-41 38 -85 54.5t-89 16.5q-66 0 -129.5 -31.5t-112.5 -86t-78.5 -125t-29.5 -148.5q0 -47 15 -89t49 -76t88 -56.5t132 -30.5q33 -4 66 -7t60.5 -8t45 -10.5t17.5 -13.5q0 -10 -19.5 -35.5t-50.5 -52t-68.5 -47t-72.5 -20.5
q-45 0 -92.5 1t-94.5 1q-80 0 -172 -10.5t-185 -33t-179 -61.5t-151.5 -94t-105.5 -131t-40 -174q0 -117 50 -200t131 -134t181.5 -74.5t200.5 -23.5q176 0 304 40t212 102.5t125 140t41 153.5q0 80 -35 138.5t-90 96t-127 56t-145 18.5q-72 0 -140.5 -16.5t-122 -47
t-86 -76.5t-32.5 -103q0 -48 19.5 -80.5t51 -53t71.5 -30t81 -9.5q72 0 145.5 34t133.5 69q8 4 12 4q6 0 8 -7t2 -14q0 -12 -31.5 -31.5t-79 -38t-102.5 -31.5t-100 -13t-88 12t-77 37t-54.5 62.5t-20.5 89.5q0 69 34 121.5t90 88t128 53t149 17.5q82 0 162 -20.5
t143.5 -61.5t102.5 -101.5t39 -142.5q0 -90 -47 -183t-139.5 -168t-225.5 -122t-305 -47zM1476 1989q0 -41 -42 -73t-94.5 -54.5t-97.5 -34.5t-51 -12q-26 0 -26 16q0 12 30 22q41 13 70 37.5t63 83.5q23 41 41.5 57.5t51.5 16.5q20 0 37.5 -16.5t17.5 -42.5z" />
    <glyph glyph-name="uni1EBA" unicode="&#x1eba;" horiz-adv-x="1433" 
d="M679 -160q-98 0 -204.5 25.5t-195.5 89t-146.5 170t-57.5 268.5q0 119 68.5 230.5t190.5 198.5t290 141.5t369 62.5q-48 18 -92 45t-79.5 63.5t-57 85t-21.5 109.5q0 96 35.5 168t96 120t141.5 71.5t171 23.5q53 0 104.5 -11t91.5 -37t64.5 -68t24.5 -101q0 -47 -31 -86
t-82 -39q-74 0 -74 74q0 55 30 94t77 66q-41 38 -85 54.5t-89 16.5q-66 0 -129.5 -31.5t-112.5 -86t-78.5 -125t-29.5 -148.5q0 -47 15 -89t49 -76t88 -56.5t132 -30.5q33 -4 66 -7t60.5 -8t45 -10.5t17.5 -13.5q0 -10 -19.5 -35.5t-50.5 -52t-68.5 -47t-72.5 -20.5
q-45 0 -92.5 1t-94.5 1q-80 0 -172 -10.5t-185 -33t-179 -61.5t-151.5 -94t-105.5 -131t-40 -174q0 -117 50 -200t131 -134t181.5 -74.5t200.5 -23.5q176 0 304 40t212 102.5t125 140t41 153.5q0 80 -35 138.5t-90 96t-127 56t-145 18.5q-72 0 -140.5 -16.5t-122 -47
t-86 -76.5t-32.5 -103q0 -48 19.5 -80.5t51 -53t71.5 -30t81 -9.5q72 0 145.5 34t133.5 69q8 4 12 4q6 0 8 -7t2 -14q0 -12 -31.5 -31.5t-79 -38t-102.5 -31.5t-100 -13t-88 12t-77 37t-54.5 62.5t-20.5 89.5q0 69 34 121.5t90 88t128 53t149 17.5q82 0 162 -20.5
t143.5 -61.5t102.5 -101.5t39 -142.5q0 -90 -47 -183t-139.5 -168t-225.5 -122t-305 -47zM1474 1992q1 6 0 10q-3 13 -14 19.5t-25 10t-29 4.5q-30 -1 -52 -3.5t-44 -15.5q25 -2 31 -11t6 -17q-1 -9 -11.5 -18t-34.5 -7q-27 2 -34.5 11.5t-2.5 20.5q1 12 9.5 22t28.5 20
t49.5 15.5t61.5 2.5q30 -3 52.5 -11t38.5 -20t23 -27.5t6 -31.5q-5 -37 -49 -66q-14 -13 -31 -22q-30 -17 -60.5 -29.5t-57 -25.5t-38.5 -28q-10 -12 7 -26q2 -2 8.5 -5t9.5 -6q8 -7 2 -14q-3 -3 -21.5 1.5t-34.5 17.5q-19 16 -27.5 47t9.5 54q12 14 44.5 31t68.5 34l69 34
q28 15 42 29z" />
    <glyph glyph-name="uni1EBC" unicode="&#x1ebc;" horiz-adv-x="1433" 
d="M679 -160q-98 0 -204.5 25.5t-195.5 89t-146.5 170t-57.5 268.5q0 119 68.5 230.5t190.5 198.5t290 141.5t369 62.5q-48 18 -92 45t-79.5 63.5t-57 85t-21.5 109.5q0 96 35.5 168t96 120t141.5 71.5t171 23.5q53 0 104.5 -11t91.5 -37t64.5 -68t24.5 -101q0 -47 -31 -86
t-82 -39q-74 0 -74 74q0 55 30 94t77 66q-41 38 -85 54.5t-89 16.5q-66 0 -129.5 -31.5t-112.5 -86t-78.5 -125t-29.5 -148.5q0 -47 15 -89t49 -76t88 -56.5t132 -30.5q33 -4 66 -7t60.5 -8t45 -10.5t17.5 -13.5q0 -10 -19.5 -35.5t-50.5 -52t-68.5 -47t-72.5 -20.5
q-45 0 -92.5 1t-94.5 1q-80 0 -172 -10.5t-185 -33t-179 -61.5t-151.5 -94t-105.5 -131t-40 -174q0 -117 50 -200t131 -134t181.5 -74.5t200.5 -23.5q176 0 304 40t212 102.5t125 140t41 153.5q0 80 -35 138.5t-90 96t-127 56t-145 18.5q-72 0 -140.5 -16.5t-122 -47
t-86 -76.5t-32.5 -103q0 -48 19.5 -80.5t51 -53t71.5 -30t81 -9.5q72 0 145.5 34t133.5 69q8 4 12 4q6 0 8 -7t2 -14q0 -12 -31.5 -31.5t-79 -38t-102.5 -31.5t-100 -13t-88 12t-77 37t-54.5 62.5t-20.5 89.5q0 69 34 121.5t90 88t128 53t149 17.5q82 0 162 -20.5
t143.5 -61.5t102.5 -101.5t39 -142.5q0 -90 -47 -183t-139.5 -168t-225.5 -122t-305 -47zM1544 1951q0 -63 -32 -107t-93 -44q-37 0 -75 14.5t-73 32.5t-66.5 32.5t-54.5 14.5q-18 0 -18 -26q0 -5 2 -13t2 -12q0 -12 -12 -12q-4 0 -14.5 20.5t-10.5 44.5q0 29 21.5 60.5
t56.5 31.5q22 0 62 -16t83 -36.5t83 -37t65 -16.5q18 0 32.5 16.5t14.5 50.5q0 27 10 27q6 0 11.5 -8t5.5 -17z" />
    <glyph glyph-name="uni1EB8" unicode="&#x1eb8;" horiz-adv-x="1433" 
d="M679 -160q-98 0 -204.5 25.5t-195.5 89t-146.5 170t-57.5 268.5q0 119 68.5 230.5t190.5 198.5t290 141.5t369 62.5q-48 18 -92 45t-79.5 63.5t-57 85t-21.5 109.5q0 96 35.5 168t96 120t141.5 71.5t171 23.5q53 0 104.5 -11t91.5 -37t64.5 -68t24.5 -101q0 -47 -31 -86
t-82 -39q-74 0 -74 74q0 55 30 94t77 66q-41 38 -85 54.5t-89 16.5q-66 0 -129.5 -31.5t-112.5 -86t-78.5 -125t-29.5 -148.5q0 -47 15 -89t49 -76t88 -56.5t132 -30.5q33 -4 66 -7t60.5 -8t45 -10.5t17.5 -13.5q0 -10 -19.5 -35.5t-50.5 -52t-68.5 -47t-72.5 -20.5
q-45 0 -92.5 1t-94.5 1q-80 0 -172 -10.5t-185 -33t-179 -61.5t-151.5 -94t-105.5 -131t-40 -174q0 -117 50 -200t131 -134t181.5 -74.5t200.5 -23.5q176 0 304 40t212 102.5t125 140t41 153.5q0 80 -35 138.5t-90 96t-127 56t-145 18.5q-72 0 -140.5 -16.5t-122 -47
t-86 -76.5t-32.5 -103q0 -48 19.5 -80.5t51 -53t71.5 -30t81 -9.5q72 0 145.5 34t133.5 69q8 4 12 4q6 0 8 -7t2 -14q0 -12 -31.5 -31.5t-79 -38t-102.5 -31.5t-100 -13t-88 12t-77 37t-54.5 62.5t-20.5 89.5q0 69 34 121.5t90 88t128 53t149 17.5q82 0 162 -20.5
t143.5 -61.5t102.5 -101.5t39 -142.5q0 -90 -47 -183t-139.5 -168t-225.5 -122t-305 -47zM489 -312q0 -33 -24.5 -57.5t-59.5 -24.5q-33 0 -57.5 24.5t-24.5 57.5q0 35 24.5 59.5t57.5 24.5q35 0 59.5 -24.5t24.5 -59.5z" />
    <glyph glyph-name="Ecircumflex" unicode="&#xca;" horiz-adv-x="1433" 
d="M679 -160q-98 0 -204.5 25.5t-195.5 89t-146.5 170t-57.5 268.5q0 119 68.5 230.5t190.5 198.5t290 141.5t369 62.5q-48 18 -92 45t-79.5 63.5t-57 85t-21.5 109.5q0 96 35.5 168t96 120t141.5 71.5t171 23.5q53 0 104.5 -11t91.5 -37t64.5 -68t24.5 -101q0 -47 -31 -86
t-82 -39q-74 0 -74 74q0 55 30 94t77 66q-41 38 -85 54.5t-89 16.5q-66 0 -129.5 -31.5t-112.5 -86t-78.5 -125t-29.5 -148.5q0 -47 15 -89t49 -76t88 -56.5t132 -30.5q33 -4 66 -7t60.5 -8t45 -10.5t17.5 -13.5q0 -10 -19.5 -35.5t-50.5 -52t-68.5 -47t-72.5 -20.5
q-45 0 -92.5 1t-94.5 1q-80 0 -172 -10.5t-185 -33t-179 -61.5t-151.5 -94t-105.5 -131t-40 -174q0 -117 50 -200t131 -134t181.5 -74.5t200.5 -23.5q176 0 304 40t212 102.5t125 140t41 153.5q0 80 -35 138.5t-90 96t-127 56t-145 18.5q-72 0 -140.5 -16.5t-122 -47
t-86 -76.5t-32.5 -103q0 -48 19.5 -80.5t51 -53t71.5 -30t81 -9.5q72 0 145.5 34t133.5 69q8 4 12 4q6 0 8 -7t2 -14q0 -12 -31.5 -31.5t-79 -38t-102.5 -31.5t-100 -13t-88 12t-77 37t-54.5 62.5t-20.5 89.5q0 69 34 121.5t90 88t128 53t149 17.5q82 0 162 -20.5
t143.5 -61.5t102.5 -101.5t39 -142.5q0 -90 -47 -183t-139.5 -168t-225.5 -122t-305 -47zM1492 1843q0 -10 -20.5 -24.5t-42.5 -14.5q-62 0 -105 39t-63 80l-70 -48t-72 -44q-12 -6 -21 -11t-15 -5q-17 0 -17 16q0 10 7.5 18.5t15.5 12.5q59 34 111.5 69t93.5 70q6 6 16 12
t18 6q17 0 31 -37q27 -71 50.5 -92.5t58.5 -29.5q24 -7 24 -17z" />
    <glyph glyph-name="uni1EC0" unicode="&#x1ec0;" horiz-adv-x="1433" 
d="M679 -160q-98 0 -204.5 25.5t-195.5 89t-146.5 170t-57.5 268.5q0 119 68.5 230.5t190.5 198.5t290 141.5t369 62.5q-48 18 -92 45t-79.5 63.5t-57 85t-21.5 109.5q0 96 35.5 168t96 120t141.5 71.5t171 23.5q53 0 104.5 -11t91.5 -37t64.5 -68t24.5 -101q0 -47 -31 -86
t-82 -39q-74 0 -74 74q0 55 30 94t77 66q-41 38 -85 54.5t-89 16.5q-66 0 -129.5 -31.5t-112.5 -86t-78.5 -125t-29.5 -148.5q0 -47 15 -89t49 -76t88 -56.5t132 -30.5q33 -4 66 -7t60.5 -8t45 -10.5t17.5 -13.5q0 -10 -19.5 -35.5t-50.5 -52t-68.5 -47t-72.5 -20.5
q-45 0 -92.5 1t-94.5 1q-80 0 -172 -10.5t-185 -33t-179 -61.5t-151.5 -94t-105.5 -131t-40 -174q0 -117 50 -200t131 -134t181.5 -74.5t200.5 -23.5q176 0 304 40t212 102.5t125 140t41 153.5q0 80 -35 138.5t-90 96t-127 56t-145 18.5q-72 0 -140.5 -16.5t-122 -47
t-86 -76.5t-32.5 -103q0 -48 19.5 -80.5t51 -53t71.5 -30t81 -9.5q72 0 145.5 34t133.5 69q8 4 12 4q6 0 8 -7t2 -14q0 -12 -31.5 -31.5t-79 -38t-102.5 -31.5t-100 -13t-88 12t-77 37t-54.5 62.5t-20.5 89.5q0 69 34 121.5t90 88t128 53t149 17.5q82 0 162 -20.5
t143.5 -61.5t102.5 -101.5t39 -142.5q0 -90 -47 -183t-139.5 -168t-225.5 -122t-305 -47zM1457 2045q0 -16 -27 -16q-6 0 -51 12t-97 34.5t-94 54.5t-42 73q0 26 17.5 42.5t37.5 16.5q33 0 51.5 -16.5t40.5 -57.5q35 -59 63.5 -83.5t69.5 -36.5q31 -11 31 -23zM1492 1843
q0 -10 -20.5 -24.5t-42.5 -14.5q-62 0 -105 39t-63 80l-70 -48t-72 -44q-12 -6 -21 -11t-15 -5q-17 0 -17 16q0 10 7.5 18.5t15.5 12.5q59 34 111.5 69t93.5 70q6 6 16 12t18 6q17 0 31 -37q27 -71 50.5 -92.5t58.5 -29.5q24 -7 24 -17z" />
    <glyph glyph-name="uni1EBE" unicode="&#x1ebe;" horiz-adv-x="1433" 
d="M679 -160q-98 0 -204.5 25.5t-195.5 89t-146.5 170t-57.5 268.5q0 119 68.5 230.5t190.5 198.5t290 141.5t369 62.5q-48 18 -92 45t-79.5 63.5t-57 85t-21.5 109.5q0 96 35.5 168t96 120t141.5 71.5t171 23.5q53 0 104.5 -11t91.5 -37t64.5 -68t24.5 -101q0 -47 -31 -86
t-82 -39q-74 0 -74 74q0 55 30 94t77 66q-41 38 -85 54.5t-89 16.5q-66 0 -129.5 -31.5t-112.5 -86t-78.5 -125t-29.5 -148.5q0 -47 15 -89t49 -76t88 -56.5t132 -30.5q33 -4 66 -7t60.5 -8t45 -10.5t17.5 -13.5q0 -10 -19.5 -35.5t-50.5 -52t-68.5 -47t-72.5 -20.5
q-45 0 -92.5 1t-94.5 1q-80 0 -172 -10.5t-185 -33t-179 -61.5t-151.5 -94t-105.5 -131t-40 -174q0 -117 50 -200t131 -134t181.5 -74.5t200.5 -23.5q176 0 304 40t212 102.5t125 140t41 153.5q0 80 -35 138.5t-90 96t-127 56t-145 18.5q-72 0 -140.5 -16.5t-122 -47
t-86 -76.5t-32.5 -103q0 -48 19.5 -80.5t51 -53t71.5 -30t81 -9.5q72 0 145.5 34t133.5 69q8 4 12 4q6 0 8 -7t2 -14q0 -12 -31.5 -31.5t-79 -38t-102.5 -31.5t-100 -13t-88 12t-77 37t-54.5 62.5t-20.5 89.5q0 69 34 121.5t90 88t128 53t149 17.5q82 0 162 -20.5
t143.5 -61.5t102.5 -101.5t39 -142.5q0 -90 -47 -183t-139.5 -168t-225.5 -122t-305 -47zM1731 2102q0 -41 -42 -73t-94.5 -54.5t-97.5 -34.5t-51 -12q-26 0 -26 16q0 12 30 22q41 13 70 37.5t63 83.5q23 41 41.5 57.5t51.5 16.5q20 0 37.5 -16.5t17.5 -42.5zM1492 1843
q0 -10 -20.5 -24.5t-42.5 -14.5q-62 0 -105 39t-63 80l-70 -48t-72 -44q-12 -6 -21 -11t-15 -5q-17 0 -17 16q0 10 7.5 18.5t15.5 12.5q59 34 111.5 69t93.5 70q6 6 16 12t18 6q17 0 31 -37q27 -71 50.5 -92.5t58.5 -29.5q24 -7 24 -17z" />
    <glyph glyph-name="uni1EC2" unicode="&#x1ec2;" horiz-adv-x="1433" 
d="M679 -160q-98 0 -204.5 25.5t-195.5 89t-146.5 170t-57.5 268.5q0 119 68.5 230.5t190.5 198.5t290 141.5t369 62.5q-48 18 -92 45t-79.5 63.5t-57 85t-21.5 109.5q0 96 35.5 168t96 120t141.5 71.5t171 23.5q53 0 104.5 -11t91.5 -37t64.5 -68t24.5 -101q0 -47 -31 -86
t-82 -39q-74 0 -74 74q0 55 30 94t77 66q-41 38 -85 54.5t-89 16.5q-66 0 -129.5 -31.5t-112.5 -86t-78.5 -125t-29.5 -148.5q0 -47 15 -89t49 -76t88 -56.5t132 -30.5q33 -4 66 -7t60.5 -8t45 -10.5t17.5 -13.5q0 -10 -19.5 -35.5t-50.5 -52t-68.5 -47t-72.5 -20.5
q-45 0 -92.5 1t-94.5 1q-80 0 -172 -10.5t-185 -33t-179 -61.5t-151.5 -94t-105.5 -131t-40 -174q0 -117 50 -200t131 -134t181.5 -74.5t200.5 -23.5q176 0 304 40t212 102.5t125 140t41 153.5q0 80 -35 138.5t-90 96t-127 56t-145 18.5q-72 0 -140.5 -16.5t-122 -47
t-86 -76.5t-32.5 -103q0 -48 19.5 -80.5t51 -53t71.5 -30t81 -9.5q72 0 145.5 34t133.5 69q8 4 12 4q6 0 8 -7t2 -14q0 -12 -31.5 -31.5t-79 -38t-102.5 -31.5t-100 -13t-88 12t-77 37t-54.5 62.5t-20.5 89.5q0 69 34 121.5t90 88t128 53t149 17.5q82 0 162 -20.5
t143.5 -61.5t102.5 -101.5t39 -142.5q0 -90 -47 -183t-139.5 -168t-225.5 -122t-305 -47zM1653 2152q1 6 0 10q-3 13 -14 19.5t-25 10t-29 4.5q-30 -1 -52 -3.5t-44 -15.5q25 -2 31 -11t6 -17q-1 -9 -11.5 -18t-34.5 -7q-27 2 -34.5 11.5t-2.5 20.5q1 12 9.5 22t28.5 20
t49.5 15.5t61.5 2.5q30 -3 52.5 -11t38.5 -20t23 -27.5t6 -31.5q-5 -37 -49 -66q-14 -13 -31 -22q-30 -17 -60.5 -29.5t-57 -25.5t-38.5 -28q-10 -12 7 -26q2 -2 8.5 -5t9.5 -6q8 -7 2 -14q-3 -3 -21.5 1.5t-34.5 17.5q-19 16 -27.5 47t9.5 54q12 14 44.5 31t68.5 34l69 34
q28 15 42 29zM1492 1843q0 -10 -20.5 -24.5t-42.5 -14.5q-62 0 -105 39t-63 80l-70 -48t-72 -44q-12 -6 -21 -11t-15 -5q-17 0 -17 16q0 10 7.5 18.5t15.5 12.5q59 34 111.5 69t93.5 70q6 6 16 12t18 6q17 0 31 -37q27 -71 50.5 -92.5t58.5 -29.5q24 -7 24 -17z" />
    <glyph glyph-name="uni1EC4" unicode="&#x1ec4;" horiz-adv-x="1433" 
d="M679 -160q-98 0 -204.5 25.5t-195.5 89t-146.5 170t-57.5 268.5q0 119 68.5 230.5t190.5 198.5t290 141.5t369 62.5q-48 18 -92 45t-79.5 63.5t-57 85t-21.5 109.5q0 96 35.5 168t96 120t141.5 71.5t171 23.5q53 0 104.5 -11t91.5 -37t64.5 -68t24.5 -101q0 -47 -31 -86
t-82 -39q-74 0 -74 74q0 55 30 94t77 66q-41 38 -85 54.5t-89 16.5q-66 0 -129.5 -31.5t-112.5 -86t-78.5 -125t-29.5 -148.5q0 -47 15 -89t49 -76t88 -56.5t132 -30.5q33 -4 66 -7t60.5 -8t45 -10.5t17.5 -13.5q0 -10 -19.5 -35.5t-50.5 -52t-68.5 -47t-72.5 -20.5
q-45 0 -92.5 1t-94.5 1q-80 0 -172 -10.5t-185 -33t-179 -61.5t-151.5 -94t-105.5 -131t-40 -174q0 -117 50 -200t131 -134t181.5 -74.5t200.5 -23.5q176 0 304 40t212 102.5t125 140t41 153.5q0 80 -35 138.5t-90 96t-127 56t-145 18.5q-72 0 -140.5 -16.5t-122 -47
t-86 -76.5t-32.5 -103q0 -48 19.5 -80.5t51 -53t71.5 -30t81 -9.5q72 0 145.5 34t133.5 69q8 4 12 4q6 0 8 -7t2 -14q0 -12 -31.5 -31.5t-79 -38t-102.5 -31.5t-100 -13t-88 12t-77 37t-54.5 62.5t-20.5 89.5q0 69 34 121.5t90 88t128 53t149 17.5q82 0 162 -20.5
t143.5 -61.5t102.5 -101.5t39 -142.5q0 -90 -47 -183t-139.5 -168t-225.5 -122t-305 -47zM1638 2149q0 -63 -32 -107t-93 -44q-37 0 -75 14.5t-73 32.5t-66.5 32.5t-54.5 14.5q-18 0 -18 -26q0 -5 2 -13t2 -12q0 -12 -12 -12q-4 0 -14.5 20.5t-10.5 44.5q0 29 21.5 60.5
t56.5 31.5q22 0 62 -16t83 -36.5t83 -37t65 -16.5q18 0 32.5 16.5t14.5 50.5q0 27 10 27q6 0 11.5 -8t5.5 -17zM1492 1843q0 -10 -20.5 -24.5t-42.5 -14.5q-62 0 -105 39t-63 80l-70 -48t-72 -44q-12 -6 -21 -11t-15 -5q-17 0 -17 16q0 10 7.5 18.5t15.5 12.5
q59 34 111.5 69t93.5 70q6 6 16 12t18 6q17 0 31 -37q27 -71 50.5 -92.5t58.5 -29.5q24 -7 24 -17z" />
    <glyph glyph-name="uni1EC6" unicode="&#x1ec6;" horiz-adv-x="1433" 
d="M679 -160q-98 0 -204.5 25.5t-195.5 89t-146.5 170t-57.5 268.5q0 119 68.5 230.5t190.5 198.5t290 141.5t369 62.5q-48 18 -92 45t-79.5 63.5t-57 85t-21.5 109.5q0 96 35.5 168t96 120t141.5 71.5t171 23.5q53 0 104.5 -11t91.5 -37t64.5 -68t24.5 -101q0 -47 -31 -86
t-82 -39q-74 0 -74 74q0 55 30 94t77 66q-41 38 -85 54.5t-89 16.5q-66 0 -129.5 -31.5t-112.5 -86t-78.5 -125t-29.5 -148.5q0 -47 15 -89t49 -76t88 -56.5t132 -30.5q33 -4 66 -7t60.5 -8t45 -10.5t17.5 -13.5q0 -10 -19.5 -35.5t-50.5 -52t-68.5 -47t-72.5 -20.5
q-45 0 -92.5 1t-94.5 1q-80 0 -172 -10.5t-185 -33t-179 -61.5t-151.5 -94t-105.5 -131t-40 -174q0 -117 50 -200t131 -134t181.5 -74.5t200.5 -23.5q176 0 304 40t212 102.5t125 140t41 153.5q0 80 -35 138.5t-90 96t-127 56t-145 18.5q-72 0 -140.5 -16.5t-122 -47
t-86 -76.5t-32.5 -103q0 -48 19.5 -80.5t51 -53t71.5 -30t81 -9.5q72 0 145.5 34t133.5 69q8 4 12 4q6 0 8 -7t2 -14q0 -12 -31.5 -31.5t-79 -38t-102.5 -31.5t-100 -13t-88 12t-77 37t-54.5 62.5t-20.5 89.5q0 69 34 121.5t90 88t128 53t149 17.5q82 0 162 -20.5
t143.5 -61.5t102.5 -101.5t39 -142.5q0 -90 -47 -183t-139.5 -168t-225.5 -122t-305 -47zM489 -312q0 -33 -24.5 -57.5t-59.5 -24.5q-33 0 -57.5 24.5t-24.5 57.5q0 35 24.5 59.5t57.5 24.5q35 0 59.5 -24.5t24.5 -59.5zM1492 1843q0 -10 -20.5 -24.5t-42.5 -14.5
q-62 0 -105 39t-63 80l-70 -48t-72 -44q-12 -6 -21 -11t-15 -5q-17 0 -17 16q0 10 7.5 18.5t15.5 12.5q59 34 111.5 69t93.5 70q6 6 16 12t18 6q17 0 31 -37q27 -71 50.5 -92.5t58.5 -29.5q24 -7 24 -17z" />
    <glyph glyph-name="Igrave" unicode="&#xcc;" horiz-adv-x="1757" 
d="M1642 1300q-33 0 -59.5 16.5t-45 43t-28 60.5t-9.5 71t10.5 70.5t34 61.5t58.5 44t84 16q76 0 131 -48t89 -118.5t50.5 -148.5t16.5 -137q0 -170 -42 -345t-121 -339t-190.5 -308.5t-252 -252t-306.5 -170t-350 -62.5q-145 0 -263 49.5t-202 137.5t-129 207.5t-45 261.5
q0 151 58.5 302.5t163 273.5t247.5 198t313 76q92 0 174 -19.5t146.5 -65t106.5 -116t53 -174.5q81 -4 117 -24.5t36 -39.5q0 -4 -4 -10t-8 -6q-8 0 -17.5 5t-23.5 11t-36.5 11.5t-59.5 7.5v-21q0 -110 -43 -224t-115 -206t-166 -151.5t-199 -59.5q-41 0 -77.5 12.5
t-65.5 37t-46 62.5t-17 87q0 119 65.5 213t166.5 158.5t223 99.5t233 37q0 12 -2 24.5l-4 24.5q-7 57 -42.5 108.5t-91 89t-128 60t-152.5 22.5q-150 0 -288 -65.5t-244.5 -174t-170 -249.5t-63.5 -293q0 -129 37 -243.5t108.5 -200.5t175 -137.5t238.5 -51.5
q152 0 283 55.5t241.5 147.5t201.5 213t161.5 254t123 268t87.5 256t51 219.5t16 155.5q0 43 -6 90t-24.5 87t-51 65.5t-84.5 25.5q-38 0 -65 -18.5t-31 -67.5q12 0 22.5 3t22.5 3q27 0 47.5 -14t34.5 -36.5t20.5 -50.5t6.5 -52q0 -35 -21.5 -69t-64.5 -34zM827 221
q80 0 163.5 55.5t152.5 143.5t113 198.5t44 223.5q-117 -2 -232.5 -37t-209 -97.5t-152 -150.5t-58.5 -199q0 -34 16.5 -60t43.5 -42t57.5 -25.5t61.5 -9.5zM1822 1776q0 -17 -27 -17q-6 0 -51 12.5t-97 35t-94 54t-42 72.5q0 27 17.5 43.5t37.5 16.5q33 0 51.5 -16.5
t40.5 -57.5q35 -59 63.5 -84t69.5 -37q31 -10 31 -22z" />
    <glyph glyph-name="Iacute" unicode="&#xcd;" horiz-adv-x="1757" 
d="M1642 1300q-33 0 -59.5 16.5t-45 43t-28 60.5t-9.5 71t10.5 70.5t34 61.5t58.5 44t84 16q76 0 131 -48t89 -118.5t50.5 -148.5t16.5 -137q0 -170 -42 -345t-121 -339t-190.5 -308.5t-252 -252t-306.5 -170t-350 -62.5q-145 0 -263 49.5t-202 137.5t-129 207.5t-45 261.5
q0 151 58.5 302.5t163 273.5t247.5 198t313 76q92 0 174 -19.5t146.5 -65t106.5 -116t53 -174.5q81 -4 117 -24.5t36 -39.5q0 -4 -4 -10t-8 -6q-8 0 -17.5 5t-23.5 11t-36.5 11.5t-59.5 7.5v-21q0 -110 -43 -224t-115 -206t-166 -151.5t-199 -59.5q-41 0 -77.5 12.5
t-65.5 37t-46 62.5t-17 87q0 119 65.5 213t166.5 158.5t223 99.5t233 37q0 12 -2 24.5l-4 24.5q-7 57 -42.5 108.5t-91 89t-128 60t-152.5 22.5q-150 0 -288 -65.5t-244.5 -174t-170 -249.5t-63.5 -293q0 -129 37 -243.5t108.5 -200.5t175 -137.5t238.5 -51.5
q152 0 283 55.5t241.5 147.5t201.5 213t161.5 254t123 268t87.5 256t51 219.5t16 155.5q0 43 -6 90t-24.5 87t-51 65.5t-84.5 25.5q-38 0 -65 -18.5t-31 -67.5q12 0 22.5 3t22.5 3q27 0 47.5 -14t34.5 -36.5t20.5 -50.5t6.5 -52q0 -35 -21.5 -69t-64.5 -34zM827 221
q80 0 163.5 55.5t152.5 143.5t113 198.5t44 223.5q-117 -2 -232.5 -37t-209 -97.5t-152 -150.5t-58.5 -199q0 -34 16.5 -60t43.5 -42t57.5 -25.5t61.5 -9.5zM1924 1950q0 -41 -42 -73t-94 -54.5t-97 -34.5t-51 -12q-27 0 -27 16q0 12 31 23q41 12 69.5 36.5t63.5 83.5
q22 41 40.5 57.5t51.5 16.5q21 0 38 -16.5t17 -42.5z" />
    <glyph glyph-name="uni1EC8" unicode="&#x1ec8;" horiz-adv-x="1824" 
d="M1642 1300q-33 0 -59.5 16.5t-45 43t-28 60.5t-9.5 71t10.5 70.5t34 61.5t58.5 44t84 16q76 0 131 -48t89 -118.5t50.5 -148.5t16.5 -137q0 -170 -42 -345t-121 -339t-190.5 -308.5t-252 -252t-306.5 -170t-350 -62.5q-145 0 -263 49.5t-202 137.5t-129 207.5t-45 261.5
q0 151 58.5 302.5t163 273.5t247.5 198t313 76q92 0 174 -19.5t146.5 -65t106.5 -116t53 -174.5q81 -4 117 -24.5t36 -39.5q0 -4 -4 -10t-8 -6q-8 0 -17.5 5t-23.5 11t-36.5 11.5t-59.5 7.5v-21q0 -110 -43 -224t-115 -206t-166 -151.5t-199 -59.5q-41 0 -77.5 12.5
t-65.5 37t-46 62.5t-17 87q0 119 65.5 213t166.5 158.5t223 99.5t233 37q0 12 -2 24.5l-4 24.5q-7 57 -42.5 108.5t-91 89t-128 60t-152.5 22.5q-150 0 -288 -65.5t-244.5 -174t-170 -249.5t-63.5 -293q0 -129 37 -243.5t108.5 -200.5t175 -137.5t238.5 -51.5
q152 0 283 55.5t241.5 147.5t201.5 213t161.5 254t123 268t87.5 256t51 219.5t16 155.5q0 43 -6 90t-24.5 87t-51 65.5t-84.5 25.5q-38 0 -65 -18.5t-31 -67.5q12 0 22.5 3t22.5 3q27 0 47.5 -14t34.5 -36.5t20.5 -50.5t6.5 -52q0 -35 -21.5 -69t-64.5 -34zM827 221
q80 0 163.5 55.5t152.5 143.5t113 198.5t44 223.5q-117 -2 -232.5 -37t-209 -97.5t-152 -150.5t-58.5 -199q0 -34 16.5 -60t43.5 -42t57.5 -25.5t61.5 -9.5zM1964 1992q1 6 0 10q-3 13 -14 19.5t-25 10t-29 4.5q-30 -1 -52 -3.5t-44 -15.5q26 -2 31.5 -11t5.5 -17
q-1 -9 -11 -18t-35 -7q-26 2 -34 11.5t-2 20.5q1 12 9.5 22t28 20t49.5 15.5t62 2.5q29 -3 51.5 -11t39 -20t23.5 -27.5t5 -31.5q-5 -37 -48 -66q-14 -13 -32 -22q-30 -17 -60.5 -29.5t-56.5 -25.5t-39 -28q-10 -12 7 -26q3 -2 9.5 -5t9.5 -6q8 -7 1 -14q-3 -3 -21.5 1.5
t-34.5 17.5q-19 16 -27.5 47t9.5 54q12 14 44.5 31t69 34t68.5 34q29 15 42 29z" />
    <glyph glyph-name="Itilde" unicode="&#x128;" horiz-adv-x="1824" 
d="M1642 1300q-33 0 -59.5 16.5t-45 43t-28 60.5t-9.5 71t10.5 70.5t34 61.5t58.5 44t84 16q76 0 131 -48t89 -118.5t50.5 -148.5t16.5 -137q0 -170 -42 -345t-121 -339t-190.5 -308.5t-252 -252t-306.5 -170t-350 -62.5q-145 0 -263 49.5t-202 137.5t-129 207.5t-45 261.5
q0 151 58.5 302.5t163 273.5t247.5 198t313 76q92 0 174 -19.5t146.5 -65t106.5 -116t53 -174.5q81 -4 117 -24.5t36 -39.5q0 -4 -4 -10t-8 -6q-8 0 -17.5 5t-23.5 11t-36.5 11.5t-59.5 7.5v-21q0 -110 -43 -224t-115 -206t-166 -151.5t-199 -59.5q-41 0 -77.5 12.5
t-65.5 37t-46 62.5t-17 87q0 119 65.5 213t166.5 158.5t223 99.5t233 37q0 12 -2 24.5l-4 24.5q-7 57 -42.5 108.5t-91 89t-128 60t-152.5 22.5q-150 0 -288 -65.5t-244.5 -174t-170 -249.5t-63.5 -293q0 -129 37 -243.5t108.5 -200.5t175 -137.5t238.5 -51.5
q152 0 283 55.5t241.5 147.5t201.5 213t161.5 254t123 268t87.5 256t51 219.5t16 155.5q0 43 -6 90t-24.5 87t-51 65.5t-84.5 25.5q-38 0 -65 -18.5t-31 -67.5q12 0 22.5 3t22.5 3q27 0 47.5 -14t34.5 -36.5t20.5 -50.5t6.5 -52q0 -35 -21.5 -69t-64.5 -34zM827 221
q80 0 163.5 55.5t152.5 143.5t113 198.5t44 223.5q-117 -2 -232.5 -37t-209 -97.5t-152 -150.5t-58.5 -199q0 -34 16.5 -60t43.5 -42t57.5 -25.5t61.5 -9.5zM2053 1951q0 -63 -32 -107t-93 -44q-37 0 -75 14.5t-72.5 32.5t-66.5 32.5t-54 14.5q-19 0 -19 -26q0 -5 2 -13
t2 -12q0 -12 -12 -12q-4 0 -14.5 20.5t-10.5 44.5q0 29 21.5 60.5t56.5 31.5q23 0 63 -16t83 -36.5t82.5 -37t64.5 -16.5q18 0 32.5 16.5t14.5 50.5q0 27 10 27q7 0 12 -8t5 -17z" />
    <glyph glyph-name="uni1ECA" unicode="&#x1eca;" horiz-adv-x="1824" 
d="M1642 1300q-33 0 -59.5 16.5t-45 43t-28 60.5t-9.5 71t10.5 70.5t34 61.5t58.5 44t84 16q76 0 131 -48t89 -118.5t50.5 -148.5t16.5 -137q0 -170 -42 -345t-121 -339t-190.5 -308.5t-252 -252t-306.5 -170t-350 -62.5q-145 0 -263 49.5t-202 137.5t-129 207.5t-45 261.5
q0 151 58.5 302.5t163 273.5t247.5 198t313 76q92 0 174 -19.5t146.5 -65t106.5 -116t53 -174.5q81 -4 117 -24.5t36 -39.5q0 -4 -4 -10t-8 -6q-8 0 -17.5 5t-23.5 11t-36.5 11.5t-59.5 7.5v-21q0 -110 -43 -224t-115 -206t-166 -151.5t-199 -59.5q-41 0 -77.5 12.5
t-65.5 37t-46 62.5t-17 87q0 119 65.5 213t166.5 158.5t223 99.5t233 37q0 12 -2 24.5l-4 24.5q-7 57 -42.5 108.5t-91 89t-128 60t-152.5 22.5q-150 0 -288 -65.5t-244.5 -174t-170 -249.5t-63.5 -293q0 -129 37 -243.5t108.5 -200.5t175 -137.5t238.5 -51.5
q152 0 283 55.5t241.5 147.5t201.5 213t161.5 254t123 268t87.5 256t51 219.5t16 155.5q0 43 -6 90t-24.5 87t-51 65.5t-84.5 25.5q-38 0 -65 -18.5t-31 -67.5q12 0 22.5 3t22.5 3q27 0 47.5 -14t34.5 -36.5t20.5 -50.5t6.5 -52q0 -35 -21.5 -69t-64.5 -34zM827 221
q80 0 163.5 55.5t152.5 143.5t113 198.5t44 223.5q-117 -2 -232.5 -37t-209 -97.5t-152 -150.5t-58.5 -199q0 -34 16.5 -60t43.5 -42t57.5 -25.5t61.5 -9.5zM1347 -312q0 -33 -24.5 -57.5t-59.5 -24.5q-33 0 -57.5 24.5t-24.5 57.5q0 35 24.5 59.5t57.5 24.5
q35 0 59.5 -24.5t24.5 -59.5z" />
    <glyph glyph-name="Ograve" unicode="&#xd2;" horiz-adv-x="1681" 
d="M1718 1012q0 8 -1 14t-1 14q-78 -143 -193.5 -272t-247.5 -227.5t-266.5 -156.5t-246.5 -58q-84 0 -144.5 27.5t-100.5 71.5t-59.5 100.5t-19.5 111.5q0 82 33 179t92 193.5t142 186.5t184.5 159.5t218 112.5t241.5 45q68 70 143 112t144 42q109 0 151 -65.5t42 -167.5
q0 -72 -16.5 -143.5t-45.5 -143.5q4 -25 7 -52.5t3 -56.5q0 -149 -40.5 -290.5t-112.5 -267.5t-172.5 -230.5t-219 -180t-252.5 -117.5t-274 -42q-147 0 -261.5 55t-192.5 147.5t-118 215.5t-40 258q0 153 47 293.5t128 261.5t191.5 219t238.5 166.5t265.5 106.5t274.5 38
q10 0 10 -14q0 -8 -10 -10q-15 -5 -49.5 -9t-102.5 -24q-174 -53 -320.5 -164t-254 -261.5t-168 -330.5t-60.5 -371q0 -141 44.5 -241.5t115 -165t160.5 -94t182 -29.5q101 0 209.5 43t212 119t196.5 177t162.5 219t110.5 245t41 252zM1147 954q0 -26 -19 -26q-10 0 -17 10
t-7 27q0 133 60 269t151 241q-101 -9 -202 -50t-193.5 -105.5t-172.5 -146t-138 -170t-92 -179.5t-34 -173q0 -61 20.5 -113.5t56.5 -91t87 -60t113 -21.5q120 0 258.5 66.5t269.5 176t241.5 246.5t178.5 279q-10 69 -36 130.5t-67 107.5t-99 74t-134 32q-47 -52 -88 -115.5
t-72 -131t-48 -138t-17 -138.5zM1622 1624q-53 0 -108.5 -30.5t-108.5 -84.5q45 -6 95 -27.5t96 -57t86 -87t65 -116.5q41 112 41 213q0 92 -31 141t-135 49zM1448 1782q0 -17 -27 -17q-6 0 -51 12.5t-97.5 35t-94.5 54t-42 72.5q0 27 17.5 43.5t38.5 16.5q32 0 50.5 -16.5
t41.5 -57.5q35 -59 63.5 -83.5t69.5 -37.5q31 -10 31 -22z" />
    <glyph glyph-name="Oacute" unicode="&#xd3;" horiz-adv-x="1681" 
d="M1718 1012q0 8 -1 14t-1 14q-78 -143 -193.5 -272t-247.5 -227.5t-266.5 -156.5t-246.5 -58q-84 0 -144.5 27.5t-100.5 71.5t-59.5 100.5t-19.5 111.5q0 82 33 179t92 193.5t142 186.5t184.5 159.5t218 112.5t241.5 45q68 70 143 112t144 42q109 0 151 -65.5t42 -167.5
q0 -72 -16.5 -143.5t-45.5 -143.5q4 -25 7 -52.5t3 -56.5q0 -149 -40.5 -290.5t-112.5 -267.5t-172.5 -230.5t-219 -180t-252.5 -117.5t-274 -42q-147 0 -261.5 55t-192.5 147.5t-118 215.5t-40 258q0 153 47 293.5t128 261.5t191.5 219t238.5 166.5t265.5 106.5t274.5 38
q10 0 10 -14q0 -8 -10 -10q-15 -5 -49.5 -9t-102.5 -24q-174 -53 -320.5 -164t-254 -261.5t-168 -330.5t-60.5 -371q0 -141 44.5 -241.5t115 -165t160.5 -94t182 -29.5q101 0 209.5 43t212 119t196.5 177t162.5 219t110.5 245t41 252zM1147 954q0 -26 -19 -26q-10 0 -17 10
t-7 27q0 133 60 269t151 241q-101 -9 -202 -50t-193.5 -105.5t-172.5 -146t-138 -170t-92 -179.5t-34 -173q0 -61 20.5 -113.5t56.5 -91t87 -60t113 -21.5q120 0 258.5 66.5t269.5 176t241.5 246.5t178.5 279q-10 69 -36 130.5t-67 107.5t-99 74t-134 32q-47 -52 -88 -115.5
t-72 -131t-48 -138t-17 -138.5zM1622 1624q-53 0 -108.5 -30.5t-108.5 -84.5q45 -6 95 -27.5t96 -57t86 -87t65 -116.5q41 112 41 213q0 92 -31 141t-135 49zM1665 1909q0 -41 -42 -73t-94.5 -54.5t-97.5 -34.5t-51 -12q-26 0 -26 16q0 12 30 23q41 12 70 36.5t63 83.5
q23 41 41.5 57.5t51.5 16.5q20 0 37.5 -16.5t17.5 -42.5z" />
    <glyph glyph-name="uni1ECE" unicode="&#x1ece;" horiz-adv-x="1681" 
d="M1718 1012q0 8 -1 14t-1 14q-78 -143 -193.5 -272t-247.5 -227.5t-266.5 -156.5t-246.5 -58q-84 0 -144.5 27.5t-100.5 71.5t-59.5 100.5t-19.5 111.5q0 82 33 179t92 193.5t142 186.5t184.5 159.5t218 112.5t241.5 45q68 70 143 112t144 42q109 0 151 -65.5t42 -167.5
q0 -72 -16.5 -143.5t-45.5 -143.5q4 -25 7 -52.5t3 -56.5q0 -149 -40.5 -290.5t-112.5 -267.5t-172.5 -230.5t-219 -180t-252.5 -117.5t-274 -42q-147 0 -261.5 55t-192.5 147.5t-118 215.5t-40 258q0 153 47 293.5t128 261.5t191.5 219t238.5 166.5t265.5 106.5t274.5 38
q10 0 10 -14q0 -8 -10 -10q-15 -5 -49.5 -9t-102.5 -24q-174 -53 -320.5 -164t-254 -261.5t-168 -330.5t-60.5 -371q0 -141 44.5 -241.5t115 -165t160.5 -94t182 -29.5q101 0 209.5 43t212 119t196.5 177t162.5 219t110.5 245t41 252zM1147 954q0 -26 -19 -26q-10 0 -17 10
t-7 27q0 133 60 269t151 241q-101 -9 -202 -50t-193.5 -105.5t-172.5 -146t-138 -170t-92 -179.5t-34 -173q0 -61 20.5 -113.5t56.5 -91t87 -60t113 -21.5q120 0 258.5 66.5t269.5 176t241.5 246.5t178.5 279q-10 69 -36 130.5t-67 107.5t-99 74t-134 32q-47 -52 -88 -115.5
t-72 -131t-48 -138t-17 -138.5zM1622 1624q-53 0 -108.5 -30.5t-108.5 -84.5q45 -6 95 -27.5t96 -57t86 -87t65 -116.5q41 112 41 213q0 92 -31 141t-135 49zM1616 1992q1 6 -1 10q-3 13 -13.5 19.5t-24.5 10t-30 4.5q-29 -1 -51.5 -3.5t-43.5 -15.5q25 -2 31 -11t5 -17
q-1 -9 -11 -18t-34 -7q-27 2 -34.5 11.5t-2.5 20.5q1 12 9.5 22t28.5 20t49.5 15.5t61.5 2.5q29 -3 52 -11t39 -20t23 -27.5t6 -31.5q-6 -37 -49 -66q-14 -13 -31 -22q-30 -17 -61 -29.5t-57 -25.5t-38 -28q-11 -12 7 -26q2 -2 8.5 -5t9.5 -6q8 -7 2 -14q-3 -3 -22 1.5
t-34 17.5q-19 16 -27.5 47t9.5 54q12 14 44.5 31t68.5 34l69 34q28 15 42 29z" />
    <glyph glyph-name="Otilde" unicode="&#xd5;" horiz-adv-x="1681" 
d="M1718 1012q0 8 -1 14t-1 14q-78 -143 -193.5 -272t-247.5 -227.5t-266.5 -156.5t-246.5 -58q-84 0 -144.5 27.5t-100.5 71.5t-59.5 100.5t-19.5 111.5q0 82 33 179t92 193.5t142 186.5t184.5 159.5t218 112.5t241.5 45q68 70 143 112t144 42q109 0 151 -65.5t42 -167.5
q0 -72 -16.5 -143.5t-45.5 -143.5q4 -25 7 -52.5t3 -56.5q0 -149 -40.5 -290.5t-112.5 -267.5t-172.5 -230.5t-219 -180t-252.5 -117.5t-274 -42q-147 0 -261.5 55t-192.5 147.5t-118 215.5t-40 258q0 153 47 293.5t128 261.5t191.5 219t238.5 166.5t265.5 106.5t274.5 38
q10 0 10 -14q0 -8 -10 -10q-15 -5 -49.5 -9t-102.5 -24q-174 -53 -320.5 -164t-254 -261.5t-168 -330.5t-60.5 -371q0 -141 44.5 -241.5t115 -165t160.5 -94t182 -29.5q101 0 209.5 43t212 119t196.5 177t162.5 219t110.5 245t41 252zM1147 954q0 -26 -19 -26q-10 0 -17 10
t-7 27q0 133 60 269t151 241q-101 -9 -202 -50t-193.5 -105.5t-172.5 -146t-138 -170t-92 -179.5t-34 -173q0 -61 20.5 -113.5t56.5 -91t87 -60t113 -21.5q120 0 258.5 66.5t269.5 176t241.5 246.5t178.5 279q-10 69 -36 130.5t-67 107.5t-99 74t-134 32q-47 -52 -88 -115.5
t-72 -131t-48 -138t-17 -138.5zM1622 1624q-53 0 -108.5 -30.5t-108.5 -84.5q45 -6 95 -27.5t96 -57t86 -87t65 -116.5q41 112 41 213q0 92 -31 141t-135 49zM1644 1886q0 -63 -31.5 -107t-93.5 -44q-36 0 -74 14t-73 32.5t-66.5 33t-54.5 14.5q-18 0 -18 -27q0 -4 2 -12
t2 -12q0 -13 -13 -13q-4 0 -14 20.5t-10 45.5q0 29 21.5 60.5t56.5 31.5q22 0 62 -16.5t83 -37t83 -36.5t65 -16q18 0 32.5 16t14.5 51q0 27 10 27q6 0 11 -8.5t5 -16.5z" />
    <glyph glyph-name="uni1ECC" unicode="&#x1ecc;" horiz-adv-x="1681" 
d="M1718 1012q0 8 -1 14t-1 14q-78 -143 -193.5 -272t-247.5 -227.5t-266.5 -156.5t-246.5 -58q-84 0 -144.5 27.5t-100.5 71.5t-59.5 100.5t-19.5 111.5q0 82 33 179t92 193.5t142 186.5t184.5 159.5t218 112.5t241.5 45q68 70 143 112t144 42q109 0 151 -65.5t42 -167.5
q0 -72 -16.5 -143.5t-45.5 -143.5q4 -25 7 -52.5t3 -56.5q0 -149 -40.5 -290.5t-112.5 -267.5t-172.5 -230.5t-219 -180t-252.5 -117.5t-274 -42q-147 0 -261.5 55t-192.5 147.5t-118 215.5t-40 258q0 153 47 293.5t128 261.5t191.5 219t238.5 166.5t265.5 106.5t274.5 38
q10 0 10 -14q0 -8 -10 -10q-15 -5 -49.5 -9t-102.5 -24q-174 -53 -320.5 -164t-254 -261.5t-168 -330.5t-60.5 -371q0 -141 44.5 -241.5t115 -165t160.5 -94t182 -29.5q101 0 209.5 43t212 119t196.5 177t162.5 219t110.5 245t41 252zM1147 954q0 -26 -19 -26q-10 0 -17 10
t-7 27q0 133 60 269t151 241q-101 -9 -202 -50t-193.5 -105.5t-172.5 -146t-138 -170t-92 -179.5t-34 -173q0 -61 20.5 -113.5t56.5 -91t87 -60t113 -21.5q120 0 258.5 66.5t269.5 176t241.5 246.5t178.5 279q-10 69 -36 130.5t-67 107.5t-99 74t-134 32q-47 -52 -88 -115.5
t-72 -131t-48 -138t-17 -138.5zM1622 1624q-53 0 -108.5 -30.5t-108.5 -84.5q45 -6 95 -27.5t96 -57t86 -87t65 -116.5q41 112 41 213q0 92 -31 141t-135 49zM658 -312q0 -33 -24.5 -57.5t-58.5 -24.5q-33 0 -57.5 24.5t-24.5 57.5q0 35 24.5 59.5t57.5 24.5
q34 0 58.5 -24.5t24.5 -59.5z" />
    <glyph glyph-name="Ocircumflex" unicode="&#xd4;" horiz-adv-x="1681" 
d="M1718 1012q0 8 -1 14t-1 14q-78 -143 -193.5 -272t-247.5 -227.5t-266.5 -156.5t-246.5 -58q-84 0 -144.5 27.5t-100.5 71.5t-59.5 100.5t-19.5 111.5q0 82 33 179t92 193.5t142 186.5t184.5 159.5t218 112.5t241.5 45q68 70 143 112t144 42q109 0 151 -65.5t42 -167.5
q0 -72 -16.5 -143.5t-45.5 -143.5q4 -25 7 -52.5t3 -56.5q0 -149 -40.5 -290.5t-112.5 -267.5t-172.5 -230.5t-219 -180t-252.5 -117.5t-274 -42q-147 0 -261.5 55t-192.5 147.5t-118 215.5t-40 258q0 153 47 293.5t128 261.5t191.5 219t238.5 166.5t265.5 106.5t274.5 38
q10 0 10 -14q0 -8 -10 -10q-15 -5 -49.5 -9t-102.5 -24q-174 -53 -320.5 -164t-254 -261.5t-168 -330.5t-60.5 -371q0 -141 44.5 -241.5t115 -165t160.5 -94t182 -29.5q101 0 209.5 43t212 119t196.5 177t162.5 219t110.5 245t41 252zM1147 954q0 -26 -19 -26q-10 0 -17 10
t-7 27q0 133 60 269t151 241q-101 -9 -202 -50t-193.5 -105.5t-172.5 -146t-138 -170t-92 -179.5t-34 -173q0 -61 20.5 -113.5t56.5 -91t87 -60t113 -21.5q120 0 258.5 66.5t269.5 176t241.5 246.5t178.5 279q-10 69 -36 130.5t-67 107.5t-99 74t-134 32q-47 -52 -88 -115.5
t-72 -131t-48 -138t-17 -138.5zM1622 1624q-53 0 -108.5 -30.5t-108.5 -84.5q45 -6 95 -27.5t96 -57t86 -87t65 -116.5q41 112 41 213q0 92 -31 141t-135 49zM1663 1786q0 -10 -20.5 -24.5t-43.5 -14.5q-61 0 -104 39t-64 80q-30 -23 -69 -48.5t-72 -43.5q-12 -7 -21.5 -12
t-15.5 -5q-16 0 -16 17q0 10 7 18t15 12q60 35 112 70t93 70q6 6 16.5 12t18.5 6q16 0 31 -37q26 -72 49.5 -93.5t58.5 -29.5q25 -6 25 -16z" />
    <glyph glyph-name="uni1ED2" unicode="&#x1ed2;" horiz-adv-x="1681" 
d="M1718 1012q0 8 -1 14t-1 14q-78 -143 -193.5 -272t-247.5 -227.5t-266.5 -156.5t-246.5 -58q-84 0 -144.5 27.5t-100.5 71.5t-59.5 100.5t-19.5 111.5q0 82 33 179t92 193.5t142 186.5t184.5 159.5t218 112.5t241.5 45q68 70 143 112t144 42q109 0 151 -65.5t42 -167.5
q0 -72 -16.5 -143.5t-45.5 -143.5q4 -25 7 -52.5t3 -56.5q0 -149 -40.5 -290.5t-112.5 -267.5t-172.5 -230.5t-219 -180t-252.5 -117.5t-274 -42q-147 0 -261.5 55t-192.5 147.5t-118 215.5t-40 258q0 153 47 293.5t128 261.5t191.5 219t238.5 166.5t265.5 106.5t274.5 38
q10 0 10 -14q0 -8 -10 -10q-15 -5 -49.5 -9t-102.5 -24q-174 -53 -320.5 -164t-254 -261.5t-168 -330.5t-60.5 -371q0 -141 44.5 -241.5t115 -165t160.5 -94t182 -29.5q101 0 209.5 43t212 119t196.5 177t162.5 219t110.5 245t41 252zM1147 954q0 -26 -19 -26q-10 0 -17 10
t-7 27q0 133 60 269t151 241q-101 -9 -202 -50t-193.5 -105.5t-172.5 -146t-138 -170t-92 -179.5t-34 -173q0 -61 20.5 -113.5t56.5 -91t87 -60t113 -21.5q120 0 258.5 66.5t269.5 176t241.5 246.5t178.5 279q-10 69 -36 130.5t-67 107.5t-99 74t-134 32q-47 -52 -88 -115.5
t-72 -131t-48 -138t-17 -138.5zM1622 1624q-53 0 -108.5 -30.5t-108.5 -84.5q45 -6 95 -27.5t96 -57t86 -87t65 -116.5q41 112 41 213q0 92 -31 141t-135 49zM1665 1979q0 -17 -27 -17q-6 0 -51 12.5t-97.5 35t-94.5 54t-42 72.5q0 27 17.5 43.5t38.5 16.5q32 0 50.5 -16.5
t41.5 -57.5q35 -59 63.5 -83.5t69.5 -37.5q31 -10 31 -22zM1663 1786q0 -10 -20.5 -24.5t-43.5 -14.5q-61 0 -104 39t-63 80q-31 -23 -70 -48.5t-72 -43.5l-21 -12t-16 -5q-16 0 -16 17q0 10 7 18t16 12q59 35 111 70t93 70q6 6 16.5 12t18.5 6q17 0 31 -37q26 -72 50 -93.5
t58 -29.5q25 -6 25 -16z" />
    <glyph glyph-name="uni1ED0" unicode="&#x1ed0;" horiz-adv-x="1681" 
d="M1718 1012q0 8 -1 14t-1 14q-78 -143 -193.5 -272t-247.5 -227.5t-266.5 -156.5t-246.5 -58q-84 0 -144.5 27.5t-100.5 71.5t-59.5 100.5t-19.5 111.5q0 82 33 179t92 193.5t142 186.5t184.5 159.5t218 112.5t241.5 45q68 70 143 112t144 42q109 0 151 -65.5t42 -167.5
q0 -72 -16.5 -143.5t-45.5 -143.5q4 -25 7 -52.5t3 -56.5q0 -149 -40.5 -290.5t-112.5 -267.5t-172.5 -230.5t-219 -180t-252.5 -117.5t-274 -42q-147 0 -261.5 55t-192.5 147.5t-118 215.5t-40 258q0 153 47 293.5t128 261.5t191.5 219t238.5 166.5t265.5 106.5t274.5 38
q10 0 10 -14q0 -8 -10 -10q-15 -5 -49.5 -9t-102.5 -24q-174 -53 -320.5 -164t-254 -261.5t-168 -330.5t-60.5 -371q0 -141 44.5 -241.5t115 -165t160.5 -94t182 -29.5q101 0 209.5 43t212 119t196.5 177t162.5 219t110.5 245t41 252zM1147 954q0 -26 -19 -26q-10 0 -17 10
t-7 27q0 133 60 269t151 241q-101 -9 -202 -50t-193.5 -105.5t-172.5 -146t-138 -170t-92 -179.5t-34 -173q0 -61 20.5 -113.5t56.5 -91t87 -60t113 -21.5q120 0 258.5 66.5t269.5 176t241.5 246.5t178.5 279q-10 69 -36 130.5t-67 107.5t-99 74t-134 32q-47 -52 -88 -115.5
t-72 -131t-48 -138t-17 -138.5zM1622 1624q-53 0 -108.5 -30.5t-108.5 -84.5q45 -6 95 -27.5t96 -57t86 -87t65 -116.5q41 112 41 213q0 92 -31 141t-135 49zM1901 2050q0 -41 -42 -73t-94.5 -54.5t-97.5 -34.5t-51 -12q-26 0 -26 16q0 12 30 23q41 12 70 36.5t63 83.5
q23 41 41.5 57.5t51.5 16.5q20 0 37.5 -16.5t17.5 -42.5zM1663 1786q0 -10 -20.5 -24.5t-43.5 -14.5q-61 0 -104 39t-63 80q-31 -23 -70 -48.5t-72 -43.5l-21 -12t-16 -5q-16 0 -16 17q0 10 7 18t16 12q59 35 111 70t93 70q6 6 16.5 12t18.5 6q17 0 31 -37q26 -72 50 -93.5
t58 -29.5q25 -6 25 -16z" />
    <glyph glyph-name="uni1ED4" unicode="&#x1ed4;" horiz-adv-x="1681" 
d="M1718 1012q0 8 -1 14t-1 14q-78 -143 -193.5 -272t-247.5 -227.5t-266.5 -156.5t-246.5 -58q-84 0 -144.5 27.5t-100.5 71.5t-59.5 100.5t-19.5 111.5q0 82 33 179t92 193.5t142 186.5t184.5 159.5t218 112.5t241.5 45q68 70 143 112t144 42q109 0 151 -65.5t42 -167.5
q0 -72 -16.5 -143.5t-45.5 -143.5q4 -25 7 -52.5t3 -56.5q0 -149 -40.5 -290.5t-112.5 -267.5t-172.5 -230.5t-219 -180t-252.5 -117.5t-274 -42q-147 0 -261.5 55t-192.5 147.5t-118 215.5t-40 258q0 153 47 293.5t128 261.5t191.5 219t238.5 166.5t265.5 106.5t274.5 38
q10 0 10 -14q0 -8 -10 -10q-15 -5 -49.5 -9t-102.5 -24q-174 -53 -320.5 -164t-254 -261.5t-168 -330.5t-60.5 -371q0 -141 44.5 -241.5t115 -165t160.5 -94t182 -29.5q101 0 209.5 43t212 119t196.5 177t162.5 219t110.5 245t41 252zM1147 954q0 -26 -19 -26q-10 0 -17 10
t-7 27q0 133 60 269t151 241q-101 -9 -202 -50t-193.5 -105.5t-172.5 -146t-138 -170t-92 -179.5t-34 -173q0 -61 20.5 -113.5t56.5 -91t87 -60t113 -21.5q120 0 258.5 66.5t269.5 176t241.5 246.5t178.5 279q-10 69 -36 130.5t-67 107.5t-99 74t-134 32q-47 -52 -88 -115.5
t-72 -131t-48 -138t-17 -138.5zM1622 1624q-53 0 -108.5 -30.5t-108.5 -84.5q45 -6 95 -27.5t96 -57t86 -87t65 -116.5q41 112 41 213q0 92 -31 141t-135 49zM1813 2115q1 6 -1 10q-3 13 -13.5 19.5t-24.5 10t-30 4.5q-29 -1 -51.5 -3.5t-43.5 -15.5q25 -2 31 -11t5 -17
q-1 -9 -11 -18t-34 -7q-27 2 -34.5 11.5t-2.5 20.5q1 12 9.5 22t28.5 20t49.5 15.5t61.5 2.5q29 -3 52 -11t39 -20t23 -27.5t6 -31.5q-6 -37 -49 -66q-14 -13 -31 -22q-30 -17 -61 -29.5t-57 -25.5t-38 -28q-11 -12 7 -26q2 -2 8.5 -5t9.5 -6q8 -7 2 -14q-3 -3 -22 1.5
t-34 17.5q-19 16 -27.5 47t9.5 54q12 14 44.5 31t68.5 34l69 34q28 15 42 29zM1663 1786q0 -10 -20.5 -24.5t-43.5 -14.5q-61 0 -104 39t-63 80q-31 -23 -70 -48.5t-72 -43.5l-21 -12t-16 -5q-16 0 -16 17q0 10 7 18t16 12q59 35 111 70t93 70q6 6 16.5 12t18.5 6
q17 0 31 -37q26 -72 50 -93.5t58 -29.5q25 -6 25 -16z" />
    <glyph glyph-name="uni1ED6" unicode="&#x1ed6;" horiz-adv-x="1681" 
d="M1718 1012q0 8 -1 14t-1 14q-78 -143 -193.5 -272t-247.5 -227.5t-266.5 -156.5t-246.5 -58q-84 0 -144.5 27.5t-100.5 71.5t-59.5 100.5t-19.5 111.5q0 82 33 179t92 193.5t142 186.5t184.5 159.5t218 112.5t241.5 45q68 70 143 112t144 42q109 0 151 -65.5t42 -167.5
q0 -72 -16.5 -143.5t-45.5 -143.5q4 -25 7 -52.5t3 -56.5q0 -149 -40.5 -290.5t-112.5 -267.5t-172.5 -230.5t-219 -180t-252.5 -117.5t-274 -42q-147 0 -261.5 55t-192.5 147.5t-118 215.5t-40 258q0 153 47 293.5t128 261.5t191.5 219t238.5 166.5t265.5 106.5t274.5 38
q10 0 10 -14q0 -8 -10 -10q-15 -5 -49.5 -9t-102.5 -24q-174 -53 -320.5 -164t-254 -261.5t-168 -330.5t-60.5 -371q0 -141 44.5 -241.5t115 -165t160.5 -94t182 -29.5q101 0 209.5 43t212 119t196.5 177t162.5 219t110.5 245t41 252zM1147 954q0 -26 -19 -26q-10 0 -17 10
t-7 27q0 133 60 269t151 241q-101 -9 -202 -50t-193.5 -105.5t-172.5 -146t-138 -170t-92 -179.5t-34 -173q0 -61 20.5 -113.5t56.5 -91t87 -60t113 -21.5q120 0 258.5 66.5t269.5 176t241.5 246.5t178.5 279q-10 69 -36 130.5t-67 107.5t-99 74t-134 32q-47 -52 -88 -115.5
t-72 -131t-48 -138t-17 -138.5zM1622 1624q-53 0 -108.5 -30.5t-108.5 -84.5q45 -6 95 -27.5t96 -57t86 -87t65 -116.5q41 112 41 213q0 92 -31 141t-135 49zM1814 2093q0 -63 -31.5 -107t-93.5 -44q-36 0 -74 14t-73 32.5t-66.5 33t-54.5 14.5q-18 0 -18 -27q0 -4 2 -12
t2 -12q0 -13 -13 -13q-4 0 -14 20.5t-10 45.5q0 29 21.5 60.5t56.5 31.5q22 0 62 -16.5t83 -37t83 -36.5t65 -16q18 0 32.5 16t14.5 51q0 27 10 27q6 0 11 -8.5t5 -16.5zM1663 1786q0 -10 -20.5 -24.5t-43.5 -14.5q-61 0 -104 39t-63 80q-31 -23 -70 -48.5t-72 -43.5
l-21 -12t-16 -5q-16 0 -16 17q0 10 7 18t16 12q59 35 111 70t93 70q6 6 16.5 12t18.5 6q17 0 31 -37q26 -72 50 -93.5t58 -29.5q25 -6 25 -16z" />
    <glyph glyph-name="uni1ED8" unicode="&#x1ed8;" horiz-adv-x="1681" 
d="M1718 1012q0 8 -1 14t-1 14q-78 -143 -193.5 -272t-247.5 -227.5t-266.5 -156.5t-246.5 -58q-84 0 -144.5 27.5t-100.5 71.5t-59.5 100.5t-19.5 111.5q0 82 33 179t92 193.5t142 186.5t184.5 159.5t218 112.5t241.5 45q68 70 143 112t144 42q109 0 151 -65.5t42 -167.5
q0 -72 -16.5 -143.5t-45.5 -143.5q4 -25 7 -52.5t3 -56.5q0 -149 -40.5 -290.5t-112.5 -267.5t-172.5 -230.5t-219 -180t-252.5 -117.5t-274 -42q-147 0 -261.5 55t-192.5 147.5t-118 215.5t-40 258q0 153 47 293.5t128 261.5t191.5 219t238.5 166.5t265.5 106.5t274.5 38
q10 0 10 -14q0 -8 -10 -10q-15 -5 -49.5 -9t-102.5 -24q-174 -53 -320.5 -164t-254 -261.5t-168 -330.5t-60.5 -371q0 -141 44.5 -241.5t115 -165t160.5 -94t182 -29.5q101 0 209.5 43t212 119t196.5 177t162.5 219t110.5 245t41 252zM1147 954q0 -26 -19 -26q-10 0 -17 10
t-7 27q0 133 60 269t151 241q-101 -9 -202 -50t-193.5 -105.5t-172.5 -146t-138 -170t-92 -179.5t-34 -173q0 -61 20.5 -113.5t56.5 -91t87 -60t113 -21.5q120 0 258.5 66.5t269.5 176t241.5 246.5t178.5 279q-10 69 -36 130.5t-67 107.5t-99 74t-134 32q-47 -52 -88 -115.5
t-72 -131t-48 -138t-17 -138.5zM1622 1624q-53 0 -108.5 -30.5t-108.5 -84.5q45 -6 95 -27.5t96 -57t86 -87t65 -116.5q41 112 41 213q0 92 -31 141t-135 49zM658 -312q0 -33 -24.5 -57.5t-58.5 -24.5q-33 0 -57.5 24.5t-24.5 57.5q0 35 24.5 59.5t57.5 24.5
q34 0 58.5 -24.5t24.5 -59.5zM1663 1786q0 -10 -20.5 -24.5t-43.5 -14.5q-61 0 -104 39t-63 80q-31 -23 -70 -48.5t-72 -43.5l-21 -12t-16 -5q-16 0 -16 17q0 10 7 18t16 12q59 35 111 70t93 70q6 6 16.5 12t18.5 6q17 0 31 -37q26 -72 50 -93.5t58 -29.5q25 -6 25 -16z" />
    <glyph glyph-name="Ugrave" unicode="&#xd9;" horiz-adv-x="1990" 
d="M460 197q0 -11 -6 -14t-10 -3q-21 0 -40.5 25.5t-37 65.5t-29.5 88.5t-20 95.5q-64 20 -110 63t-75.5 95.5t-44 107.5t-14.5 102q0 119 41 233.5t110.5 216t165 186.5t203 146.5t224 96.5t231.5 35q86 0 173 -28t155.5 -80t112.5 -128t44 -170q0 -100 -35.5 -220
t-89 -243t-115 -244.5l-114.5 -226t-89 -187.5t-36 -128q0 -35 17.5 -59.5t56.5 -24.5q47 0 109.5 48t135 128t150.5 184.5t154.5 218l148.5 228.5l132.5 217l106.5 182t68 123q15 23 56 23q22 -4 25 -14.5t3 -20.5q-10 -29 -37.5 -99.5l-68.5 -168l-90.5 -215l-98.5 -239.5
l-96 -242l-83 -220t-57.5 -175t-21.5 -108q0 -65 17.5 -104t74.5 -39q66 0 116 41t85 91t58.5 91t37.5 41q9 0 13 -7t4 -17q0 -8 -23.5 -52.5t-63.5 -94.5t-96.5 -91t-119.5 -41q-95 0 -132.5 56.5t-37.5 148.5q0 51 17.5 121.5t60.5 188.5l113.5 300.5l174.5 456.5
q-49 -64 -112.5 -161l-135 -206.5l-149.5 -220t-153.5 -200t-147.5 -144.5t-131 -55q-35 0 -67.5 9t-60.5 31.5t-44.5 60.5t-16.5 93q0 82 33 185.5t82 219.5t107.5 237.5t107.5 239.5t82 226.5t33 198.5q0 66 -32 113t-81 76.5t-108.5 43t-114.5 13.5q-182 0 -350 -75
t-297 -202t-206 -296t-77 -357q0 -16 8.5 -52t29 -76t57 -79t92.5 -59q-2 14 -3.5 27.5t-1.5 25.5q0 143 34 277.5t102.5 238t170 165.5t236.5 62q121 0 171 -68.5t50 -189.5q0 -120 -55 -229t-146 -192.5t-207 -133t-237 -49.5q-39 0 -71 6q10 -55 28.5 -96t35.5 -70.5
t29.5 -49t12.5 -29.5zM343 557q0 -18 1 -34.5t3 -33.5q31 -8 76 -8q109 0 218.5 46t197.5 125t143.5 181.5t55.5 213.5q0 36 -7.5 75t-26 70t-48 51.5t-72.5 20.5q-133 0 -234.5 -59.5t-169 -158t-102.5 -226.5t-35 -263zM2002 1503q0 -16 -26 -16q-7 0 -52 12t-97 34.5
t-94 54.5t-42 73q0 27 17.5 43t37.5 16q33 0 51.5 -16t40.5 -57q35 -60 64 -84.5t69 -36.5q31 -10 31 -23z" />
    <glyph glyph-name="Uacute" unicode="&#xda;" horiz-adv-x="1990" 
d="M460 197q0 -11 -6 -14t-10 -3q-21 0 -40.5 25.5t-37 65.5t-29.5 88.5t-20 95.5q-64 20 -110 63t-75.5 95.5t-44 107.5t-14.5 102q0 119 41 233.5t110.5 216t165 186.5t203 146.5t224 96.5t231.5 35q86 0 173 -28t155.5 -80t112.5 -128t44 -170q0 -100 -35.5 -220
t-89 -243t-115 -244.5l-114.5 -226t-89 -187.5t-36 -128q0 -35 17.5 -59.5t56.5 -24.5q47 0 109.5 48t135 128t150.5 184.5t154.5 218l148.5 228.5l132.5 217l106.5 182t68 123q15 23 56 23q22 -4 25 -14.5t3 -20.5q-10 -29 -37.5 -99.5l-68.5 -168l-90.5 -215l-98.5 -239.5
l-96 -242l-83 -220t-57.5 -175t-21.5 -108q0 -65 17.5 -104t74.5 -39q66 0 116 41t85 91t58.5 91t37.5 41q9 0 13 -7t4 -17q0 -8 -23.5 -52.5t-63.5 -94.5t-96.5 -91t-119.5 -41q-95 0 -132.5 56.5t-37.5 148.5q0 51 17.5 121.5t60.5 188.5l113.5 300.5l174.5 456.5
q-49 -64 -112.5 -161l-135 -206.5l-149.5 -220t-153.5 -200t-147.5 -144.5t-131 -55q-35 0 -67.5 9t-60.5 31.5t-44.5 60.5t-16.5 93q0 82 33 185.5t82 219.5t107.5 237.5t107.5 239.5t82 226.5t33 198.5q0 66 -32 113t-81 76.5t-108.5 43t-114.5 13.5q-182 0 -350 -75
t-297 -202t-206 -296t-77 -357q0 -16 8.5 -52t29 -76t57 -79t92.5 -59q-2 14 -3.5 27.5t-1.5 25.5q0 143 34 277.5t102.5 238t170 165.5t236.5 62q121 0 171 -68.5t50 -189.5q0 -120 -55 -229t-146 -192.5t-207 -133t-237 -49.5q-39 0 -71 6q10 -55 28.5 -96t35.5 -70.5
t29.5 -49t12.5 -29.5zM343 557q0 -18 1 -34.5t3 -33.5q31 -8 76 -8q109 0 218.5 46t197.5 125t143.5 181.5t55.5 213.5q0 36 -7.5 75t-26 70t-48 51.5t-72.5 20.5q-133 0 -234.5 -59.5t-169 -158t-102.5 -226.5t-35 -263zM2090 1622q0 -41 -42 -72.5t-94 -54t-97 -35
t-51 -12.5q-27 0 -27 16q0 13 31 23q41 12 69.5 36.5t63.5 84.5q22 41 40.5 57t51.5 16q20 0 37.5 -16t17.5 -43z" />
    <glyph glyph-name="uni1EE6" unicode="&#x1ee6;" horiz-adv-x="1990" 
d="M460 197q0 -11 -6 -14t-10 -3q-21 0 -40.5 25.5t-37 65.5t-29.5 88.5t-20 95.5q-64 20 -110 63t-75.5 95.5t-44 107.5t-14.5 102q0 119 41 233.5t110.5 216t165 186.5t203 146.5t224 96.5t231.5 35q86 0 173 -28t155.5 -80t112.5 -128t44 -170q0 -100 -35.5 -220
t-89 -243t-115 -244.5l-114.5 -226t-89 -187.5t-36 -128q0 -35 17.5 -59.5t56.5 -24.5q47 0 109.5 48t135 128t150.5 184.5t154.5 218l148.5 228.5l132.5 217l106.5 182t68 123q15 23 56 23q22 -4 25 -14.5t3 -20.5q-10 -29 -37.5 -99.5l-68.5 -168l-90.5 -215l-98.5 -239.5
l-96 -242l-83 -220t-57.5 -175t-21.5 -108q0 -65 17.5 -104t74.5 -39q66 0 116 41t85 91t58.5 91t37.5 41q9 0 13 -7t4 -17q0 -8 -23.5 -52.5t-63.5 -94.5t-96.5 -91t-119.5 -41q-95 0 -132.5 56.5t-37.5 148.5q0 51 17.5 121.5t60.5 188.5l113.5 300.5l174.5 456.5
q-49 -64 -112.5 -161l-135 -206.5l-149.5 -220t-153.5 -200t-147.5 -144.5t-131 -55q-35 0 -67.5 9t-60.5 31.5t-44.5 60.5t-16.5 93q0 82 33 185.5t82 219.5t107.5 237.5t107.5 239.5t82 226.5t33 198.5q0 66 -32 113t-81 76.5t-108.5 43t-114.5 13.5q-182 0 -350 -75
t-297 -202t-206 -296t-77 -357q0 -16 8.5 -52t29 -76t57 -79t92.5 -59q-2 14 -3.5 27.5t-1.5 25.5q0 143 34 277.5t102.5 238t170 165.5t236.5 62q121 0 171 -68.5t50 -189.5q0 -120 -55 -229t-146 -192.5t-207 -133t-237 -49.5q-39 0 -71 6q10 -55 28.5 -96t35.5 -70.5
t29.5 -49t12.5 -29.5zM343 557q0 -18 1 -34.5t3 -33.5q31 -8 76 -8q109 0 218.5 46t197.5 125t143.5 181.5t55.5 213.5q0 36 -7.5 75t-26 70t-48 51.5t-72.5 20.5q-133 0 -234.5 -59.5t-169 -158t-102.5 -226.5t-35 -263zM2030 1719q1 6 0 10q-3 13 -14 19.5t-25 10t-29 4.5
q-30 -1 -52 -3.5t-44 -15.5q25 -2 31 -11t6 -17q-1 -9 -11 -18t-35 -7q-27 2 -34.5 11.5t-2.5 20.5q1 12 9.5 22t28.5 20t50 15.5t61 2.5q30 -3 52.5 -11t38.5 -20t23 -27.5t6 -31.5q-5 -37 -49 -66q-14 -13 -31 -22q-30 -17 -60.5 -29.5t-57 -25.5t-38.5 -28q-10 -12 7 -26
q2 -2 8.5 -5t10.5 -6q7 -7 1 -14q-3 -3 -21.5 1.5t-34.5 17.5q-19 16 -27.5 47t9.5 54q12 14 44.5 31t68.5 34l69 34q29 15 42 29z" />
    <glyph glyph-name="Utilde" unicode="&#x168;" horiz-adv-x="1990" 
d="M460 197q0 -11 -6 -14t-10 -3q-21 0 -40.5 25.5t-37 65.5t-29.5 88.5t-20 95.5q-64 20 -110 63t-75.5 95.5t-44 107.5t-14.5 102q0 119 41 233.5t110.5 216t165 186.5t203 146.5t224 96.5t231.5 35q86 0 173 -28t155.5 -80t112.5 -128t44 -170q0 -100 -35.5 -220
t-89 -243t-115 -244.5l-114.5 -226t-89 -187.5t-36 -128q0 -35 17.5 -59.5t56.5 -24.5q47 0 109.5 48t135 128t150.5 184.5t154.5 218l148.5 228.5l132.5 217l106.5 182t68 123q15 23 56 23q22 -4 25 -14.5t3 -20.5q-10 -29 -37.5 -99.5l-68.5 -168l-90.5 -215l-98.5 -239.5
l-96 -242l-83 -220t-57.5 -175t-21.5 -108q0 -65 17.5 -104t74.5 -39q66 0 116 41t85 91t58.5 91t37.5 41q9 0 13 -7t4 -17q0 -8 -23.5 -52.5t-63.5 -94.5t-96.5 -91t-119.5 -41q-95 0 -132.5 56.5t-37.5 148.5q0 51 17.5 121.5t60.5 188.5l113.5 300.5l174.5 456.5
q-49 -64 -112.5 -161l-135 -206.5l-149.5 -220t-153.5 -200t-147.5 -144.5t-131 -55q-35 0 -67.5 9t-60.5 31.5t-44.5 60.5t-16.5 93q0 82 33 185.5t82 219.5t107.5 237.5t107.5 239.5t82 226.5t33 198.5q0 66 -32 113t-81 76.5t-108.5 43t-114.5 13.5q-182 0 -350 -75
t-297 -202t-206 -296t-77 -357q0 -16 8.5 -52t29 -76t57 -79t92.5 -59q-2 14 -3.5 27.5t-1.5 25.5q0 143 34 277.5t102.5 238t170 165.5t236.5 62q121 0 171 -68.5t50 -189.5q0 -120 -55 -229t-146 -192.5t-207 -133t-237 -49.5q-39 0 -71 6q10 -55 28.5 -96t35.5 -70.5
t29.5 -49t12.5 -29.5zM343 557q0 -18 1 -34.5t3 -33.5q31 -8 76 -8q109 0 218.5 46t197.5 125t143.5 181.5t55.5 213.5q0 36 -7.5 75t-26 70t-48 51.5t-72.5 20.5q-133 0 -234.5 -59.5t-169 -158t-102.5 -226.5t-35 -263zM2096 1620q0 -64 -31.5 -108t-93.5 -44
q-36 0 -74 14.5t-73 33t-66.5 33t-54.5 14.5q-18 0 -18 -27q0 -4 2 -12t2 -13q0 -12 -12 -12q-5 0 -15 20.5t-10 45.5q0 28 21.5 60t56.5 32q22 0 62 -16.5t83 -37t83 -37t65 -16.5q18 0 32.5 16.5t14.5 51.5q0 27 10 27q6 0 11 -8.5t5 -16.5z" />
    <glyph glyph-name="uni1EE4" unicode="&#x1ee4;" horiz-adv-x="1990" 
d="M460 197q0 -11 -6 -14t-10 -3q-21 0 -40.5 25.5t-37 65.5t-29.5 88.5t-20 95.5q-64 20 -110 63t-75.5 95.5t-44 107.5t-14.5 102q0 119 41 233.5t110.5 216t165 186.5t203 146.5t224 96.5t231.5 35q86 0 173 -28t155.5 -80t112.5 -128t44 -170q0 -100 -35.5 -220
t-89 -243t-115 -244.5l-114.5 -226t-89 -187.5t-36 -128q0 -35 17.5 -59.5t56.5 -24.5q47 0 109.5 48t135 128t150.5 184.5t154.5 218l148.5 228.5l132.5 217l106.5 182t68 123q15 23 56 23q22 -4 25 -14.5t3 -20.5q-10 -29 -37.5 -99.5l-68.5 -168l-90.5 -215l-98.5 -239.5
l-96 -242l-83 -220t-57.5 -175t-21.5 -108q0 -65 17.5 -104t74.5 -39q66 0 116 41t85 91t58.5 91t37.5 41q9 0 13 -7t4 -17q0 -8 -23.5 -52.5t-63.5 -94.5t-96.5 -91t-119.5 -41q-95 0 -132.5 56.5t-37.5 148.5q0 51 17.5 121.5t60.5 188.5l113.5 300.5l174.5 456.5
q-49 -64 -112.5 -161l-135 -206.5l-149.5 -220t-153.5 -200t-147.5 -144.5t-131 -55q-35 0 -67.5 9t-60.5 31.5t-44.5 60.5t-16.5 93q0 82 33 185.5t82 219.5t107.5 237.5t107.5 239.5t82 226.5t33 198.5q0 66 -32 113t-81 76.5t-108.5 43t-114.5 13.5q-182 0 -350 -75
t-297 -202t-206 -296t-77 -357q0 -16 8.5 -52t29 -76t57 -79t92.5 -59q-2 14 -3.5 27.5t-1.5 25.5q0 143 34 277.5t102.5 238t170 165.5t236.5 62q121 0 171 -68.5t50 -189.5q0 -120 -55 -229t-146 -192.5t-207 -133t-237 -49.5q-39 0 -71 6q10 -55 28.5 -96t35.5 -70.5
t29.5 -49t12.5 -29.5zM343 557q0 -18 1 -34.5t3 -33.5q31 -8 76 -8q109 0 218.5 46t197.5 125t143.5 181.5t55.5 213.5q0 36 -7.5 75t-26 70t-48 51.5t-72.5 20.5q-133 0 -234.5 -59.5t-169 -158t-102.5 -226.5t-35 -263zM1376 -312q0 -33 -24.5 -57.5t-59.5 -24.5
q-33 0 -57.5 24.5t-24.5 57.5q0 35 24.5 59.5t57.5 24.5q35 0 59.5 -24.5t24.5 -59.5z" />
    <glyph glyph-name="Uhorn" unicode="&#x1af;" horiz-adv-x="1990" 
d="M343 557q0 -18 1 -34.5t3 -33.5q31 -8 76 -8q109 0 218.5 46t197.5 125t143.5 181.5t55.5 213.5q0 36 -7.5 75t-26 70t-48 51.5t-72.5 20.5q-133 0 -234.5 -59.5t-169 -158t-102.5 -226.5t-35 -263zM2155 1155q-19 -49 -44 -107l-90.5 -215.5l-98.5 -239.5l-96 -242
l-83 -220t-57.5 -175t-21.5 -108q0 -65 17.5 -104t74.5 -39q66 0 116 41t85 91t58.5 91t37.5 41q9 0 13 -7t4 -17q0 -8 -23.5 -52.5t-63.5 -94.5t-96.5 -91t-119.5 -41q-95 0 -132.5 56.5t-37.5 148.5q0 51 17.5 121.5t60.5 188.5l113.5 300.5l174.5 456.5
q-49 -64 -112.5 -161l-135 -206.5l-149.5 -220t-153.5 -200t-147.5 -144.5t-131 -55q-35 0 -67.5 9t-60.5 31.5t-44.5 60.5t-16.5 93q0 82 33 185.5t82 219.5t107.5 237.5t107.5 239.5t82 226.5t33 198.5q0 66 -32 113t-81 76.5t-108.5 43t-114.5 13.5q-182 0 -350 -75
t-297 -202t-206 -296t-77 -357q0 -16 8.5 -52t29 -76t57 -79t92.5 -59q-2 14 -3.5 27.5t-1.5 25.5q0 143 34 277.5t102.5 238t170 165.5t236.5 62q121 0 171 -68.5t50 -189.5q0 -120 -55 -229t-146 -192.5t-207 -133t-237 -49.5q-39 0 -71 6q10 -55 28.5 -96t35.5 -70.5
t29.5 -49t12.5 -29.5q0 -11 -6 -14t-10 -3q-21 0 -40.5 25.5t-37 65.5t-29.5 88.5t-20 95.5q-64 20 -110 63t-75.5 95.5t-44 107.5t-14.5 102q0 119 41 233.5t110.5 216t165 186.5t203 146.5t224 96.5t231.5 35q86 0 173 -28t155.5 -80t112.5 -128t44 -170
q0 -100 -35.5 -220t-89 -243t-115 -244.5l-114.5 -226t-89 -187.5t-36 -128q0 -35 17.5 -59.5t56.5 -24.5q47 0 109.5 48t135 128t150.5 184.5t154.5 218l148.5 228.5l132.5 217l106.5 182t68 123q15 23 56 23q22 -4 25 -14.5t3 -20.5q-10 -29 -37 -99q-1 -3 -2 -5
q18 15 33 32q59 68 47.5 121.5t0.5 74t32 24.5q51 10 63 -38q5 -24 -13 -77t-71 -110q-40 -44 -115 -83z" />
    <glyph glyph-name="uni1EEA" unicode="&#x1eea;" horiz-adv-x="1990" 
d="M343 557q0 -18 1 -34.5t3 -33.5q31 -8 76 -8q108 0 218 46t198 125t143 181.5t55 213.5q0 36 -7 75t-25.5 70t-48 51.5t-72.5 20.5q-133 0 -234.5 -59.5t-169 -158t-102.5 -226.5t-35 -263zM2002 1503q0 -16 -27 -16q-6 0 -51 12t-97 34.5t-94 54.5t-42 73q0 27 17 43
t38 16q33 0 51.5 -16t40.5 -57q35 -60 63.5 -84.5t69.5 -36.5q31 -10 31 -23zM2154 1154l-43 -106l-90.5 -215.5l-98.5 -239.5l-96 -242l-83 -220t-57.5 -175t-21.5 -108q0 -65 17.5 -104t74.5 -39q66 0 116 41t85 91t58.5 91t37.5 41q8 0 12.5 -7t4.5 -17q0 -8 -24 -52.5
t-63.5 -94.5t-96 -91t-120.5 -41q-94 0 -132 56.5t-38 148.5q0 51 17.5 121.5t60.5 188.5l114 300.5l175 456.5q-49 -64 -112.5 -161l-135 -206.5l-149.5 -220t-154 -200t-147.5 -144.5t-130.5 -55q-35 0 -68 9t-60.5 31.5t-44 60.5t-16.5 93q0 82 33 185.5t82 219.5
t107.5 237.5t107.5 239.5t82 226.5t33 198.5q0 66 -32 113t-81 76.5t-108.5 43t-114.5 13.5q-183 0 -350.5 -75t-296.5 -202t-206 -296t-77 -357q0 -16 8 -52t28.5 -76t57.5 -79t92 -59q-2 14 -3 27.5t-1 25.5q0 143 34 277.5t102.5 238t170 165.5t236.5 62q121 0 171 -68.5
t50 -189.5q0 -120 -55 -229t-146.5 -192.5t-207 -133t-236.5 -49.5q-39 0 -72 6q11 -55 29 -96t35.5 -70.5l30 -49t12.5 -29.5q0 -11 -6 -14t-11 -3q-20 0 -39.5 25.5t-37 65.5t-29.5 88.5t-21 95.5q-63 20 -109 63t-76 95.5t-44 107.5t-14 102q0 119 41 233.5t110.5 216
t164.5 186.5t202.5 146.5t224.5 96.5t232 35q86 0 173 -28t155.5 -80t112.5 -128t44 -170q0 -100 -36 -220t-89 -243t-114.5 -244.5l-115 -226t-89 -187.5t-35.5 -128q0 -35 17.5 -59.5t55.5 -24.5q48 0 110 48t135 128t151 184.5t154.5 218l148 228.5l132 217l106.5 182
l69 123q14 23 55 23q23 -4 26 -14.5t3 -20.5q-10 -29 -38 -99l-2 -6q18 16 34 33q59 68 47.5 121.5t0 74t32.5 24.5q51 10 62 -38q6 -24 -12 -77t-71 -110q-41 -45 -116 -84z" />
    <glyph glyph-name="uni1EE8" unicode="&#x1ee8;" horiz-adv-x="1990" 
d="M343 557q0 -18 1 -34.5t3 -33.5q31 -8 76 -8q108 0 218 46t198 125t143 181.5t55 213.5q0 36 -7 75t-25.5 70t-48 51.5t-72.5 20.5q-133 0 -234.5 -59.5t-169 -158t-102.5 -226.5t-35 -263zM2090 1622q0 -41 -42 -72.5t-94 -54t-97.5 -35t-51.5 -12.5q-26 0 -26 16
q0 13 30 23q41 12 70 36.5t64 84.5q22 41 40.5 57t51.5 16q20 0 37.5 -16t17.5 -43zM2154 1154l-43 -106l-90.5 -215.5l-98.5 -239.5l-96 -242l-83 -220t-57.5 -175t-21.5 -108q0 -65 17.5 -104t74.5 -39q66 0 116 41t85 91t58.5 91t37.5 41q8 0 12.5 -7t4.5 -17
q0 -8 -24 -52.5t-63.5 -94.5t-96 -91t-120.5 -41q-94 0 -132 56.5t-38 148.5q0 51 17.5 121.5t60.5 188.5l114 300.5l175 456.5q-49 -64 -112.5 -161l-135 -206.5l-149.5 -220t-154 -200t-147.5 -144.5t-130.5 -55q-35 0 -68 9t-60.5 31.5t-44 60.5t-16.5 93q0 82 33 185.5
t82 219.5t107.5 237.5t107.5 239.5t82 226.5t33 198.5q0 66 -32 113t-81 76.5t-108.5 43t-114.5 13.5q-183 0 -350.5 -75t-296.5 -202t-206 -296t-77 -357q0 -16 8 -52t28.5 -76t57.5 -79t92 -59q-2 14 -3 27.5t-1 25.5q0 143 34 277.5t102.5 238t170 165.5t236.5 62
q121 0 171 -68.5t50 -189.5q0 -120 -55 -229t-146.5 -192.5t-207 -133t-236.5 -49.5q-39 0 -72 6q11 -55 29 -96t35.5 -70.5l30 -49t12.5 -29.5q0 -11 -6 -14t-11 -3q-20 0 -39.5 25.5t-37 65.5t-29.5 88.5t-21 95.5q-63 20 -109 63t-76 95.5t-44 107.5t-14 102
q0 119 41 233.5t110.5 216t164.5 186.5t202.5 146.5t224.5 96.5t232 35q86 0 173 -28t155.5 -80t112.5 -128t44 -170q0 -100 -36 -220t-89 -243t-114.5 -244.5l-115 -226t-89 -187.5t-35.5 -128q0 -35 17.5 -59.5t55.5 -24.5q48 0 110 48t135 128t151 184.5t154.5 218
l148 228.5l132 217l106.5 182l69 123q14 23 55 23q23 -4 26 -14.5t3 -20.5q-10 -29 -38 -99l-2 -6q18 16 34 33q59 68 47.5 121.5t0 74t32.5 24.5q51 10 62 -38q6 -24 -12 -77t-71 -110q-41 -45 -116 -84z" />
    <glyph glyph-name="uni1EEC" unicode="&#x1eec;" horiz-adv-x="1990" 
d="M343 557q0 -18 1 -34.5t3 -33.5q31 -8 76 -8q108 0 218 46t198 125t143 181.5t55 213.5q0 36 -7 75t-25.5 70t-48 51.5t-72.5 20.5q-133 0 -234.5 -59.5t-169 -158t-102.5 -226.5t-35 -263zM2030 1719q1 6 -1 10q-3 13 -13.5 19.5t-24.5 10t-30 4.5q-29 -1 -51.5 -3.5
t-43.5 -15.5q25 -2 31 -11t5 -17q-1 -9 -11 -18t-34 -7q-27 2 -34.5 11.5t-2.5 20.5q1 12 9.5 22t28.5 20t49.5 15.5t61.5 2.5q29 -3 52 -11t39 -20t23 -27.5t6 -31.5q-6 -37 -49 -66q-14 -13 -31 -22q-30 -17 -61 -29.5t-57 -25.5t-38 -28q-11 -12 7 -26q2 -2 8.5 -5
t9.5 -6q8 -7 2 -14q-3 -3 -22 1.5t-34 17.5q-19 16 -27.5 47t9.5 54q12 14 44.5 31t68.5 34l69 34q28 15 42 29zM2154 1154l-43 -106l-90.5 -215.5l-98.5 -239.5l-96 -242l-83 -220t-57.5 -175t-21.5 -108q0 -65 17.5 -104t74.5 -39q66 0 116 41t85 91t58.5 91t37.5 41
q8 0 12.5 -7t4.5 -17q0 -8 -24 -52.5t-63.5 -94.5t-96 -91t-120.5 -41q-94 0 -132 56.5t-38 148.5q0 51 17.5 121.5t60.5 188.5l114 300.5l175 456.5q-49 -64 -112.5 -161l-135 -206.5l-149.5 -220t-154 -200t-147.5 -144.5t-130.5 -55q-35 0 -68 9t-60.5 31.5t-44 60.5
t-16.5 93q0 82 33 185.5t82 219.5t107.5 237.5t107.5 239.5t82 226.5t33 198.5q0 66 -32 113t-81 76.5t-108.5 43t-114.5 13.5q-183 0 -350.5 -75t-296.5 -202t-206 -296t-77 -357q0 -16 8 -52t28.5 -76t57.5 -79t92 -59q-2 14 -3 27.5t-1 25.5q0 143 34 277.5t102.5 238
t170 165.5t236.5 62q121 0 171 -68.5t50 -189.5q0 -120 -55 -229t-146.5 -192.5t-207 -133t-236.5 -49.5q-39 0 -72 6q11 -55 29 -96t35.5 -70.5l30 -49t12.5 -29.5q0 -11 -6 -14t-11 -3q-20 0 -39.5 25.5t-37 65.5t-29.5 88.5t-21 95.5q-63 20 -109 63t-76 95.5t-44 107.5
t-14 102q0 119 41 233.5t110.5 216t164.5 186.5t202.5 146.5t224.5 96.5t232 35q86 0 173 -28t155.5 -80t112.5 -128t44 -170q0 -100 -36 -220t-89 -243t-114.5 -244.5l-115 -226t-89 -187.5t-35.5 -128q0 -35 17.5 -59.5t55.5 -24.5q48 0 110 48t135 128t151 184.5
t154.5 218l148 228.5l132 217l106.5 182l69 123q14 23 55 23q23 -4 26 -14.5t3 -20.5q-10 -29 -38 -99l-2 -6q18 16 34 33q59 68 47.5 121.5t0 74t32.5 24.5q51 10 62 -38q6 -24 -12 -77t-71 -110q-41 -45 -116 -84z" />
    <glyph glyph-name="uni1EEE" unicode="&#x1eee;" horiz-adv-x="1990" 
d="M343 557q0 -18 1 -34.5t3 -33.5q31 -8 76 -8q108 0 218 46t198 125t143 181.5t55 213.5q0 36 -7 75t-25.5 70t-48 51.5t-72.5 20.5q-133 0 -234.5 -59.5t-169 -158t-102.5 -226.5t-35 -263zM2096 1620q0 -64 -31.5 -108t-93.5 -44q-37 0 -74.5 14.5t-72.5 33t-67 33
t-54 14.5q-18 0 -18 -27q0 -4 2 -12t2 -13q0 -12 -13 -12q-4 0 -14 20.5t-10 45.5q0 28 21.5 60t56.5 32q22 0 62 -16.5t83 -37t83 -37t64 -16.5q19 0 33.5 16.5t14.5 51.5q0 27 10 27q6 0 11 -8.5t5 -16.5zM2154 1154l-43 -106l-90.5 -215.5l-98.5 -239.5l-96 -242
l-83 -220t-57.5 -175t-21.5 -108q0 -65 17.5 -104t74.5 -39q66 0 116 41t85 91t58.5 91t37.5 41q8 0 12.5 -7t4.5 -17q0 -8 -24 -52.5t-63.5 -94.5t-96 -91t-120.5 -41q-94 0 -132 56.5t-38 148.5q0 51 17.5 121.5t60.5 188.5l114 300.5l175 456.5q-49 -64 -112.5 -161
l-135 -206.5l-149.5 -220t-154 -200t-147.5 -144.5t-130.5 -55q-35 0 -68 9t-60.5 31.5t-44 60.5t-16.5 93q0 82 33 185.5t82 219.5t107.5 237.5t107.5 239.5t82 226.5t33 198.5q0 66 -32 113t-81 76.5t-108.5 43t-114.5 13.5q-183 0 -350.5 -75t-296.5 -202t-206 -296
t-77 -357q0 -16 8 -52t28.5 -76t57.5 -79t92 -59q-2 14 -3 27.5t-1 25.5q0 143 34 277.5t102.5 238t170 165.5t236.5 62q121 0 171 -68.5t50 -189.5q0 -120 -55 -229t-146.5 -192.5t-207 -133t-236.5 -49.5q-39 0 -72 6q11 -55 29 -96t35.5 -70.5l30 -49t12.5 -29.5
q0 -11 -6 -14t-11 -3q-20 0 -39.5 25.5t-37 65.5t-29.5 88.5t-21 95.5q-63 20 -109 63t-76 95.5t-44 107.5t-14 102q0 119 41 233.5t110.5 216t164.5 186.5t202.5 146.5t224.5 96.5t232 35q86 0 173 -28t155.5 -80t112.5 -128t44 -170q0 -100 -36 -220t-89 -243
t-114.5 -244.5l-115 -226t-89 -187.5t-35.5 -128q0 -35 17.5 -59.5t55.5 -24.5q48 0 110 48t135 128t151 184.5t154.5 218l148 228.5l132 217l106.5 182l69 123q14 23 55 23q23 -4 26 -14.5t3 -20.5q-10 -29 -38 -99l-2 -6q18 16 34 33q59 68 47.5 121.5t0 74t32.5 24.5
q51 10 62 -38q6 -24 -12 -77t-71 -110q-41 -45 -116 -84z" />
    <glyph glyph-name="uni1EF0" unicode="&#x1ef0;" horiz-adv-x="1990" 
d="M343 557q0 -18 1 -34.5t3 -33.5q31 -8 76 -8q108 0 218 46t198 125t143 181.5t55 213.5q0 36 -7 75t-25.5 70t-48 51.5t-72.5 20.5q-133 0 -234.5 -59.5t-169 -158t-102.5 -226.5t-35 -263zM1375 -312q0 -33 -24.5 -57.5t-58.5 -24.5q-33 0 -57.5 24.5t-24.5 57.5
q0 35 24.5 59.5t57.5 24.5q34 0 58.5 -24.5t24.5 -59.5zM2154 1154l-43 -106l-90.5 -215.5l-98.5 -239.5l-96 -242l-83 -220t-57.5 -175t-21.5 -108q0 -65 17.5 -104t74.5 -39q66 0 116 41t85 91t58.5 91t37.5 41q8 0 12.5 -7t4.5 -17q0 -8 -24 -52.5t-63.5 -94.5t-96 -91
t-120.5 -41q-94 0 -132 56.5t-38 148.5q0 51 17.5 121.5t60.5 188.5l114 300.5l175 456.5q-49 -64 -112.5 -161l-135 -206.5l-149.5 -220t-154 -200t-147.5 -144.5t-130.5 -55q-35 0 -68 9t-60.5 31.5t-44 60.5t-16.5 93q0 82 33 185.5t82 219.5t107.5 237.5t107.5 239.5
t82 226.5t33 198.5q0 66 -32 113t-81 76.5t-108.5 43t-114.5 13.5q-183 0 -350.5 -75t-296.5 -202t-206 -296t-77 -357q0 -16 8 -52t28.5 -76t57.5 -79t92 -59q-2 14 -3 27.5t-1 25.5q0 143 34 277.5t102.5 238t170 165.5t236.5 62q121 0 171 -68.5t50 -189.5
q0 -120 -55 -229t-146.5 -192.5t-207 -133t-236.5 -49.5q-39 0 -72 6q11 -55 29 -96t35.5 -70.5l30 -49t12.5 -29.5q0 -11 -6 -14t-11 -3q-20 0 -39.5 25.5t-37 65.5t-29.5 88.5t-21 95.5q-63 20 -109 63t-76 95.5t-44 107.5t-14 102q0 119 41 233.5t110.5 216t164.5 186.5
t202.5 146.5t224.5 96.5t232 35q86 0 173 -28t155.5 -80t112.5 -128t44 -170q0 -100 -36 -220t-89 -243t-114.5 -244.5l-115 -226t-89 -187.5t-35.5 -128q0 -35 17.5 -59.5t55.5 -24.5q48 0 110 48t135 128t151 184.5t154.5 218l148 228.5l132 217l106.5 182l69 123
q14 23 55 23q23 -4 26 -14.5t3 -20.5q-10 -29 -38 -99l-2 -6q18 16 34 33q59 68 47.5 121.5t0 74t32.5 24.5q51 10 62 -38q6 -24 -12 -77t-71 -110q-41 -45 -116 -84z" />
    <glyph glyph-name="Ohorn" unicode="&#x1a0;" horiz-adv-x="1681" 
d="M1147 954q0 -26 -19 -26q-10 0 -17 10t-7 27q0 133 60 269t151 241q-101 -9 -202 -50t-193.5 -105.5t-172.5 -146t-138 -170t-92 -179.5t-34 -173q0 -61 20.5 -113.5t56.5 -91t87 -60t113 -21.5q120 0 258.5 66.5t269.5 176t241.5 246.5t178.5 279q-10 69 -36 130.5
t-67 107.5t-99 74t-134 32q-47 -52 -88 -115.5t-72 -131t-48 -138t-17 -138.5zM1622 1624q-53 0 -108.5 -30.5t-108.5 -84.5q45 -6 95 -27.5t96 -57t86 -87t65 -116.5q41 112 41 213q0 92 -31 141t-135 49zM1769 1136q3 -20 5 -41q3 -28 3 -57q0 -149 -40.5 -290.5
t-112.5 -267.5t-172.5 -230.5t-219 -180t-252.5 -117.5t-274 -42q-147 0 -261.5 55t-192.5 147.5t-118 215.5t-40 258q0 153 47 293.5t128 261.5t191.5 219t238.5 166.5t265.5 106.5t274.5 38q10 0 10 -14q0 -8 -10 -10q-15 -5 -49.5 -9t-102.5 -24q-174 -53 -320.5 -164
t-254 -261.5t-168 -330.5t-60.5 -371q0 -141 44.5 -241.5t115 -165t160.5 -94t182 -29.5q101 0 209.5 43t212 119t196.5 177t162.5 219t110.5 245t41 252q0 8 -1 14t-1 14q-78 -143 -193.5 -272t-247.5 -227.5t-266.5 -156.5t-246.5 -58q-84 0 -144.5 27.5t-100.5 71.5
t-59.5 100.5t-19.5 111.5q0 82 33 179t92 193.5t142 186.5t184.5 159.5t218 112.5t241.5 45q68 70 143 112t144 42q109 0 151 -65.5t42 -167.5q0 -72 -16 -143q-14 -58 -35 -116q51 29 85 68q60 68 48.5 121.5t0 74t32.5 24.5q50 10 62 -38q6 -24 -12 -77t-71 -110
q-51 -55 -154 -102z" />
    <glyph glyph-name="uni1EDC" unicode="&#x1edc;" horiz-adv-x="1681" 
d="M1147 954q0 -26 -19 -26q-10 0 -17 10t-7 27q0 133 60 269t151 241q-101 -9 -202 -50t-193.5 -105.5t-172.5 -146t-138 -170t-92 -179.5t-34 -173q0 -61 20.5 -113.5t56.5 -91t87 -60t113 -21.5q120 0 258.5 66.5t269.5 176t241.5 246.5t178.5 279q-10 69 -36 130.5
t-67 107.5t-99 74t-134 32q-47 -52 -88 -115.5t-72 -131t-48 -138t-17 -138.5zM1622 1624q-53 0 -108.5 -30.5t-108.5 -84.5q45 -6 95 -27.5t96 -57t86 -87t65 -116.5q41 112 41 213q0 92 -31 141t-135 49zM1448 1782q0 -17 -27 -17q-6 0 -51 12.5t-97.5 35t-94.5 54
t-42 72.5q0 27 17.5 43.5t38.5 16.5q32 0 50.5 -16.5t41.5 -57.5q35 -59 63.5 -83.5t69.5 -37.5q31 -10 31 -22zM1769 1136q3 -20 5 -41q3 -28 3 -57q0 -149 -40.5 -290.5t-112.5 -267.5t-172.5 -230.5t-219 -180t-252.5 -117.5t-274 -42q-147 0 -261.5 55t-192.5 147.5
t-118 215.5t-40 258q0 153 47 293.5t128 261.5t191.5 219t238.5 166.5t265.5 106.5t274.5 38q10 0 10 -14q0 -8 -10 -10q-15 -5 -49.5 -9t-102.5 -24q-174 -53 -320.5 -164t-254 -261.5t-168 -330.5t-60.5 -371q0 -141 44.5 -241.5t115 -165t160.5 -94t182 -29.5
q101 0 209.5 43t212 119t196.5 177t162.5 219t110.5 245t41 252q0 8 -1 14t-1 14q-78 -143 -193.5 -272t-247.5 -227.5t-266.5 -156.5t-246.5 -58q-84 0 -144.5 27.5t-100.5 71.5t-59.5 100.5t-19.5 111.5q0 82 33 179t92 193.5t142 186.5t184.5 159.5t218 112.5t241.5 45
q68 70 143 112t144 42q109 0 151 -65.5t42 -167.5q0 -72 -16 -143q-14 -58 -35 -116q51 29 86 68q59 68 47.5 121.5t0 74t32.5 24.5q51 10 62 -38q6 -24 -12 -77t-71 -110q-51 -55 -154 -102z" />
    <glyph glyph-name="uni1EDA" unicode="&#x1eda;" horiz-adv-x="1681" 
d="M1147 954q0 -26 -19 -26q-10 0 -17 10t-7 27q0 133 60 269t151 241q-101 -9 -202 -50t-193.5 -105.5t-172.5 -146t-138 -170t-92 -179.5t-34 -173q0 -61 20.5 -113.5t56.5 -91t87 -60t113 -21.5q120 0 258.5 66.5t269.5 176t241.5 246.5t178.5 279q-10 69 -36 130.5
t-67 107.5t-99 74t-134 32q-47 -52 -88 -115.5t-72 -131t-48 -138t-17 -138.5zM1622 1624q-53 0 -108.5 -30.5t-108.5 -84.5q45 -6 95 -27.5t96 -57t86 -87t65 -116.5q41 112 41 213q0 92 -31 141t-135 49zM1665 1909q0 -41 -42 -73t-94.5 -54.5t-97.5 -34.5t-51 -12
q-26 0 -26 16q0 12 30 23q41 12 70 36.5t63 83.5q23 41 41.5 57.5t51.5 16.5q20 0 37.5 -16.5t17.5 -42.5zM1769 1136q3 -20 5 -41q3 -28 3 -57q0 -149 -40.5 -290.5t-112.5 -267.5t-172.5 -230.5t-219 -180t-252.5 -117.5t-274 -42q-147 0 -261.5 55t-192.5 147.5
t-118 215.5t-40 258q0 153 47 293.5t128 261.5t191.5 219t238.5 166.5t265.5 106.5t274.5 38q10 0 10 -14q0 -8 -10 -10q-15 -5 -49.5 -9t-102.5 -24q-174 -53 -320.5 -164t-254 -261.5t-168 -330.5t-60.5 -371q0 -141 44.5 -241.5t115 -165t160.5 -94t182 -29.5
q101 0 209.5 43t212 119t196.5 177t162.5 219t110.5 245t41 252q0 8 -1 14t-1 14q-78 -143 -193.5 -272t-247.5 -227.5t-266.5 -156.5t-246.5 -58q-84 0 -144.5 27.5t-100.5 71.5t-59.5 100.5t-19.5 111.5q0 82 33 179t92 193.5t142 186.5t184.5 159.5t218 112.5t241.5 45
q68 70 143 112t144 42q109 0 151 -65.5t42 -167.5q0 -72 -16 -143q-14 -58 -35 -116q51 29 86 68q59 68 47.5 121.5t0 74t32.5 24.5q51 10 62 -38q6 -24 -12 -77t-71 -110q-51 -55 -154 -102z" />
    <glyph glyph-name="uni1EDE" unicode="&#x1ede;" horiz-adv-x="1681" 
d="M1147 954q0 -26 -19 -26q-10 0 -17 10t-7 27q0 133 60 269t151 241q-101 -9 -202 -50t-193.5 -105.5t-172.5 -146t-138 -170t-92 -179.5t-34 -173q0 -61 20.5 -113.5t56.5 -91t87 -60t113 -21.5q120 0 258.5 66.5t269.5 176t241.5 246.5t178.5 279q-10 69 -36 130.5
t-67 107.5t-99 74t-134 32q-47 -52 -88 -115.5t-72 -131t-48 -138t-17 -138.5zM1622 1624q-53 0 -108.5 -30.5t-108.5 -84.5q45 -6 95 -27.5t96 -57t86 -87t65 -116.5q41 112 41 213q0 92 -31 141t-135 49zM1616 1992q1 6 -1 10q-3 13 -13.5 19.5t-24.5 10t-30 4.5
q-29 -1 -51.5 -3.5t-43.5 -15.5q25 -2 31 -11t5 -17q-1 -9 -11 -18t-34 -7q-27 2 -34.5 11.5t-2.5 20.5q1 12 9.5 22t28.5 20t49.5 15.5t61.5 2.5q29 -3 52 -11t39 -20t23 -27.5t6 -31.5q-6 -37 -49 -66q-14 -13 -31 -22q-30 -17 -61 -29.5t-57 -25.5t-38 -28q-11 -12 7 -26
q2 -2 8.5 -5t9.5 -6q8 -7 2 -14q-3 -3 -22 1.5t-34 17.5q-19 16 -27.5 47t9.5 54q12 14 44.5 31t68.5 34l69 34q28 15 42 29zM1769 1136q3 -20 5 -41q3 -28 3 -57q0 -149 -40.5 -290.5t-112.5 -267.5t-172.5 -230.5t-219 -180t-252.5 -117.5t-274 -42q-147 0 -261.5 55
t-192.5 147.5t-118 215.5t-40 258q0 153 47 293.5t128 261.5t191.5 219t238.5 166.5t265.5 106.5t274.5 38q10 0 10 -14q0 -8 -10 -10q-15 -5 -49.5 -9t-102.5 -24q-174 -53 -320.5 -164t-254 -261.5t-168 -330.5t-60.5 -371q0 -141 44.5 -241.5t115 -165t160.5 -94
t182 -29.5q101 0 209.5 43t212 119t196.5 177t162.5 219t110.5 245t41 252q0 8 -1 14t-1 14q-78 -143 -193.5 -272t-247.5 -227.5t-266.5 -156.5t-246.5 -58q-84 0 -144.5 27.5t-100.5 71.5t-59.5 100.5t-19.5 111.5q0 82 33 179t92 193.5t142 186.5t184.5 159.5t218 112.5
t241.5 45q68 70 143 112t144 42q109 0 151 -65.5t42 -167.5q0 -72 -16 -143q-14 -58 -35 -116q51 29 86 68q59 68 47.5 121.5t0 74t32.5 24.5q51 10 62 -38q6 -24 -12 -77t-71 -110q-51 -55 -154 -102z" />
    <glyph glyph-name="uni1EE0" unicode="&#x1ee0;" horiz-adv-x="1681" 
d="M1147 954q0 -26 -19 -26q-10 0 -17 10t-7 27q0 133 60 269t151 241q-101 -9 -202 -50t-193.5 -105.5t-172.5 -146t-138 -170t-92 -179.5t-34 -173q0 -61 20.5 -113.5t56.5 -91t87 -60t113 -21.5q120 0 258.5 66.5t269.5 176t241.5 246.5t178.5 279q-10 69 -36 130.5
t-67 107.5t-99 74t-134 32q-47 -52 -88 -115.5t-72 -131t-48 -138t-17 -138.5zM1622 1624q-53 0 -108.5 -30.5t-108.5 -84.5q45 -6 95 -27.5t96 -57t86 -87t65 -116.5q41 112 41 213q0 92 -31 141t-135 49zM1644 1886q0 -63 -31.5 -107t-93.5 -44q-36 0 -74 14t-73 32.5
t-66.5 33t-54.5 14.5q-18 0 -18 -27q0 -4 2 -12t2 -12q0 -13 -13 -13q-4 0 -14 20.5t-10 45.5q0 29 21.5 60.5t56.5 31.5q22 0 62 -16.5t83 -37t83 -36.5t65 -16q18 0 32.5 16t14.5 51q0 27 10 27q6 0 11 -8.5t5 -16.5zM1769 1136q3 -20 5 -41q3 -28 3 -57
q0 -149 -40.5 -290.5t-112.5 -267.5t-172.5 -230.5t-219 -180t-252.5 -117.5t-274 -42q-147 0 -261.5 55t-192.5 147.5t-118 215.5t-40 258q0 153 47 293.5t128 261.5t191.5 219t238.5 166.5t265.5 106.5t274.5 38q10 0 10 -14q0 -8 -10 -10q-15 -5 -49.5 -9t-102.5 -24
q-174 -53 -320.5 -164t-254 -261.5t-168 -330.5t-60.5 -371q0 -141 44.5 -241.5t115 -165t160.5 -94t182 -29.5q101 0 209.5 43t212 119t196.5 177t162.5 219t110.5 245t41 252q0 8 -1 14t-1 14q-78 -143 -193.5 -272t-247.5 -227.5t-266.5 -156.5t-246.5 -58
q-84 0 -144.5 27.5t-100.5 71.5t-59.5 100.5t-19.5 111.5q0 82 33 179t92 193.5t142 186.5t184.5 159.5t218 112.5t241.5 45q68 70 143 112t144 42q109 0 151 -65.5t42 -167.5q0 -72 -16 -143q-14 -58 -35 -116q51 29 86 68q59 68 47.5 121.5t0 74t32.5 24.5q51 10 62 -38
q6 -24 -12 -77t-71 -110q-51 -55 -154 -102z" />
    <glyph glyph-name="uni1EE2" unicode="&#x1ee2;" horiz-adv-x="1681" 
d="M1147 954q0 -26 -19 -26q-10 0 -17 10t-7 27q0 133 60 269t151 241q-101 -9 -202 -50t-193.5 -105.5t-172.5 -146t-138 -170t-92 -179.5t-34 -173q0 -61 20.5 -113.5t56.5 -91t87 -60t113 -21.5q120 0 258.5 66.5t269.5 176t241.5 246.5t178.5 279q-10 69 -36 130.5
t-67 107.5t-99 74t-134 32q-47 -52 -88 -115.5t-72 -131t-48 -138t-17 -138.5zM1622 1624q-53 0 -108.5 -30.5t-108.5 -84.5q45 -6 95 -27.5t96 -57t86 -87t65 -116.5q41 112 41 213q0 92 -31 141t-135 49zM658 -312q0 -33 -24.5 -57.5t-58.5 -24.5q-33 0 -57.5 24.5
t-24.5 57.5q0 35 24.5 59.5t57.5 24.5q34 0 58.5 -24.5t24.5 -59.5zM1769 1136q3 -20 5 -41q3 -28 3 -57q0 -149 -40.5 -290.5t-112.5 -267.5t-172.5 -230.5t-219 -180t-252.5 -117.5t-274 -42q-147 0 -261.5 55t-192.5 147.5t-118 215.5t-40 258q0 153 47 293.5t128 261.5
t191.5 219t238.5 166.5t265.5 106.5t274.5 38q10 0 10 -14q0 -8 -10 -10q-15 -5 -49.5 -9t-102.5 -24q-174 -53 -320.5 -164t-254 -261.5t-168 -330.5t-60.5 -371q0 -141 44.5 -241.5t115 -165t160.5 -94t182 -29.5q101 0 209.5 43t212 119t196.5 177t162.5 219t110.5 245
t41 252q0 8 -1 14t-1 14q-78 -143 -193.5 -272t-247.5 -227.5t-266.5 -156.5t-246.5 -58q-84 0 -144.5 27.5t-100.5 71.5t-59.5 100.5t-19.5 111.5q0 82 33 179t92 193.5t142 186.5t184.5 159.5t218 112.5t241.5 45q68 70 143 112t144 42q109 0 151 -65.5t42 -167.5
q0 -72 -16 -143q-14 -58 -35 -116q51 29 86 68q59 68 47.5 121.5t0 74t32.5 24.5q51 10 62 -38q6 -24 -12 -77t-71 -110q-51 -55 -154 -102z" />
    <glyph glyph-name="Ygrave" unicode="&#x1ef2;" horiz-adv-x="2013" 
d="M1863 616q17 41 31 94.5l29 110.5l-118.5 -170l-135 -190l-144 -187.5t-143.5 -163t-133.5 -114.5t-112.5 -43q-35 0 -67.5 9t-60 31.5t-44 60.5t-16.5 93q0 82 30.5 180.5t77.5 205l100.5 218t100.5 220t78 211t31 192.5q0 66 -26 127.5t-78 108.5t-133 74.5t-191 27.5
q-168 0 -319.5 -80t-267.5 -208t-183.5 -286.5t-67.5 -316.5q0 -35 16.5 -88t54 -103t99 -86t153.5 -36h28t28 2q-17 53 -25 107.5t-8 99.5q0 143 35 266t97.5 213t148.5 141.5t190 51.5q121 0 171 -72t50 -193q0 -106 -52 -211.5t-138 -194.5t-193.5 -153.5t-218.5 -89.5
q21 -47 37 -75.5t16 -41.5q0 -10 -6 -13t-10 -3q-20 0 -41.5 36t-40.5 89q-16 -4 -32.5 -4h-32.5q-93 0 -160.5 36t-113.5 90t-68.5 117.5t-22.5 118.5q0 119 36 235t97.5 218t145 189t181 150.5t202 98.5t208.5 35q131 0 239 -38t183.5 -101.5t117.5 -148.5t42 -179
q0 -100 -34 -216t-85 -233.5t-109.5 -233.5l-109.5 -215t-85 -178t-34 -124q0 -35 17.5 -59.5t56.5 -24.5q45 0 106.5 43t132 114.5t148.5 168t155 202t149.5 216l133.5 210.5l25 95t23.5 79.5t21.5 57t21 28.5q12 9 33.5 23l44 28.5t44 24.5t37.5 10q29 0 29 -34
q-31 -119 -80 -274.5t-110.5 -327.5t-133 -350.5t-149.5 -342.5q-49 -102 -115.5 -198.5t-154 -172t-194 -120.5t-232.5 -45q-84 0 -120 33.5t-36 80.5q0 29 12 57.5t35 51.5t53.5 37t67.5 14q28 0 44.5 -18.5t16.5 -44.5q0 -66 -49 -104t-104 -50q55 -12 108 -12
q109 0 195 45t152.5 115.5t116.5 157.5t89 173q70 154 120 318zM493 719q0 -64 8.5 -113t20.5 -88q117 25 222 96.5t185 161.5t127 185.5t47 168.5q0 37 -7 76t-24.5 70t-47 51.5t-72.5 20.5q-98 0 -182 -47.5t-145.5 -131.5t-96.5 -199.5t-35 -250.5zM1978 1452
q0 -16 -27 -16q-6 0 -51 12t-97 34.5t-94 54.5t-42 73q0 26 17 42.5t38 16.5q33 0 51.5 -16.5t40.5 -57.5q35 -59 63.5 -83.5t69.5 -36.5q31 -11 31 -23z" />
    <glyph glyph-name="Yacute" unicode="&#xdd;" horiz-adv-x="2013" 
d="M1863 616q17 41 31 94.5l29 110.5l-118.5 -170l-135 -190l-144 -187.5t-143.5 -163t-133.5 -114.5t-112.5 -43q-35 0 -67.5 9t-60 31.5t-44 60.5t-16.5 93q0 82 30.5 180.5t77.5 205l100.5 218t100.5 220t78 211t31 192.5q0 66 -26 127.5t-78 108.5t-133 74.5t-191 27.5
q-168 0 -319.5 -80t-267.5 -208t-183.5 -286.5t-67.5 -316.5q0 -35 16.5 -88t54 -103t99 -86t153.5 -36h28t28 2q-17 53 -25 107.5t-8 99.5q0 143 35 266t97.5 213t148.5 141.5t190 51.5q121 0 171 -72t50 -193q0 -106 -52 -211.5t-138 -194.5t-193.5 -153.5t-218.5 -89.5
q21 -47 37 -75.5t16 -41.5q0 -10 -6 -13t-10 -3q-20 0 -41.5 36t-40.5 89q-16 -4 -32.5 -4h-32.5q-93 0 -160.5 36t-113.5 90t-68.5 117.5t-22.5 118.5q0 119 36 235t97.5 218t145 189t181 150.5t202 98.5t208.5 35q131 0 239 -38t183.5 -101.5t117.5 -148.5t42 -179
q0 -100 -34 -216t-85 -233.5t-109.5 -233.5l-109.5 -215t-85 -178t-34 -124q0 -35 17.5 -59.5t56.5 -24.5q45 0 106.5 43t132 114.5t148.5 168t155 202t149.5 216l133.5 210.5l25 95t23.5 79.5t21.5 57t21 28.5q12 9 33.5 23l44 28.5t44 24.5t37.5 10q29 0 29 -34
q-31 -119 -80 -274.5t-110.5 -327.5t-133 -350.5t-149.5 -342.5q-49 -102 -115.5 -198.5t-154 -172t-194 -120.5t-232.5 -45q-84 0 -120 33.5t-36 80.5q0 29 12 57.5t35 51.5t53.5 37t67.5 14q28 0 44.5 -18.5t16.5 -44.5q0 -66 -49 -104t-104 -50q55 -12 108 -12
q109 0 195 45t152.5 115.5t116.5 157.5t89 173q70 154 120 318zM493 719q0 -64 8.5 -113t20.5 -88q117 25 222 96.5t185 161.5t127 185.5t47 168.5q0 37 -7 76t-24.5 70t-47 51.5t-72.5 20.5q-98 0 -182 -47.5t-145.5 -131.5t-96.5 -199.5t-35 -250.5zM2048 1522
q0 -41 -42 -73t-94.5 -54.5t-97.5 -34.5t-51 -12q-27 0 -27 16q0 12 31 22q41 13 69.5 37.5t63.5 83.5q23 41 41 57.5t51 16.5q21 0 38.5 -16.5t17.5 -42.5z" />
    </font>
</defs>
</svg>
